SplineFontDB: 3.0
FontName: GTRS_StpB
FullName: GOSTRUS type sB
FamilyName: GOSTRUS
Weight: type_sB
Copyright: Copyright(c)2016,Yuriy & Tatyana Krivoguz. Created by Yuriy & Tatyana Krivoguz, with FontForge 2.0 (http://fontforge.sf.net)
UComments: "2016-2-1: Created with FontForge (http://fontforge.org)+AAoEEwQwBEAEPQQ4BEIEQwRABDAA +BD8EPgAA +BBMEHgQhBCIA 2.304-81, +BDoEPgQ9BEYENQQyBEsENQAA +BDIESwQ/BD4EOwQ9BDUEPQRL +BDgEPAQ4BEIEMARGBDgENQQ5 +BEgEOARABD4EOgQ+BDMEPgAA +BD8ENQRABDAA, +BD4EQgQ0BDUEOwRMBD0ESwQ1 +BD0EMAQxBD4EQARL +BEAEMARBBEgEOARABDUEPQRL."
FontLog: "2016-2-1: Created with FontForge (http://fontforge.org) :GOSTRUS type sB+AAoA-21-2-2016: Created with FontForge: GOSTRUS type sB : V1.0+AAoA-29-2-2016: Created with FontForge: GOSTRUS type sB : V2.0"
Version: 02.00
ItalicAngle: -15
UnderlinePosition: -64
UnderlineWidth: 127
Ascent: 1663
Descent: 385
InvalidEm: 0
sfntRevision: 0x00010000
LayerCount: 2
Layer: 0 1 "+BBcEMAQ0BD0EOAQ5 +BD8EOwQwBD0A" 1
Layer: 1 1 "+BB8ENQRABDUENAQ9BDgEOQAA +BD8EOwQwBD0A" 0
XUID: [1021 894 1805457016 26013]
StyleMap: 0x0001
FSType: 0
OS2Version: 0
OS2_WeightWidthSlopeOnly: 0
OS2_UseTypoMetrics: 1
CreationTime: 1454308552
ModificationTime: 1456789998
PfmFamily: 33
TTFWeight: 400
TTFWidth: 5
LineGap: 0
VLineGap: 0
OS2TypoAscent: 1663
OS2TypoAOffset: 0
OS2TypoDescent: -385
OS2TypoDOffset: 0
OS2TypoLinegap: 126
OS2WinAscent: 1693
OS2WinAOffset: 0
OS2WinDescent: 388
OS2WinDOffset: 0
HheadAscent: 1693
HheadAOffset: 0
HheadDescent: -388
HheadDOffset: 0
OS2CapHeight: 1279
OS2XHeight: 897
OS2FamilyClass: 2053
OS2Vendor: 'YuTa'
MarkAttachClasses: 1
DEI: 91125
ShortTable: maxp 16
  0
  0
  0
  0
  0
  0
  0
  2
  1
  2
  22
  0
  256
  0
  0
  0
EndShort
TtTable: prep
PUSHW_1
 511
SCANCTRL
PUSHB_1
 1
SCANTYPE
SVTCA[y-axis]
MPPEM
PUSHB_1
 8
LT
IF
PUSHB_2
 1
 1
INSTCTRL
EIF
PUSHB_2
 70
 6
CALL
IF
POP
PUSHB_1
 16
EIF
MPPEM
PUSHB_1
 20
GT
IF
POP
PUSHB_1
 128
EIF
SCVTCI
PUSHB_1
 6
CALL
NOT
IF
EIF
PUSHB_1
 20
CALL
EndTTInstrs
TtTable: fpgm
PUSHB_1

StartChar: exclam
Encoding: 33 33 1
Width: 384
VWidth: 2175
GlyphClass: 2
Flags: W
HStem: 0 127<76.8281 193.602>
VStem: 66 125<0 125.759>
DStem2: 51.4033 0 182.815 0 0.258819 0.965926<22.6497 143.383 355.028 1335.74>
LayerCount: 2
Fore
SplineSet
204 85 m 2,0,-1
 191 34 l 2,1,2
 183 0 183 0 147 0 c 2,3,-1
 98 0 l 2,4,5
 56 0 56 0 66 42 c 2,6,-1
 79 93 l 2,7,8
 87 127 87 127 123 127 c 2,9,-1
 172 127 l 2,10,11
 215 127 215 127 204 85 c 2,0,-1
514 1236 m 1,12,-1
 278 355 l 2,13,14
 270 321 270 321 234 321 c 2,15,-1
 181 321 l 2,16,17
 139 321 139 321 149 363 c 2,18,-1
 385 1245 l 2,19,20
 393 1279 393 1279 429 1279 c 2,21,-1
 482 1279 l 2,22,23
 527 1278 527 1278 514 1236 c 1,12,-1
EndSplineSet
EndChar

StartChar: quotedbl
Encoding: 34 34 2
Width: 692
VWidth: 2175
GlyphClass: 2
Flags: W
HStem: 897 382<365 493 622 750>
VStem: 365 128<897 1279> 622 128<897 1279>
LayerCount: 2
Fore
SplineSet
622 931 m 2,0,-1
 622 1245 l 2,1,2
 622 1279 622 1279 656 1279 c 2,3,-1
 716 1279 l 2,4,5
 750 1279 750 1279 750 1245 c 2,6,-1
 750 931 l 2,7,8
 750 897 750 897 716 897 c 2,9,-1
 656 897 l 2,10,11
 622 897 622 897 622 931 c 2,0,-1
365 931 m 2,12,-1
 365 1245 l 2,13,14
 365 1279 365 1279 399 1279 c 2,15,-1
 459 1279 l 2,16,17
 493 1279 493 1279 493 1245 c 2,18,-1
 493 931 l 2,19,20
 493 897 493 897 459 897 c 2,21,-1
 399 897 l 2,22,23
 365 897 365 897 365 931 c 2,12,-1
EndSplineSet
EndChar

StartChar: numbersign
Encoding: 35 35 3
Width: 1278
VWidth: 2175
GlyphClass: 2
Flags: MW
HStem: 321 127<162.344 350.5 549.819 744.181 944.766 1172.62> 831 129<300.228 540.181 730.819 912.391 1114.88 1310.74>
DStem2: 223 -81 355 -96 0.334486 0.942401<-16.2089 410.731 622.556 952.54 1165.56 1596.64> 608 -81 737 -96 0.332125 0.943235<-16.8735 410.94 620.446 951.814 1163.31 1595.2>
LayerCount: 2
Fore
SplineSet
780 1409 m 2,0,-1
 835 1409 l 2,1,2
 880 1409 880 1409 867 1362 c 2,3,-1
 731 977 l 2,4,5
 725 960 725 960 744 960 c 2,6,-1
 962 960 l 2,7,8
 973 960 973 960 977 971 c 2,9,-1
 1120 1377 l 2,10,11
 1131 1409 1131 1409 1164 1409 c 2,12,-1
 1217 1409 l 2,13,14
 1266 1409 1266 1409 1251 1362 c 2,15,-1
 1115 977 l 2,16,17
 1111 960 1111 960 1126 960 c 2,18,-1
 1290 960 l 2,19,20
 1337 960 1337 960 1324 918 c 2,21,-1
 1309 867 l 2,22,23
 1298 831 1298 831 1264 831 c 2,24,-1
 1077 831 l 2,25,26
 1064 831 1064 831 1060 820 c 6,27,-1
 935 465 l 6,28,29
 928 448 928 448 948 448 c 2,30,-1
 1154 448 l 2,31,32
 1196 448 1196 448 1185 406 c 2,33,-1
 1173 355 l 2,34,35
 1161 321 1161 321 1128 321 c 2,36,-1
 897 321 l 2,37,38
 886 321 886 321 880 308 c 2,39,-1
 737 -96 l 2,40,41
 726 -126 726 -126 695 -125 c 2,42,-1
 639 -125 l 2,43,44
 588 -125 588 -125 608 -81 c 2,45,-1
 744 304 l 2,46,47
 750 321 750 321 731 321 c 2,48,-1
 512 321 l 2,49,50
 501 321 501 321 497 308 c 2,51,-1
 355 -96 l 2,52,53
 344 -126 344 -126 310 -125 c 2,54,-1
 255 -125 l 2,55,56
 209 -125 209 -125 223 -81 c 2,57,-1
 359 304 l 2,58,59
 366 321 366 321 346 321 c 2,60,-1
 185 321 l 2,61,62
 140 321 140 321 151 363 c 2,63,-1
 164 412 l 2,64,65
 175 448 175 448 210 448 c 2,66,-1
 397 448 l 2,67,68
 410 448 410 448 414 459 c 2,69,-1
 540 814 l 2,70,71
 546 831 546 831 527 831 c 2,72,-1
 321 831 l 2,73,74
 278 831 278 831 289 875 c 2,75,-1
 302 924 l 2,76,77
 313 960 313 960 346 960 c 2,78,-1
 578 960 l 2,79,80
 591 960 591 960 595 971 c 2,81,-1
 735 1377 l 2,82,83
 748 1409 748 1409 780 1409 c 2,0,-1
799 459 m 6,84,-1
 922 814 l 6,85,86
 928 831 928 831 911 831 c 2,87,-1
 693 831 l 2,88,89
 680 831 680 831 676 820 c 2,90,-1
 550 465 l 2,91,92
 544 448 544 448 563 448 c 2,93,-1
 782 448 l 2,94,95
 795 448 795 448 799 459 c 6,84,-1
EndSplineSet
EndChar

StartChar: dollar
Encoding: 36 36 4
Width: 896
VWidth: 2175
GlyphClass: 2
Flags: W
VStem: 302 127<799.509 955.922> 682 127<322.972 478.737>
DStem2: 317.746 0 449.89 0 0.258819 0.965926<22.2311 135.45 320.362 555.738 793.436 1041.54 1222.4 1336.05> 465 807 380 712 0.742461 -0.669889<-68.9457 66.0825 302.902 427.682>
LayerCount: 2
Fore
SplineSet
697 1279 m 2,0,-1
 748 1279 l 2,1,2
 765 1279 765 1279 775.5 1267 c 128,-1,3
 786 1255 786 1255 782 1236 c 2,4,-1
 763 1162 l 2,5,6
 760 1146 760 1146 775 1143 c 0,7,8
 893 1114 893 1114 956 1052 c 0,9,10
 964 1044 964 1044 965 1030 c 0,11,12
 965 1010 965 1010 945 999 c 2,13,-1
 888 971 l 2,14,15
 867 960 867 960 852 975 c 0,16,17
 808 1007 808 1007 739 1018 c 0,18,19
 723 1021 723 1021 720 1007 c 2,20,-1
 633 682 l 2,21,22
 630 662 630 662 644 648 c 2,23,-1
 731 567 l 2,24,25
 810 495 810 495 809 408 c 0,26,27
 808 299 808 299 724.5 229 c 128,-1,28
 641 159 641 159 508 134 c 0,29,30
 487 131 487 131 480 108 c 2,31,-1
 459 34 l 2,32,33
 449 0 449 0 414 0 c 2,34,-1
 363 0 l 2,35,36
 348 0 348 0 336 13 c 0,37,38
 326 23 326 23 329 42 c 2,39,-1
 348 117 l 2,40,41
 351 135 351 135 336 138 c 0,42,43
 216 154 216 154 155 227 c 0,44,45
 147 239 147 239 147 251 c 0,46,47
 147 274 147 274 166 280 c 2,48,-1
 221 308 l 2,49,50
 243 318 243 318 259 302 c 0,51,52
 293 271 293 271 372 261 c 0,53,54
 388 258 388 258 391 272 c 2,55,-1
 478 599 l 2,56,57
 484 616 484 616 467 633 c 2,58,-1
 380 712 l 2,59,60
 305 778 305 778 302 871 c 0,61,62
 302 974 302 974 391 1051.5 c 128,-1,63
 480 1129 480 1129 603 1147 c 0,64,65
 627 1150 627 1150 631 1171 c 2,66,-1
 652 1245 l 2,67,68
 659 1279 659 1279 697 1279 c 2,0,-1
584 504 m 2,69,-1
 527 287 l 2,70,71
 525 279 525 279 527 275.5 c 128,-1,72
 529 272 529 272 537 272 c 0,73,74
 586 272 586 272 634 319 c 128,-1,75
 682 366 682 366 682 408 c 0,76,77
 682 442 682 442 646 472 c 2,78,-1
 605 510 l 2,79,80
 590 525 590 525 584 504 c 2,69,-1
527 778 m 2,81,-1
 584 992 l 2,82,83
 587 1009 587 1009 576 1009 c 0,84,85
 523 1005 523 1005 476 958.5 c 128,-1,86
 429 912 429 912 429 871 c 0,87,88
 429 840 429 840 465 807 c 2,89,-1
 506 771 l 2,90,91
 512 765 512 765 518.5 767.5 c 128,-1,92
 525 770 525 770 527 778 c 2,81,-1
EndSplineSet
EndChar

StartChar: percent
Encoding: 37 37 5
Width: 1790
VWidth: 2175
GlyphClass: 2
Flags: W
HStem: 0 127<1244.91 1456.88> 448 128<1319 1542.05> 703 128<473.907 685.876> 1151 128<548.003 771.05>
VStem: 321 127<855.723 1054.43> 784 130<928.142 1137.38> 1092 127<150.772 350.638> 1555 130<222.728 434.077>
DStem2: 412 55 546 17 0.655002 0.755627<-1.80907 1658.42>
LayerCount: 2
Fore
SplineSet
1449 576 m 3,0,1
 1550 576 1550 576 1617.5 513 c 128,-1,2
 1685 450 1685 450 1685 351 c 0,3,4
 1685 210 1685 210 1576.5 105 c 128,-1,5
 1468 0 1468 0 1328 0 c 0,6,7
 1235 0 1235 0 1163.5 65 c 128,-1,8
 1092 130 1092 130 1092 227 c 0,9,10
 1092 367 1092 367 1200 471.5 c 128,-1,11
 1308 576 1308 576 1449 576 c 3,0,1
1449 448 m 3,12,13
 1362 448 1362 448 1290.5 381 c 128,-1,14
 1219 314 1219 314 1219 229 c 0,15,16
 1219 183 1219 183 1251 155 c 128,-1,17
 1283 127 1283 127 1328 127 c 0,18,19
 1414 127 1414 127 1484.5 194.5 c 128,-1,20
 1555 262 1555 262 1555 346 c 0,21,22
 1555 448 1555 448 1449 448 c 3,12,13
1593 1224 m 2,23,-1
 546 17 l 2,24,25
 529 0 529 0 512 0 c 2,26,-1
 438 0 l 2,27,28
 419 0 419 0 408 19 c 128,-1,29
 397 38 397 38 412 55 c 2,30,-1
 1460 1264 l 2,31,32
 1475 1279 1475 1279 1496 1279 c 2,33,-1
 1568 1279 l 2,34,35
 1590 1279 1590 1279 1599.5 1261 c 128,-1,36
 1609 1243 1609 1243 1593 1224 c 2,23,-1
678 1279 m 3,37,38
 779 1279 779 1279 846.5 1216.5 c 128,-1,39
 914 1154 914 1154 914 1054 c 0,40,41
 914 913 914 913 805.5 808 c 128,-1,42
 697 703 697 703 557 703 c 0,43,44
 464 703 464 703 392.5 768 c 128,-1,45
 321 833 321 833 321 931 c 0,46,47
 321 1071 321 1071 429 1175 c 128,-1,48
 537 1279 537 1279 678 1279 c 3,37,38
678 1151 m 3,49,50
 591 1151 591 1151 519.5 1084.5 c 128,-1,51
 448 1018 448 1018 448 933 c 0,52,53
 448 887 448 887 480 859 c 128,-1,54
 512 831 512 831 557 831 c 0,55,56
 643 831 643 831 713.5 898.5 c 128,-1,57
 784 966 784 966 784 1049 c 0,58,59
 784 1151 784 1151 678 1151 c 3,49,50
EndSplineSet
EndChar

StartChar: ampersand
Encoding: 38 38 6
Width: 1151
VWidth: 2175
GlyphClass: 2
Flags: W
HStem: 0 127<325.425 600.906> 1151 128<654.375 852.12>
VStem: 153 127<171.434 431.604> 459 127<851.539 1082.49> 858 132<965.601 1144.45>
DStem2: 368 656 707 733 0.828255 0.560351<-180.958 156.075 325.918 615.996> 595 939 478 888 0.373362 -0.927686<-36.6909 97.8956 276.103 632.568 821.952 978.092> 635 193 712 89 0.800294 0.599608<-166.358 70.5879 260.814 437.392>
LayerCount: 2
Fore
SplineSet
822 30 m 2,0,-1
 784 125 l 2,1,2
 778 142 778 142 765 130 c 2,3,-1
 712 89 l 1,4,5
 581 0 581 0 448 0 c 0,6,7
 319 0 319 0 236 79 c 128,-1,8
 153 158 153 158 153 289 c 0,9,10
 153 395 153 395 217 496 c 128,-1,11
 281 597 281 597 368 656 c 2,12,-1
 504 750 l 2,13,14
 525 765 525 765 516 790 c 2,15,-1
 478 888 l 2,16,17
 459 929 459 929 459 973 c 0,18,19
 459 1092 459 1092 552.5 1185.5 c 128,-1,20
 646 1279 646 1279 773 1279 c 0,21,22
 860 1279 860 1279 925 1220 c 128,-1,23
 990 1161 990 1161 990 1071 c 0,24,25
 990 923 990 923 843 824 c 2,26,-1
 707 733 l 2,27,28
 683 717 683 717 695 690 c 2,29,-1
 829 357 l 2,30,31
 835 338 835 338 848 351 c 2,32,-1
 962 436 l 2,33,34
 992 459 992 459 1011 429 c 2,35,-1
 1045 382 l 2,36,37
 1056 368 1056 368 1056 361 c 0,38,39
 1056 347 1056 347 1039 334 c 2,40,-1
 905 236 l 2,41,42
 885 219 885 219 894 195 c 2,43,-1
 954 47 l 2,44,45
 973 0 973 0 922 0 c 2,46,-1
 867 0 l 2,47,48
 835 0 835 0 822 30 c 2,0,-1
720 287 m 1,49,-1
 582 629 l 2,50,51
 577 644 577 644 563 635 c 2,52,-1
 438 550 l 1,53,54
 281 434 281 434 280 289 c 0,55,56
 280 214 280 214 325.5 170.5 c 128,-1,57
 371 127 371 127 448 127 c 0,58,59
 544 127 544 127 635 193 c 2,60,-1
 707 246 l 2,61,62
 726 263 726 263 720 287 c 1,49,-1
648 848 m 10,63,-1
 771 931 l 2,64,65
 858 986 858 986 858 1071 c 0,66,67
 858 1152 858 1152 773 1151 c 0,68,69
 700 1151 700 1151 643 1096.5 c 128,-1,70
 586 1042 586 1042 586 975 c 0,71,72
 586 973 586 973 595 939 c 1,73,-1
 629 852 l 2,74,75
 635 838 635 838 648 848 c 10,63,-1
EndSplineSet
EndChar

StartChar: quotesingle
Encoding: 39 39 7
Width: 435
VWidth: 2175
GlyphClass: 2
Flags: W
HStem: 894 385<365 493>
VStem: 365 128<894 1279>
LayerCount: 2
Fore
SplineSet
365 931 m 2,0,-1
 365 1245 l 2,1,2
 365 1279 365 1279 399 1279 c 2,3,-1
 459 1279 l 2,4,5
 493 1279 493 1279 493 1245 c 2,6,-1
 493 931 l 2,7,8
 493 895 493 895 459 894 c 2,9,-1
 399 894 l 2,10,11
 365 895 365 895 365 931 c 2,0,-1
EndSplineSet
EndChar

StartChar: parenleft
Encoding: 40 40 8
Width: 512
VWidth: 2175
GlyphClass: 2
Flags: W
VStem: 153 127<-124.463 366.539>
LayerCount: 2
Fore
SplineSet
605 1423 m 1,0,-1
 656 1392 l 2,1,2
 684 1376 684 1376 667 1345 c 0,3,4
 557 1152 557 1152 495 1011 c 0,5,6
 343 663 343 663 287 232 c 0,7,8
 268 89 268 89 280 -87 c 0,9,10
 283 -120 283 -120 249 -123 c 2,11,-1
 191 -130 l 2,12,13
 156 -133 156 -133 153 -98 c 0,14,15
 143 62 143 62 159 244 c 0,16,17
 194 633 194 633 378 1062 c 0,18,19
 481 1304 481 1304 559 1413 c 0,20,21
 576 1439 576 1439 605 1423 c 1,0,-1
EndSplineSet
EndChar

StartChar: parenright
Encoding: 41 41 9
Width: 512
VWidth: 2175
GlyphClass: 2
Flags: W
VStem: 444 127<921.188 1405.46>
LayerCount: 2
Fore
SplineSet
119 -142 m 1,0,-1
 68 -110 l 2,1,2
 39 -88 39 -88 57 -64 c 0,3,4
 122 24 122 24 229 263 c 0,5,6
 393 633 393 633 438 1043 c 0,7,8
 454 1199 454 1199 444 1368 c 0,9,10
 441 1401 441 1401 476 1404 c 2,11,-1
 535 1411 l 2,12,13
 568 1414 568 1414 571 1379 c 0,14,15
 581 1190 581 1190 565 1030 c 0,16,17
 517 591 517 591 346 212 c 0,18,19
 275 51 275 51 166 -130 c 0,20,21
 150 -159 150 -159 119 -142 c 1,0,-1
EndSplineSet
EndChar

StartChar: asterisk
Encoding: 42 42 10
Width: 766
VWidth: 2175
GlyphClass: 2
Flags: W
HStem: 960 128<338 429 761 850>
VStem: 338 512<960 1088>
DStem2: 440 939 552 875 0.644196 0.764861<-125.341 0 329.727 453.622> 597 1232 476 1194 0.295684 -0.955286<-32.78 57.5673 338.649 429.13>
LayerCount: 2
Fore
SplineSet
850 1054 m 2,0,-1
 850 994 l 2,1,2
 850 960 850 960 816 960 c 2,3,-1
 699 960 l 2,4,5
 680 960 680 960 686 943 c 2,6,-1
 714 854 l 2,7,8
 721 822 721 822 690 812 c 2,9,-1
 635 792 l 2,10,11
 605 781 605 781 593 816 c 2,12,-1
 576 871 l 2,13,14
 568 893 568 893 552 875 c 2,15,-1
 478 786 l 2,16,17
 457 761 457 761 429 782 c 2,18,-1
 385 822 l 2,19,20
 361 845 361 845 380 869 c 2,21,-1
 440 939 l 2,22,23
 458 960 458 960 429 960 c 2,24,-1
 372 960 l 2,25,26
 338 960 338 960 338 994 c 2,27,-1
 338 1054 l 2,28,29
 338 1088 338 1088 372 1088 c 2,30,-1
 491 1088 l 2,31,32
 508 1088 508 1088 504 1105 c 2,33,-1
 476 1194 l 2,34,35
 465 1225 465 1225 497 1236 c 2,36,-1
 554 1253 l 2,37,38
 588 1265 588 1265 597 1232 c 2,39,-1
 614 1177 l 2,40,41
 620 1155 620 1155 635 1173 c 2,42,-1
 712 1260 l 2,43,44
 732 1285 732 1285 758 1264 c 2,45,-1
 805 1226 l 1,46,47
 828 1201 828 1201 809 1179 c 2,48,-1
 750 1109 l 2,49,50
 732 1088 732 1088 761 1088 c 2,51,-1
 816 1088 l 2,52,53
 850 1088 850 1088 850 1054 c 2,0,-1
EndSplineSet
EndChar

StartChar: plus
Encoding: 43 43 11
Width: 896
VWidth: 2175
GlyphClass: 2
Flags: W
HStem: 385 127<188.828 408.422 599.375 818.607>
VStem: 178 651
DStem2: 350.764 127 485.086 127 0.258819 0.965926<23.072 255.579 445.027 674.228>
LayerCount: 2
Fore
SplineSet
829 470 m 1,0,-1
 816 419 l 2,1,2
 804 385 804 385 771 385 c 2,3,-1
 580 385 l 2,4,5
 552 385 552 385 546 359 c 2,6,-1
 495 164 l 2,7,8
 482 128 482 128 448 127 c 2,9,-1
 397 127 l 2,10,11
 350 127 350 127 363 170 c 2,12,-1
 414 363 l 2,13,14
 420 384 420 384 399 385 c 2,15,-1
 210 385 l 2,16,17
 168 385 168 385 178 427 c 2,18,-1
 191 478 l 2,19,20
 199 512 199 512 238 512 c 2,21,-1
 429 512 l 2,22,23
 454 512 454 512 461 537 c 2,24,-1
 514 733 l 2,25,26
 522 767 522 767 559 767 c 2,27,-1
 612 767 l 2,28,29
 657 767 657 767 644 724 c 2,30,-1
 593 533 l 2,31,32
 588 512 588 512 610 512 c 2,33,-1
 797 512 l 2,34,35
 842 512 842 512 829 470 c 1,0,-1
EndSplineSet
EndChar

StartChar: comma
Encoding: 44 44 12
Width: 384
VWidth: 2175
GlyphClass: 2
Flags: W
HStem: -255 382
VStem: 11 263
DStem2: 11 -206 140 -225 0.401133 0.91602<-17.3833 382.704>
LayerCount: 2
Fore
SplineSet
274 81 m 2,0,-1
 140 -225 l 2,1,2
 127 -255 127 -255 98 -255 c 2,3,-1
 42 -255 l 2,4,5
 -10 -255 -10 -255 11 -206 c 2,6,-1
 144 100 l 2,7,8
 157 128 157 128 187 127 c 2,9,-1
 244 127 l 2,10,11
 295 128 295 128 274 81 c 2,0,-1
EndSplineSet
EndChar

StartChar: hyphen
Encoding: 45 45 13
Width: 896
VWidth: 2175
GlyphClass: 2
Flags: W
HStem: 385 127<191.381 818.607>
VStem: 178 651
LayerCount: 2
Fore
SplineSet
238 512 m 2,0,-1
 797 512 l 2,1,2
 842 512 842 512 829 470 c 2,3,-1
 816 419 l 2,4,5
 804 385 804 385 771 385 c 2,6,-1
 210 385 l 2,7,8
 168 385 168 385 178 427 c 2,9,-1
 191 478 l 2,10,11
 203 512 203 512 238 512 c 2,0,-1
EndSplineSet
EndChar

StartChar: period
Encoding: 46 46 14
Width: 384
VWidth: 2175
GlyphClass: 2
Flags: W
HStem: 0 127<86.8281 204.602>
VStem: 76 126<3.4e-007 125.597>
LayerCount: 2
Fore
SplineSet
215 85 m 2,0,-1
 202 34 l 2,1,2
 194 0 194 0 157 0 c 2,3,-1
 108 0 l 2,4,5
 66 0 66 0 76 42 c 2,6,-1
 89 93 l 2,7,8
 97 127 97 127 134 127 c 2,9,-1
 183 127 l 2,10,11
 226 127 226 127 215 85 c 2,0,-1
EndSplineSet
EndChar

StartChar: slash
Encoding: 47 47 15
Width: 896
VWidth: 2175
GlyphClass: 2
Flags: W
DStem2: 1077 1668 1188 1602 0.516053 0.856556<-2204.04 33.0078>
LayerCount: 2
Fore
SplineSet
-42 -191 m 1,0,-1
 1077 1668 l 2,1,2
 1097 1696 1097 1696 1124 1678 c 2,3,-1
 1175 1649 l 2,4,5
 1205 1632 1205 1632 1188 1602 c 2,6,-1
 68 -257 l 2,7,8
 51 -287 51 -287 21 -270 c 2,9,-1
 -30 -238 l 2,10,11
 -60 -219 -60 -219 -42 -191 c 1,0,-1
EndSplineSet
EndChar

StartChar: zero
Encoding: 48 48 16
Width: 896
VWidth: 2175
GlyphClass: 2
Flags: W
HStem: 0 127<300.802 538.177> 1151 128<570.13 808.688>
VStem: 140 130<157.943 356.049> 841 130<834.195 1121.75>
DStem2: 62.9691 0 194.543 0 0.258819 0.965926<286.58 1154.8> 573.75 0 706.543 0 0.258819 0.965926<203.555 1071.71>
LayerCount: 2
Fore
SplineSet
958 943 m 2,0,-1
 788 304 l 2,1,2
 755 182 755 182 645.5 91 c 128,-1,3
 536 0 536 0 402 0 c 3,4,5
 290 0 290 0 215 71.5 c 128,-1,6
 140 143 140 143 140 253 c 0,7,8
 140 294 140 294 153 336 c 2,9,-1
 323 975 l 2,10,11
 356 1097 356 1097 466 1188 c 128,-1,12
 576 1279 576 1279 710 1279 c 3,13,14
 812 1279 812 1279 891.5 1211.5 c 128,-1,15
 971 1144 971 1144 971 1045 c 0,16,17
 969 984 969 984 958 943 c 2,0,-1
665 336 m 2,18,-1
 835 975 l 2,19,20
 841 1004 841 1004 841 1039 c 0,21,22
 841 1092 841 1092 801 1121.5 c 128,-1,23
 761 1151 761 1151 701 1151 c 3,24,25
 619 1151 619 1151 543.5 1085.5 c 128,-1,26
 468 1020 468 1020 446 943 c 2,27,-1
 276 304 l 2,28,29
 270 279 270 279 270 240 c 0,30,31
 270 187 270 187 307 157 c 128,-1,32
 344 127 344 127 404 127 c 3,33,34
 490 127 490 127 565 192 c 0,35,36
 644 255 644 255 665 336 c 2,18,-1
EndSplineSet
EndChar

StartChar: one
Encoding: 49 49 17
Width: 575
VWidth: 2175
GlyphClass: 2
Flags: W
DStem2: 253.137 0 386.815 0 0.258819 0.965926<23.0125 1090.46> 266 994 353 901 0.730554 0.682855<-33.7493 231.412>
LayerCount: 2
Fore
SplineSet
718 1236 m 6,0,-1
 395 34 l 2,1,2
 385 0 385 0 351 0 c 2,3,-1
 297 0 l 2,4,5
 256 0 256 0 266 42 c 2,6,-1
 531 1037 l 2,7,8
 535 1056 535 1056 525 1056 c 0,9,10
 519 1056 519 1056 512 1049 c 2,11,-1
 353 901 l 2,12,13
 330 878 330 878 304 903 c 2,14,-1
 263 948 l 2,15,16
 241 970 241 970 266 994 c 2,17,-1
 557 1266 l 2,18,19
 570 1279 570 1279 588 1279 c 2,20,-1
 684 1279 l 2,21,22
 730 1278 730 1278 718 1236 c 6,0,-1
EndSplineSet
EndChar

StartChar: two
Encoding: 50 50 18
Width: 896
VWidth: 2175
GlyphClass: 2
Flags: W
HStem: 0 127<288.296 716.061> 1151 128<571.04 818.505>
VStem: 841 130<894.172 1128.5>
DStem2: 108 149 289 157 0.680451 0.732793<128.357 1122.72>
LayerCount: 2
Fore
SplineSet
365 1073 m 0,0,1
 419 1158 419 1158 509.5 1218.5 c 128,-1,2
 600 1279 600 1279 710 1279 c 0,3,4
 812 1279 812 1279 891.5 1211.5 c 128,-1,5
 971 1144 971 1144 971 1045 c 0,6,7
 971 966 971 966 940 894 c 128,-1,8
 909 822 909 822 865 778 c 2,9,-1
 289 157 l 2,10,11
 266 127 266 127 302 127 c 2,12,-1
 693 127 l 2,13,14
 737 127 737 127 727 85 c 2,15,-1
 714 34 l 2,16,17
 704 0 704 0 667 0 c 2,18,-1
 106 0 l 2,19,20
 65 0 65 0 74 42 c 2,21,-1
 96 130 l 2,22,23
 99 140 99 140 108 149 c 2,24,-1
 771 863 l 2,25,26
 841 939 841 939 841 1026 c 0,27,28
 841 1151 841 1151 710 1151 c 0,29,30
 638 1151 638 1151 575 1109.5 c 128,-1,31
 512 1068 512 1068 478 1011 c 0,32,33
 462 989 462 989 433 999 c 2,34,-1
 380 1024 l 2,35,36
 345 1040 345 1040 365 1073 c 0,0,1
EndSplineSet
EndChar

StartChar: three
Encoding: 51 51 19
Width: 896
VWidth: 2175
GlyphClass: 2
Flags: W
HStem: 0 127<85.9531 541.235> 639 128<385.953 668.9> 1151 128<394.585 803.354>
VStem: 705 128<418.766 605.996> 841 130<896.98 1120.84>
DStem2: 574.404 0 706.543 0 0.258819 0.965926<201.783 539.857>
LayerCount: 2
Fore
SplineSet
442 1279 m 2,0,-1
 710 1279 l 2,1,2
 818 1279 818 1279 894.5 1215 c 128,-1,3
 971 1151 971 1151 971 1045 c 0,4,5
 971 813 971 813 775 701 c 0,6,7
 760 693 760 693 784 669 c 0,8,9
 833 620 833 620 833 514 c 0,10,11
 833 484 833 484 822 431 c 2,12,-1
 788 304 l 2,13,14
 755 181 755 181 645.5 90.5 c 128,-1,15
 536 0 536 0 402 0 c 2,16,-1
 108 0 l 2,17,18
 64 0 64 0 74 42 c 2,19,-1
 89 93 l 2,20,21
 99 127 99 127 134 127 c 2,22,-1
 402 127 l 2,23,24
 493 127 493 127 568 191 c 128,-1,25
 643 255 643 255 665 336 c 2,26,-1
 699 465 l 2,27,28
 705 490 705 490 705 525 c 0,29,30
 705 575 705 575 670 607 c 128,-1,31
 635 639 635 639 574 639 c 2,32,-1
 408 639 l 2,33,34
 364 639 364 639 374 682 c 2,35,-1
 389 733 l 2,36,37
 399 767 399 767 433 767 c 2,38,-1
 574 767 l 2,39,40
 675 767 675 767 758 849.5 c 128,-1,41
 841 932 841 932 841 1028 c 0,42,43
 841 1086 841 1086 804.5 1118.5 c 128,-1,44
 768 1151 768 1151 710 1151 c 2,45,-1
 416 1151 l 2,46,47
 375 1151 375 1151 385 1194 c 2,48,-1
 397 1245 l 2,49,50
 407 1279 407 1279 442 1279 c 2,0,-1
EndSplineSet
EndChar

StartChar: four
Encoding: 52 52 20
Width: 1024
VWidth: 2175
GlyphClass: 2
Flags: W
HStem: 255 130<333.696 564.625 756.625 910.735>
DStem2: 134 306 334 408 0.472993 0.881066<181.378 1127.6> 508.3 0 642.89 0 0.258819 0.965926<22.9654 252.558 445.304 673.207>
LayerCount: 2
Fore
SplineSet
520 42 m 1,0,-1
 571 234 l 2,1,2
 577 255 577 255 557 255 c 2,3,-1
 164 255 l 2,4,5
 143 255 143 255 133 272 c 128,-1,6
 123 289 123 289 134 306 c 2,7,-1
 644 1256 l 2,8,9
 658 1279 658 1279 684 1279 c 2,10,-1
 744 1279 l 2,11,12
 800 1279 800 1279 773 1230 c 2,13,-1
 334 408 l 2,14,15
 324 385 324 385 348 385 c 2,16,-1
 586 385 l 2,17,18
 615 385 615 385 618 410 c 2,19,-1
 671 605 l 2,20,21
 681 639 681 639 716 639 c 2,22,-1
 769 639 l 2,23,24
 816 639 816 639 803 597 c 2,25,-1
 750 406 l 2,26,27
 744 385 744 385 767 385 c 2,28,-1
 890 385 l 2,29,30
 937 385 937 385 924 342 c 2,31,-1
 909 291 l 2,32,33
 899 255 899 255 865 255 c 2,34,-1
 737 255 l 2,35,36
 709 255 709 255 703 232 c 2,37,-1
 652 34 l 2,38,39
 642 0 642 0 605 0 c 2,40,-1
 554 0 l 2,41,42
 510 0 510 0 520 42 c 1,0,-1
EndSplineSet
EndChar

StartChar: five
Encoding: 53 53 21
Width: 896
VWidth: 2175
GlyphClass: 2
Flags: W
HStem: 0 127<85.9531 539.747> 639 128<411.688 683.695> 1151 128<492.734 1024.61>
VStem: 705 128<418.766 616.875>
DStem2: 61.2587 0 194.856 0 0.258819 0.965926<840.597 1236.46> 574.404 0 706.543 0 0.258819 0.965926<205.551 533.424>
LayerCount: 2
Fore
SplineSet
977 1151 m 2,0,-1
 529 1151 l 2,1,2
 504 1151 504 1151 497 1126 c 2,3,-1
 406 788 l 2,4,5
 400 767 400 767 423 767 c 2,6,-1
 574 767 l 2,7,8
 684 767 684 767 758.5 697.5 c 128,-1,9
 833 628 833 628 833 514 c 0,10,11
 833 484 833 484 822 431 c 2,12,-1
 788 304 l 2,13,14
 755 181 755 181 645.5 90.5 c 128,-1,15
 536 0 536 0 402 0 c 2,16,-1
 108 0 l 2,17,18
 64 0 64 0 74 42 c 2,19,-1
 89 93 l 2,20,21
 99 127 99 127 134 127 c 2,22,-1
 402 127 l 2,23,24
 492 127 492 127 565.5 190.5 c 128,-1,25
 639 254 639 254 665 336 c 2,26,-1
 699 465 l 2,27,28
 705 494 705 494 705 518 c 0,29,30
 705 639 705 639 574 639 c 2,31,-1
 278 639 l 2,32,33
 234 639 234 639 244 682 c 2,34,-1
 395 1245 l 2,35,36
 405 1279 405 1279 440 1279 c 2,37,-1
 1003 1279 l 2,38,39
 1048 1279 1048 1279 1035 1236 c 2,40,-1
 1022 1185 l 2,41,42
 1012 1151 1012 1151 977 1151 c 2,0,-1
EndSplineSet
EndChar

StartChar: six
Encoding: 54 54 22
Width: 896
VWidth: 2175
GlyphClass: 2
Flags: W
HStem: 0 127<300.833 539.299> 639 128<456.252 683.843>
VStem: 140 128<158.973 347.349> 705 128<418.766 618.141>
DStem2: 62.9691 0 194.543 0 0.258819 0.965926<282.928 626.054> 574.404 0 706.543 0 0.258819 0.965926<202.152 539.857>
LayerCount: 2
Fore
SplineSet
886 1166 m 0,0,1
 716 1070 716 1070 618 973 c 0,2,3
 503 858 503 858 455 771 c 0,4,5
 448 757 448 757 456 752.5 c 128,-1,6
 464 748 464 748 480 754 c 0,7,8
 518 767 518 767 565 767 c 0,9,10
 707 767 707 767 784 669 c 0,11,12
 833 607 833 607 833 514 c 0,13,14
 833 478 833 478 822 431 c 2,15,-1
 788 304 l 2,16,17
 751 171 751 171 639 86 c 0,18,19
 526 0 526 0 402 0 c 0,20,21
 290 0 290 0 215 72 c 128,-1,22
 140 144 140 144 140 253 c 0,23,24
 140 293 140 293 153 336 c 2,25,-1
 187 465 l 2,26,27
 282 817 282 817 514 1049 c 0,28,29
 648 1183 648 1183 826 1279 c 0,30,31
 858 1297 858 1297 873 1266 c 2,32,-1
 901 1213 l 2,33,34
 914 1184 914 1184 886 1166 c 0,0,1
310 431 m 1,35,-1
 276 304 l 2,36,37
 268 268 268 268 268 237 c 0,38,39
 268 189 268 189 307 158 c 128,-1,40
 346 127 346 127 403 127 c 0,41,42
 490 127 490 127 567.5 192 c 128,-1,43
 645 257 645 257 665 336 c 2,44,-1
 699 465 l 2,45,46
 705 490 705 490 705 525 c 0,47,48
 705 640 705 640 574 639 c 0,49,50
 485 639 485 639 407 575 c 128,-1,51
 329 511 329 511 310 431 c 1,35,-1
EndSplineSet
EndChar

StartChar: seven
Encoding: 55 55 23
Width: 896
VWidth: 2175
GlyphClass: 2
Flags: W
HStem: 1151 128<490.219 853.797>
DStem2: 274 51 406 23 0.477902 0.878413<-11.7865 1228.66>
LayerCount: 2
Fore
SplineSet
348 1066 m 2,0,-1
 395 1245 l 2,1,2
 403 1279 403 1279 440 1279 c 2,3,-1
 1005 1279 l 2,4,5
 1050 1279 1050 1279 1037 1236 c 2,6,-1
 1009 1134 l 2,7,8
 1008 1132 1008 1132 1006.5 1128.5 c 128,-1,9
 1005 1125 1005 1125 1005 1124 c 2,10,-1
 406 23 l 2,11,12
 392 0 392 0 365 0 c 2,13,-1
 304 0 l 2,14,15
 280 0 280 0 271 17 c 128,-1,16
 262 34 262 34 274 51 c 2,17,-1
 863 1126 l 2,18,19
 878 1151 878 1151 848 1151 c 2,20,-1
 529 1151 l 2,21,22
 501 1151 501 1151 495 1126 c 2,23,-1
 478 1058 l 2,24,25
 466 1024 466 1024 433 1024 c 2,26,-1
 380 1024 l 2,27,28
 337 1024 337 1024 348 1066 c 2,0,-1
EndSplineSet
EndChar

StartChar: eight
Encoding: 56 56 24
Width: 896
VWidth: 2175
GlyphClass: 2
Flags: W
HStem: 0 127<279.61 558.312> 639 128<477.647 685.948> 1151 128<569.057 807.258>
VStem: 110 128<162.413 349.517> 312 128<798.718 1021.18> 737 128<321.411 603.185> 843 128<894.079 1119.63>
DStem2: 30.9691 0 162.543 0 0.258819 0.965926<292.285 619.433> 606.404 0 738.543 0 0.258819 0.965926<212.63 533.216>
LayerCount: 2
Fore
SplineSet
701 1151 m 3,0,1
 605 1151 605 1151 522.5 1067.5 c 128,-1,2
 440 984 440 984 440 894 c 0,3,4
 440 835 440 835 476.5 801 c 128,-1,5
 513 767 513 767 574 767 c 0,6,7
 678 767 678 767 760.5 849 c 128,-1,8
 843 931 843 931 843 1037 c 0,9,10
 843 1089 843 1089 801 1120 c 128,-1,11
 759 1151 759 1151 701 1151 c 3,0,1
854 431 m 1,12,-1
 820 304 l 2,13,14
 786 182 786 182 665 91 c 128,-1,15
 544 0 544 0 402 0 c 0,16,17
 276 0 276 0 193 70.5 c 128,-1,18
 110 141 110 141 110 261 c 0,19,20
 110 300 110 300 121 336 c 2,21,-1
 155 465 l 2,22,23
 174 536 174 536 227.5 601 c 128,-1,24
 281 666 281 666 353 707 c 0,25,26
 368 715 368 715 369.5 721.5 c 128,-1,27
 371 728 371 728 361 739 c 0,28,29
 312 798 312 798 312 894 c 0,30,31
 312 1038 312 1038 432.5 1158.5 c 128,-1,32
 553 1279 553 1279 710 1279 c 0,33,34
 812 1279 812 1279 891.5 1211.5 c 128,-1,35
 971 1144 971 1144 971 1045 c 0,36,37
 971 944 971 944 923.5 854 c 128,-1,38
 876 764 876 764 788 710 c 0,39,40
 774 700 774 700 786 688 c 2,41,-1
 809 665 l 1,42,43
 864 594 864 594 865 508 c 0,44,45
 865 477 865 477 854 431 c 1,12,-1
697 336 m 1,46,-1
 731 465 l 2,47,48
 737 487 737 487 737 518 c 0,49,50
 737 575 737 575 687.5 607 c 128,-1,51
 638 639 638 639 569 639 c 0,52,53
 470 639 470 639 385 576.5 c 128,-1,54
 300 514 300 514 278 431 c 2,55,-1
 244 304 l 2,56,57
 238 282 238 282 238 246 c 0,58,59
 238 191 238 191 287 159 c 128,-1,60
 336 127 336 127 404 127 c 0,61,62
 501 127 501 127 587.5 191 c 128,-1,63
 674 255 674 255 697 336 c 1,46,-1
EndSplineSet
EndChar

StartChar: nine
Encoding: 57 57 25
Width: 896
VWidth: 2175
GlyphClass: 2
Flags: W
HStem: 512 127<444.161 688.396> 1151 128<572.116 815.794>
VStem: 278 128<671.489 861.517> 843 128<926.163 1120.24>
DStem2: 60.5266 -2.5641 192.666 -2.5641 0.258819 0.965926<821.314 1154.81> 573.062 -2.5641 704.637 -2.5641 0.258819 0.965926<652.553 1078.78>
LayerCount: 2
Fore
SplineSet
673 512 m 2,0,-1
 537 512 l 2,1,2
 500 512 500 512 461 523 c 0,3,4
 278 582 278 582 278 765 c 0,5,6
 278 795 278 795 289 848 c 2,7,-1
 323 977 l 2,8,9
 357 1096 357 1096 466 1187.5 c 128,-1,10
 575 1279 575 1279 710 1279 c 0,11,12
 812 1279 812 1279 891.5 1211.5 c 128,-1,13
 971 1144 971 1144 971 1045 c 0,14,15
 971 984 971 984 958 943 c 2,16,-1
 873 622 l 2,17,18
 810 377 810 377 654 221 c 0,19,20
 517 84 517 84 272 0 c 0,21,22
 239 -10 239 -10 229 19 c 2,23,-1
 208 76 l 2,24,25
 197 104 197 104 229 117 c 0,26,27
 403 182 403 182 501 257 c 0,28,29
 619 349 619 349 688 487 c 0,30,31
 701 512 701 512 673 512 c 2,0,-1
752 665 m 1,32,-1
 835 975 l 2,33,34
 843 1009 843 1009 843 1043 c 0,35,36
 843 1090 843 1090 800 1120.5 c 128,-1,37
 757 1151 757 1151 703 1151 c 0,38,39
 620 1151 620 1151 544 1085.5 c 128,-1,40
 468 1020 468 1020 446 943 c 2,41,-1
 412 816 l 2,42,43
 406 791 406 791 406 754 c 0,44,45
 406 702 406 702 443 670.5 c 128,-1,46
 480 639 480 639 537 639 c 2,47,-1
 720 639 l 2,48,49
 742 640 742 640 752 665 c 1,32,-1
EndSplineSet
EndChar

StartChar: colon
Encoding: 58 58 26
Width: 384
VWidth: 2175
GlyphClass: 2
Flags: W
HStem: 0 127<86.4771 201.589> 512 127<223.953 340.691>
VStem: 212 126<512 594.742>
DStem2: 64.0807 0 192.224 0 0.258819 0.965926<21.2751 142.862 551.761 673.416>
LayerCount: 2
Fore
SplineSet
215 85 m 2,0,-1
 202 34 l 2,1,2
 189 0 189 0 157 0 c 2,3,-1
 108 0 l 2,4,5
 67 0 67 0 76 42 c 2,6,-1
 89 93 l 2,7,8
 99 127 99 127 134 127 c 2,9,-1
 183 127 l 2,10,11
 225 127 225 127 215 85 c 2,0,-1
353 597 m 2,12,-1
 338 546 l 2,13,14
 328 512 328 512 293 512 c 2,15,-1
 246 512 l 2,16,17
 202 512 202 512 212 554 c 2,18,-1
 227 605 l 2,19,20
 233 639 233 639 272 639 c 2,21,-1
 319 639 l 2,22,23
 366 639 366 639 353 597 c 2,12,-1
EndSplineSet
EndChar

StartChar: semicolon
Encoding: 59 59 27
Width: 384
VWidth: 2175
GlyphClass: 2
Flags: W
HStem: 512 127<287.953 404.618>
VStem: 276 126<512 597>
DStem2: 11 -206 140 -225 0.406138 0.913812<-17.6163 384.099>
LayerCount: 2
Fore
SplineSet
276 81 m 2,0,-1
 140 -225 l 2,1,2
 127 -255 127 -255 98 -255 c 2,3,-1
 42 -255 l 2,4,5
 -12 -255 -12 -255 11 -206 c 2,6,-1
 144 100 l 2,7,8
 157 128 157 128 187 127 c 2,9,-1
 244 127 l 2,10,11
 295 125 295 125 276 81 c 2,0,-1
416 597 m 2,12,-1
 402 546 l 2,13,14
 392 512 392 512 357 512 c 2,15,-1
 310 512 l 2,16,17
 266 512 266 512 276 554 c 2,18,-1
 291 605 l 2,19,20
 297 639 297 639 336 639 c 2,21,-1
 382 639 l 2,22,23
 429 639 429 639 416 597 c 2,12,-1
EndSplineSet
EndChar

StartChar: less
Encoding: 60 60 28
Width: 896
VWidth: 2175
GlyphClass: 2
Flags: W
HStem: 153 595
DStem2: 221 482 472 455 0.914934 0.403603<215.753 692.285> 746 263 682 153 0.864789 -0.502136<-325.233 32.7103>
LayerCount: 2
Fore
SplineSet
875 631 m 1,0,-1
 472 455 l 2,1,2
 442 441 442 441 470 423 c 2,3,-1
 746 263 l 2,4,5
 775 247 775 247 758 219 c 2,6,-1
 729 166 l 2,7,8
 713 134 713 134 682 153 c 2,9,-1
 217 423 l 2,10,11
 200 431 200 431 200 450 c 0,12,13
 200 471 200 471 221 482 c 2,14,-1
 824 748 l 2,15,16
 853 761 853 761 869 731 c 2,17,-1
 892 676 l 2,18,19
 905 647 905 647 875 631 c 1,0,-1
EndSplineSet
EndChar

StartChar: equal
Encoding: 61 61 29
Width: 896
VWidth: 2175
GlyphClass: 2
Flags: W
HStem: 255 130<155.258 783.725> 576 127<239.939 869.691>
LayerCount: 2
Fore
SplineSet
202 385 m 2,0,-1
 763 385 l 2,1,2
 808 385 808 385 795 342 c 2,3,-1
 782 291 l 2,4,5
 769 255 769 255 737 255 c 2,6,-1
 176 255 l 2,7,8
 135 255 135 255 144 300 c 2,9,-1
 157 348 l 2,10,11
 167 385 167 385 202 385 c 2,0,-1
289 703 m 2,12,-1
 848 703 l 2,13,14
 895 703 895 703 882 661 c 2,15,-1
 867 610 l 2,16,17
 857 576 857 576 822 576 c 2,18,-1
 263 576 l 2,19,20
 219 576 219 576 229 618 c 2,21,-1
 242 669 l 2,22,23
 252 703 252 703 289 703 c 2,12,-1
EndSplineSet
EndChar

StartChar: greater
Encoding: 62 62 30
Width: 896
VWidth: 2175
GlyphClass: 2
Flags: W
HStem: 147 594
DStem2: 164 263 215 147 0.915494 0.402332<-33.3021 443.068> 357 741 293 631 0.867208 -0.497945<-34.8545 318.795>
LayerCount: 2
Fore
SplineSet
357 741 m 2,0,-1
 822 474 l 2,1,2
 839 466 839 466 839 446 c 0,3,4
 839 423 839 423 818 412 c 2,5,-1
 215 147 l 2,6,7
 184 134 184 134 170 164 c 2,8,-1
 147 219 l 2,9,10
 133 251 133 251 164 263 c 2,11,-1
 567 442 l 2,12,13
 598 456 598 456 569 472 c 2,14,-1
 293 631 l 2,15,16
 263 647 263 647 280 678 c 2,17,-1
 310 729 l 2,18,19
 326 758 326 758 357 741 c 2,0,-1
EndSplineSet
EndChar

StartChar: question
Encoding: 63 63 31
Width: 896
VWidth: 2175
GlyphClass: 2
Flags: W
HStem: 0 127<342.953 459.691> 1151 128<541.177 807.93>
VStem: 331 126<3.4e-007 82.7424> 843 128<904.506 1118.65>
DStem2: 321.081 0 449.224 0 0.258819 0.965926<21.4897 143.145 353.863 680.436> 727 824 803 720 0.801883 0.597481<-306.034 158.555>
LayerCount: 2
Fore
SplineSet
591 527 m 1,0,-1
 546 355 l 2,1,2
 536 321 536 321 499 321 c 2,3,-1
 448 321 l 2,4,5
 404 321 404 321 414 363 c 2,6,-1
 467 559 l 2,7,8
 489 648 489 648 574 710 c 2,9,-1
 727 824 l 2,10,11
 768 857 768 857 805.5 914.5 c 128,-1,12
 843 972 843 972 843 1018 c 0,13,14
 843 1080 843 1080 809 1115.5 c 128,-1,15
 775 1151 775 1151 710 1151 c 2,16,-1
 678 1151 l 2,17,18
 624 1151 624 1151 574.5 1127 c 128,-1,19
 525 1103 525 1103 493 1071 c 0,20,21
 469 1047 469 1047 444 1064 c 2,22,-1
 397 1103 l 2,23,24
 384 1113 384 1113 385 1130 c 0,25,26
 385 1143 385 1143 393 1151 c 0,27,28
 520 1278 520 1278 678 1279 c 2,29,-1
 710 1279 l 2,30,31
 812 1279 812 1279 891.5 1211.5 c 128,-1,32
 971 1144 971 1144 971 1045 c 0,33,34
 971 844 971 844 803 720 c 2,35,-1
 650 608 l 2,36,37
 605 574 605 574 591 527 c 1,0,-1
472 85 m 2,38,-1
 457 34 l 2,39,40
 447 0 447 0 412 0 c 2,41,-1
 365 0 l 2,42,43
 321 0 321 0 331 42 c 2,44,-1
 346 93 l 2,45,46
 356 127 356 127 391 127 c 2,47,-1
 438 127 l 2,48,49
 485 127 485 127 472 85 c 2,38,-1
EndSplineSet
EndChar

StartChar: at
Encoding: 64 64 32
Width: 1790
VWidth: 2175
GlyphClass: 2
Flags: W
HStem: -253 128<582.764 1107.17> 64 127<638.89 913.492 1125.4 1260.36> 831 127<791.839 1132.09> 1151 128<873.062 1309.8>
VStem: 198 127<99.827 568.254> 1479 129<529.437 975.29>
DStem2: 336.821 -253 467.288 -253 0.258819 0.965926<539.705 1123.15> 847.438 -253 980.752 -253 0.258819 0.965926<533.399 1110.26>
LayerCount: 2
Fore
SplineSet
1160 191 m 3,0,1
 1236 191 1236 191 1312 291 c 128,-1,2
 1388 391 1388 391 1433.5 526 c 128,-1,3
 1479 661 1479 661 1479 769 c 0,4,5
 1479 944 1479 944 1384.5 1047.5 c 128,-1,6
 1290 1151 1290 1151 1115 1151 c 0,7,8
 956 1151 956 1151 808.5 1079 c 128,-1,9
 661 1007 661 1007 555.5 889.5 c 128,-1,10
 450 772 450 772 387.5 617 c 128,-1,11
 325 462 325 462 325 302 c 0,12,13
 325 93 325 93 467 -16 c 128,-1,14
 609 -125 609 -125 841 -125 c 0,15,16
 982 -125 982 -125 1130 -73 c 128,-1,17
 1278 -21 1278 -21 1390 52 c 128,-1,18
 1502 125 1502 125 1589 212 c 0,19,20
 1612 235 1612 235 1636 212 c 2,21,-1
 1678 170 l 2,22,23
 1702 146 1702 146 1678 121 c 0,24,25
 1607 49 1607 49 1517.5 -16 c 128,-1,26
 1428 -81 1428 -81 1320.5 -135 c 128,-1,27
 1213 -189 1213 -189 1088 -221 c 128,-1,28
 963 -253 963 -253 841 -253 c 0,29,30
 548 -253 548 -253 373 -102 c 128,-1,31
 198 49 198 49 198 327 c 0,32,33
 198 474 198 474 246 617.5 c 128,-1,34
 294 761 294 761 381 878.5 c 128,-1,35
 468 996 468 996 581.5 1087 c 128,-1,36
 695 1178 695 1178 833.5 1228.5 c 128,-1,37
 972 1279 972 1279 1115 1279 c 0,38,39
 1346 1279 1346 1279 1477 1138 c 128,-1,40
 1608 997 1608 997 1608 767 c 0,41,42
 1608 695 1608 695 1588.5 603.5 c 128,-1,43
 1569 512 1569 512 1529.5 417.5 c 128,-1,44
 1490 323 1490 323 1438.5 244 c 128,-1,45
 1387 165 1387 165 1315.5 114.5 c 128,-1,46
 1244 64 1244 64 1166 64 c 0,47,48
 1077 64 1077 64 1028 138 c 0,49,50
 1021 150 1021 150 994 132 c 0,51,52
 991 131 991 131 990 130 c 0,53,54
 887 64 887 64 761 64 c 0,55,56
 700 64 700 64 645.5 83.5 c 128,-1,57
 591 103 591 103 551 137 c 128,-1,58
 511 171 511 171 494.5 223.5 c 128,-1,59
 478 276 478 276 493 336 c 2,60,-1
 597 718 l 2,61,62
 624 813 624 813 710 885.5 c 128,-1,63
 796 958 796 958 901 958 c 2,64,-1
 1260 958 l 2,65,66
 1277 958 1277 958 1287.5 946 c 128,-1,67
 1298 934 1298 934 1294 916 c 2,68,-1
 1130 304 l 2,69,70
 1117 256 1117 256 1126.5 223.5 c 128,-1,71
 1136 191 1136 191 1160 191 c 3,0,1
720 686 m 2,72,-1
 616 302 l 2,73,74
 601 248 601 248 647.5 219.5 c 128,-1,75
 694 191 694 191 761 191 c 0,76,77
 839 191 839 191 914 235 c 128,-1,78
 989 279 989 279 1005 336 c 2,79,-1
 1132 809 l 2,80,81
 1135 830 1135 830 1115 831 c 2,82,-1
 901 831 l 2,83,84
 843 831 843 831 788.5 785 c 128,-1,85
 734 739 734 739 720 686 c 2,72,-1
EndSplineSet
EndChar

StartChar: A
Encoding: 65 65 33
Width: 1024
VWidth: 2175
GlyphClass: 2
Flags: W
HStem: 321 127<410 755.109>
VStem: 737 119<861.202 1027.96> 773 128<0 321>
DStem2: 15 51 144 23 0.495828 0.86842<-12.1691 406.34 551.661 1202.11>
LayerCount: 2
Fore
SplineSet
744 1279 m 2,0,-1
 822 1279 l 2,1,2
 856 1279 856 1279 856 1247 c 2,3,-1
 901 36 l 2,4,5
 901 0 901 0 867 0 c 2,6,-1
 807 0 l 2,7,8
 773 0 773 0 773 32 c 2,9,-1
 763 304 l 2,10,11
 763 321 763 321 746 321 c 2,12,-1
 336 321 l 2,13,14
 317 321 317 321 306 304 c 2,15,-1
 144 23 l 2,16,17
 127 0 127 0 104 0 c 2,18,-1
 42 0 l 2,19,20
 26 0 26 0 15 16.5 c 128,-1,21
 4 33 4 33 15 51 c 2,22,-1
 703 1256 l 2,23,24
 717 1279 717 1279 744 1279 c 2,0,-1
756 465 m 2,25,-1
 737 1009 l 2,26,27
 737 1027 737 1027 728.5 1028 c 128,-1,28
 720 1029 720 1029 714 1016 c 2,29,-1
 399 467 l 2,30,31
 389 448 389 448 410 448 c 2,32,-1
 739 448 l 2,33,34
 756 448 756 448 756 465 c 2,25,-1
EndSplineSet
EndChar

StartChar: B
Encoding: 66 66 34
Width: 1024
VWidth: 2175
GlyphClass: 2
Flags: W
HStem: 0 127<239.859 624.258> 639 128<411.688 763.338> 1151 128<492.734 865.231>
VStem: 818 127<321.976 588.076> 907 128<899.979 1120.5>
DStem2: 62.7461 0 194.076 0 0.258819 0.965926<177.454 707.159 839.298 1237.39>
LayerCount: 2
Fore
SplineSet
440 1279 m 2,0,-1
 773 1279 l 2,1,2
 882 1279 882 1279 958.5 1209 c 128,-1,3
 1035 1139 1035 1139 1035 1026 c 7,4,5
 1035 928 1035 928 987 845 c 128,-1,6
 939 762 939 762 852 710 c 0,7,8
 837 703 837 703 852 690 c 0,9,10
 945 618 945 618 945 467 c 7,11,12
 945 383 945 383 905.5 298.5 c 128,-1,13
 866 214 866 214 801.5 148.5 c 128,-1,14
 737 83 737 83 647.5 41.5 c 128,-1,15
 558 0 558 0 465 0 c 2,16,-1
 106 0 l 2,17,18
 88 0 88 0 79 11 c 128,-1,19
 70 22 70 22 74 42 c 2,20,-1
 395 1245 l 2,21,22
 405 1279 405 1279 440 1279 c 2,0,-1
637 639 m 2,23,-1
 391 639 l 2,24,25
 366 639 366 639 359 614 c 2,26,-1
 234 149 l 2,27,28
 228 128 228 128 251 127 c 2,29,-1
 465 127 l 2,30,31
 601 127 601 127 709.5 239 c 128,-1,32
 818 351 818 351 818 480 c 7,33,34
 818 552 818 552 765 595.5 c 128,-1,35
 712 639 712 639 637 639 c 2,23,-1
773 1151 m 2,36,-1
 529 1151 l 2,37,38
 504 1151 504 1151 497 1126 c 2,39,-1
 406 788 l 2,40,41
 400 767 400 767 423 767 c 2,42,-1
 637 767 l 2,43,44
 740 767 740 767 823.5 852.5 c 128,-1,45
 907 938 907 938 907 1037 c 7,46,47
 907 1088 907 1088 866.5 1119.5 c 128,-1,48
 826 1151 826 1151 773 1151 c 2,36,-1
EndSplineSet
EndChar

StartChar: C
Encoding: 67 67 35
Width: 894
VWidth: 2175
GlyphClass: 2
Flags: W
HStem: 0 127<337.778 713.589> 1151 128<613.515 1021.59>
VStem: 155 130<178.906 503.5>
DStem2: 63.0883 0 194.395 0 0.258819 0.965926<350.26 1109.67>
LayerCount: 2
Fore
SplineSet
977 1151 m 2,0,-1
 773 1151 l 2,1,2
 657 1151 657 1151 558.5 1068 c 128,-1,3
 460 985 460 985 429 880 c 2,4,-1
 293 368 l 2,5,6
 285 339 285 339 285 302 c 0,7,8
 285 220 285 220 333.5 173.5 c 128,-1,9
 382 127 382 127 465 127 c 2,10,-1
 695 127 l 2,11,12
 710 127 710 127 720.5 114 c 128,-1,13
 731 101 731 101 727 85 c 2,14,-1
 714 34 l 2,15,16
 701 0 701 0 669 0 c 2,17,-1
 465 0 l 2,18,19
 329 0 329 0 242 83.5 c 128,-1,20
 155 167 155 167 155 302 c 0,21,22
 155 355 155 355 170 399 c 2,23,-1
 306 911 l 2,24,25
 344 1057 344 1057 477.5 1168 c 128,-1,26
 611 1279 611 1279 773 1279 c 2,27,-1
 1003 1279 l 2,28,29
 1020 1279 1020 1279 1029.5 1267 c 128,-1,30
 1039 1255 1039 1255 1035 1236 c 2,31,-1
 1022 1185 l 2,32,33
 1009 1151 1009 1151 977 1151 c 2,0,-1
EndSplineSet
EndChar

StartChar: D
Encoding: 68 68 36
Width: 1024
VWidth: 2175
GlyphClass: 2
Flags: W
HStem: 0 127<238.109 623.72> 1151 128<492.891 896.125>
VStem: 956 127<784 1095>
DStem2: 62.7461 0 194.076 0 0.258819 0.965926<177.454 1237.39> 702.088 0 834.395 0 0.258819 0.965926<249.221 1024.61>
LayerCount: 2
Fore
SplineSet
1071 880 m 2,0,-1
 933 368 l 2,1,2
 893 224 893 224 759.5 112 c 128,-1,3
 626 0 626 0 465 0 c 2,4,-1
 106 0 l 2,5,6
 89 0 89 0 79.5 12 c 128,-1,7
 70 24 70 24 74 42 c 2,8,-1
 395 1245 l 2,9,10
 405 1279 405 1279 440 1279 c 2,11,-1
 773 1279 l 2,12,13
 908 1279 908 1279 995.5 1194.5 c 128,-1,14
 1083 1110 1083 1110 1083 979 c 0,15,16
 1084 931 1084 931 1071 880 c 2,0,-1
251 127 m 2,17,-1
 465 127 l 2,18,19
 580 127 580 127 680.5 210.5 c 128,-1,20
 781 294 781 294 809 399 c 2,21,-1
 945 911 l 2,22,23
 956 953 956 953 956 994 c 0,24,25
 956 1061 956 1061 899.5 1106 c 128,-1,26
 843 1151 843 1151 773 1151 c 2,27,-1
 529 1151 l 2,28,29
 504 1151 504 1151 497 1126 c 2,30,-1
 234 149 l 2,31,32
 228 127 228 127 251 127 c 2,17,-1
EndSplineSet
EndChar

StartChar: E
Encoding: 69 69 37
Width: 896
VWidth: 2175
GlyphClass: 2
Flags: W
HStem: 0 127<239.859 713.589> 639 128<411.688 758.344> 1151 128<492.734 1023.86>
DStem2: 62.7461 0 194.076 0 0.258819 0.965926<176.783 707.378 839.185 1236.08>
LayerCount: 2
Fore
SplineSet
669 0 m 2,0,-1
 106 0 l 2,1,2
 89 0 89 0 79.5 12 c 128,-1,3
 70 24 70 24 74 42 c 2,4,-1
 395 1245 l 2,5,6
 405 1279 405 1279 440 1279 c 2,7,-1
 1003 1279 l 2,8,9
 1021 1279 1021 1279 1030 1267.5 c 128,-1,10
 1039 1256 1039 1256 1035 1236 c 2,11,-1
 1022 1188 l 2,12,13
 1009 1152 1009 1152 977 1151 c 2,14,-1
 529 1151 l 2,15,16
 504 1151 504 1151 497 1126 c 2,17,-1
 406 788 l 2,18,19
 400 767 400 767 423 767 c 2,20,-1
 737 767 l 2,21,22
 754 767 754 767 764.5 754 c 128,-1,23
 775 741 775 741 771 724 c 2,24,-1
 756 676 l 2,25,26
 746 640 746 640 712 639 c 2,27,-1
 391 639 l 2,28,29
 366 639 366 639 359 614 c 2,30,-1
 234 149 l 2,31,32
 228 128 228 128 251 127 c 2,33,-1
 695 127 l 2,34,35
 710 127 710 127 720 114.5 c 128,-1,36
 730 102 730 102 727 85 c 2,37,-1
 714 34 l 2,38,39
 701 0 701 0 669 0 c 2,0,-1
EndSplineSet
EndChar

StartChar: F
Encoding: 70 70 38
Width: 896
VWidth: 2175
GlyphClass: 2
Flags: W
HStem: 639 128<411.688 886.344> 1151 128<492.734 1023.86>
DStem2: 60.7461 0 194.479 0 0.258819 0.965926<22.6646 708.138 839.986 1236.6>
LayerCount: 2
Fore
SplineSet
423 767 m 2,0,-1
 865 767 l 2,1,2
 882 767 882 767 892.5 755 c 128,-1,3
 903 743 903 743 899 724 c 2,4,-1
 884 676 l 2,5,6
 874 640 874 640 839 639 c 2,7,-1
 391 639 l 2,8,9
 366 639 366 639 359 614 c 2,10,-1
 204 34 l 2,11,12
 191 0 191 0 157 0 c 2,13,-1
 106 0 l 2,14,15
 89 0 89 0 78.5 12 c 128,-1,16
 68 24 68 24 72 42 c 2,17,-1
 395 1245 l 2,18,19
 405 1279 405 1279 440 1279 c 2,20,-1
 1003 1279 l 2,21,22
 1021 1279 1021 1279 1030 1267.5 c 128,-1,23
 1039 1256 1039 1256 1035 1236 c 2,24,-1
 1022 1188 l 2,25,26
 1012 1152 1012 1152 977 1151 c 2,27,-1
 529 1151 l 2,28,29
 504 1151 504 1151 497 1126 c 2,30,-1
 406 788 l 2,31,32
 400 767 400 767 423 767 c 2,0,-1
EndSplineSet
EndChar

StartChar: G
Encoding: 71 71 39
Width: 1024
VWidth: 2175
GlyphClass: 2
Flags: W
HStem: 0 127<338.116 747.844> 639 128<769.953 867.089> 1151 128<614.78 1152.03>
VStem: 155 130<178.62 503.5>
DStem2: 63.0883 0 194.395 0 0.258819 0.965926<336.22 1108.5> 701.407 0 834.005 0 0.258819 0.965926<119.943 649.651>
LayerCount: 2
Fore
SplineSet
818 767 m 2,0,-1
 996 767 l 2,1,2
 1011 767 1011 767 1021.5 753.5 c 128,-1,3
 1032 740 1032 740 1028 724 c 2,4,-1
 843 34 l 2,5,6
 830 0 830 0 799 0 c 2,7,-1
 465 0 l 2,8,9
 328 0 328 0 241.5 82.5 c 128,-1,10
 155 165 155 165 155 302 c 0,11,12
 155 355 155 355 170 399 c 2,13,-1
 306 911 l 2,14,15
 344 1055 344 1055 478.5 1167 c 128,-1,16
 613 1279 613 1279 773 1279 c 2,17,-1
 1130 1279 l 2,18,19
 1146 1279 1146 1279 1158.5 1265.5 c 128,-1,20
 1171 1252 1171 1252 1164 1236 c 2,21,-1
 1149 1185 l 2,22,23
 1139 1151 1139 1151 1105 1151 c 2,24,-1
 773 1151 l 2,25,26
 657 1151 657 1151 558.5 1068 c 128,-1,27
 460 985 460 985 429 880 c 2,28,-1
 293 368 l 2,29,30
 285 339 285 339 285 287 c 0,31,32
 285 216 285 216 336.5 171.5 c 128,-1,33
 388 127 388 127 465 127 c 2,34,-1
 710 127 l 2,35,36
 734 127 734 127 744 153 c 2,37,-1
 867 618 l 2,38,39
 870 639 870 639 852 639 c 2,40,-1
 792 639 l 2,41,42
 777 639 777 639 765.5 653.5 c 128,-1,43
 754 668 754 668 758 682 c 2,44,-1
 773 733 l 2,45,46
 783 767 783 767 818 767 c 2,0,-1
EndSplineSet
EndChar

StartChar: H
Encoding: 72 72 40
Width: 1024
VWidth: 2175
GlyphClass: 2
Flags: W
HStem: 639 128<411.578 862.219>
DStem2: 62.7461 0 194.479 0 0.258819 0.965926<22.3519 705.914 839.674 1335.83> 701.407 0 833.89 0 0.258819 0.965926<22.3699 650.61 782.037 1335.99>
LayerCount: 2
Fore
SplineSet
525 1236 m 2,0,-1
 406 788 l 2,1,2
 400 767 400 767 423 767 c 2,3,-1
 882 767 l 2,4,5
 911 767 911 767 914 792 c 2,6,-1
 1035 1245 l 2,7,8
 1045 1279 1045 1279 1081 1279 c 2,9,-1
 1132 1279 l 2,10,11
 1149 1279 1149 1279 1160 1267 c 128,-1,12
 1171 1255 1171 1255 1166 1236 c 2,13,-1
 843 34 l 2,14,15
 833 0 833 0 799 0 c 2,16,-1
 746 0 l 2,17,18
 731 0 731 0 721 12.5 c 128,-1,19
 711 25 711 25 714 42 c 2,20,-1
 867 618 l 2,21,22
 873 639 873 639 852 639 c 2,23,-1
 391 639 l 2,24,25
 366 639 366 639 359 614 c 2,26,-1
 204 34 l 2,27,28
 194 0 194 0 159 0 c 2,29,-1
 106 0 l 2,30,31
 88 0 88 0 79 11 c 128,-1,32
 70 22 70 22 74 42 c 2,33,-1
 395 1245 l 2,34,35
 405 1279 405 1279 440 1279 c 2,36,-1
 493 1279 l 2,37,38
 510 1279 510 1279 519.5 1266.5 c 128,-1,39
 529 1254 529 1254 525 1236 c 2,0,-1
EndSplineSet
EndChar

StartChar: I
Encoding: 73 73 41
Width: 384
VWidth: 2175
GlyphClass: 2
Flags: W
VStem: 74 451
DStem2: 62.7461 0 194.89 0 0.258819 0.965926<22.3322 1336.06>
LayerCount: 2
Fore
SplineSet
440 1279 m 2,0,-1
 493 1279 l 2,1,2
 510 1279 510 1279 519.5 1267 c 128,-1,3
 529 1255 529 1255 525 1236 c 2,4,-1
 204 34 l 2,5,6
 191 0 191 0 157 0 c 2,7,-1
 106 0 l 2,8,9
 89 0 89 0 79.5 12 c 128,-1,10
 70 24 70 24 74 42 c 2,11,-1
 395 1245 l 2,12,13
 405 1279 405 1279 440 1279 c 2,0,-1
EndSplineSet
EndChar

StartChar: J
Encoding: 74 74 42
Width: 703
VWidth: 2175
GlyphClass: 2
Flags: W
HStem: 0 127<22.71 301.088>
DStem2: 382.088 0 513.395 0 0.258819 0.965926<249.805 1335.95>
LayerCount: 2
Fore
SplineSet
70 127 m 2,0,-1
 144 127 l 2,1,2
 258 127 258 127 360 211.5 c 128,-1,3
 462 296 462 296 489 399 c 2,4,-1
 716 1245 l 2,5,6
 722 1279 722 1279 761 1279 c 2,7,-1
 814 1279 l 2,8,9
 829 1279 829 1279 839.5 1265.5 c 128,-1,10
 850 1252 850 1252 846 1236 c 2,11,-1
 612 368 l 2,12,13
 574 225 574 225 438 112.5 c 128,-1,14
 302 0 302 0 144 0 c 2,15,-1
 45 0 l 2,16,17
 28 0 28 0 18 12 c 128,-1,18
 8 24 8 24 13 42 c 2,19,-1
 25 93 l 2,20,21
 35 127 35 127 70 127 c 2,0,-1
EndSplineSet
EndChar

StartChar: K
Encoding: 75 75 43
Width: 1024
VWidth: 2175
GlyphClass: 2
Flags: W
DStem2: 63.4033 0 196.966 0 0.258819 0.965926<23.0744 601.867 802.285 1335.98> 419 741 620 754 0.729101 0.684406<116.943 833.593> 612 720 508 625 0.311155 -0.950359<45.5328 730.086>
LayerCount: 2
Fore
SplineSet
442 1279 m 2,0,-1
 495 1279 l 2,1,2
 513 1279 513 1279 522 1267.5 c 128,-1,3
 531 1256 531 1256 527 1236 c 2,4,-1
 399 754 l 2,5,6
 397 744 397 744 403 739.5 c 128,-1,7
 409 735 409 735 419 741 c 2,8,-1
 982 1266 l 2,9,10
 995 1279 995 1279 1013 1279 c 2,11,-1
 1094 1279 l 2,12,13
 1130 1279 1130 1279 1130 1249 c 0,14,15
 1130 1234 1130 1234 1117 1222 c 2,16,-1
 620 754 l 2,17,18
 605 742 605 742 612 720 c 2,19,-1
 833 45 l 2,20,21
 849 0 849 0 799 0 c 2,22,-1
 737 0 l 2,23,24
 712 0 712 0 705 23 c 2,25,-1
 508 625 l 1,26,27
 498 640 498 640 487 631 c 2,28,-1
 334 487 l 2,29,30
 326 479 326 479 321 465 c 2,31,-1
 206 34 l 2,32,33
 193 0 193 0 161 0 c 2,34,-1
 108 0 l 2,35,36
 67 0 67 0 76 42 c 2,37,-1
 397 1245 l 2,38,39
 407 1279 407 1279 442 1279 c 2,0,-1
EndSplineSet
EndChar

StartChar: L
Encoding: 76 76 44
Width: 832
VWidth: 2175
GlyphClass: 2
Flags: W
HStem: 0 127<238.547 713.589>
VStem: 74 653
DStem2: 62.7461 0 194.076 0 0.258819 0.965926<176.783 1336.05>
LayerCount: 2
Fore
SplineSet
442 1279 m 2,0,-1
 493 1279 l 2,1,2
 510 1279 510 1279 519.5 1267 c 128,-1,3
 529 1255 529 1255 525 1236 c 2,4,-1
 234 149 l 2,5,6
 228 128 228 128 251 127 c 2,7,-1
 695 127 l 2,8,9
 712 127 712 127 721.5 115 c 128,-1,10
 731 103 731 103 727 85 c 2,11,-1
 714 34 l 2,12,13
 701 0 701 0 669 0 c 2,14,-1
 106 0 l 2,15,16
 65 0 65 0 74 42 c 2,17,-1
 395 1245 l 2,18,19
 405 1279 405 1279 442 1279 c 2,0,-1
EndSplineSet
EndChar

StartChar: M
Encoding: 77 77 45
Width: 1151
VWidth: 2175
GlyphClass: 2
Flags: W
DStem2: 62.7461 0 194.89 0 0.258819 0.965926<22.3519 1057.82> 508 1249 480 977 0.371733 -0.92834<229.092 519.684> 724 775 712 576 0.682797 0.730608<-16.5715 367.087> 829.932 0 962.815 0 0.258819 0.965926<22.5067 980.853>
LayerCount: 2
Fore
SplineSet
1215 1279 m 2,0,-1
 1260 1279 l 2,1,2
 1277 1279 1277 1279 1287.5 1267 c 128,-1,3
 1298 1255 1298 1255 1294 1236 c 2,4,-1
 971 34 l 2,5,6
 961 0 961 0 926 0 c 2,7,-1
 873 0 l 2,8,9
 856 0 856 0 846.5 12 c 128,-1,10
 837 24 837 24 841 42 c 2,11,-1
 1081 937 l 2,12,13
 1084 945 1084 945 1074.5 950 c 128,-1,14
 1065 955 1065 955 1058 948 c 2,15,-1
 712 576 l 2,16,17
 689 555 689 555 667.5 561 c 128,-1,18
 646 567 646 567 635 591 c 2,19,-1
 480 977 l 2,20,21
 477 987 477 987 468.5 986.5 c 128,-1,22
 460 986 460 986 457 977 c 2,23,-1
 204 34 l 2,24,25
 191 0 191 0 159 0 c 2,26,-1
 106 0 l 2,27,28
 88 0 88 0 79 11 c 128,-1,29
 70 22 70 22 74 42 c 2,30,-1
 395 1245 l 2,31,32
 405 1279 405 1279 440 1279 c 2,33,-1
 465 1279 l 2,34,35
 498 1279 498 1279 508 1249 c 2,36,-1
 695 782 l 2,37,38
 698 771 698 771 706.5 768.5 c 128,-1,39
 715 766 715 766 724 775 c 2,40,-1
 1181 1264 l 2,41,42
 1190 1279 1190 1279 1215 1279 c 2,0,-1
EndSplineSet
EndChar

StartChar: N
Encoding: 78 78 46
Width: 1024
VWidth: 2175
GlyphClass: 2
Flags: W
DStem2: 62.7461 0 194.89 0 0.258819 0.965926<22.3519 1047.86> 544 1243 478 967 0.226998 -0.973895<241.313 966.508> 702.4 0 833.89 0 0.258819 0.965926<312.13 1336.09>
LayerCount: 2
Fore
SplineSet
440 1279 m 2,0,-1
 499 1279 l 2,1,2
 534 1279 534 1279 544 1243 c 2,3,-1
 761 312 l 2,4,5
 763 304 763 304 773.5 304 c 128,-1,6
 784 304 784 304 786 312 c 2,7,-1
 1035 1245 l 2,8,9
 1045 1279 1045 1279 1081 1279 c 2,10,-1
 1132 1279 l 2,11,12
 1149 1279 1149 1279 1160 1267 c 128,-1,13
 1171 1255 1171 1255 1166 1236 c 2,14,-1
 843 34 l 2,15,16
 830 0 830 0 799 0 c 2,17,-1
 739 0 l 2,18,19
 701 0 701 0 695 36 c 2,20,-1
 478 967 l 2,21,22
 476 977 476 977 465.5 977 c 128,-1,23
 455 977 455 977 453 967 c 2,24,-1
 204 34 l 2,25,26
 191 0 191 0 159 0 c 2,27,-1
 106 0 l 2,28,29
 88 0 88 0 79 11 c 128,-1,30
 70 22 70 22 74 42 c 2,31,-1
 395 1245 l 2,32,33
 405 1279 405 1279 440 1279 c 2,0,-1
EndSplineSet
EndChar

StartChar: O
Encoding: 79 79 47
Width: 1024
VWidth: 2175
GlyphClass: 2
Flags: W
HStem: 0 127<338.177 623.94> 1151 128<613.798 898.844>
VStem: 155 128<182.068 495> 956 127<784 1096.21>
DStem2: 63.0883 0 194.395 0 0.258819 0.965926<317.097 1107.71> 702.088 0 834.395 0 0.258819 0.965926<249.221 1024.61>
LayerCount: 2
Fore
SplineSet
429 880 m 2,0,-1
 293 368 l 2,1,2
 282 322 282 322 283 285 c 0,3,4
 283 215 283 215 337.5 171 c 128,-1,5
 392 127 392 127 467 127 c 3,6,7
 581 127 581 127 682 211.5 c 128,-1,8
 783 296 783 296 809 399 c 2,9,-1
 945 911 l 2,10,11
 956 953 956 953 956 994 c 3,12,13
 956 1064 956 1064 899 1107.5 c 128,-1,14
 842 1151 842 1151 765 1151 c 3,15,16
 655 1151 655 1151 556.5 1066.5 c 128,-1,17
 458 982 458 982 429 880 c 2,0,-1
1071 880 m 2,18,-1
 933 368 l 2,19,20
 893 224 893 224 759.5 112 c 128,-1,21
 626 0 626 0 465 0 c 3,22,23
 328 0 328 0 241.5 82.5 c 128,-1,24
 155 165 155 165 155 302 c 3,25,26
 155 355 155 355 170 399 c 2,27,-1
 306 911 l 2,28,29
 344 1055 344 1055 478.5 1167 c 128,-1,30
 613 1279 613 1279 773 1279 c 3,31,32
 904 1279 904 1279 993.5 1195.5 c 128,-1,33
 1083 1112 1083 1112 1083 979 c 3,34,35
 1084 931 1084 931 1071 880 c 2,18,-1
EndSplineSet
EndChar

StartChar: P
Encoding: 80 80 48
Width: 1024
VWidth: 2175
GlyphClass: 2
Flags: W
HStem: 512 127<377.859 762.305> 1151 128<493.094 899.277>
VStem: 956 127<835.128 1096.34>
DStem2: 62.7461 0 194.89 0 0.258819 0.965926<22.3519 575.687 707.725 1237.39>
LayerCount: 2
Fore
SplineSet
440 1279 m 2,0,-1
 773 1279 l 2,1,2
 903 1279 903 1279 993 1195 c 128,-1,3
 1083 1111 1083 1111 1083 979 c 7,4,5
 1083 894 1083 894 1043.5 809 c 128,-1,6
 1004 724 1004 724 938.5 659 c 128,-1,7
 873 594 873 594 784.5 553 c 128,-1,8
 696 512 696 512 603 512 c 2,9,-1
 357 512 l 2,10,11
 332 512 332 512 325 487 c 2,12,-1
 204 34 l 2,13,14
 191 0 191 0 159 0 c 2,15,-1
 106 0 l 2,16,17
 88 0 88 0 79 11 c 128,-1,18
 70 22 70 22 74 42 c 2,19,-1
 395 1245 l 2,20,21
 405 1279 405 1279 440 1279 c 2,0,-1
389 639 m 2,22,-1
 603 639 l 2,23,24
 693 639 693 639 776 692 c 128,-1,25
 859 745 859 745 907.5 827 c 128,-1,26
 956 909 956 909 956 994 c 7,27,28
 956 1063 956 1063 901 1107 c 128,-1,29
 846 1151 846 1151 773 1151 c 2,30,-1
 529 1151 l 2,31,32
 504 1151 504 1151 497 1126 c 2,33,-1
 372 661 l 2,34,35
 366 639 366 639 389 639 c 2,22,-1
EndSplineSet
EndChar

StartChar: Q
Encoding: 81 81 49
Width: 1083
VWidth: 2175
GlyphClass: 2
Flags: W
HStem: 0 127<337.438 606.72> 1151 128<613.798 898.844>
VStem: 155 128<182.068 495> 956 127<783.5 1096.22>
DStem2: 63.0883 0 194.395 0 0.258819 0.965926<317.097 1107.71> 710 263 610 183 0.698447 -0.715662<-152.922 -2.34268 143.732 286.678> 702.088 0 834.395 0 0.258819 0.965926<265.09 1024.61>
LayerCount: 2
Fore
SplineSet
809 399 m 2,0,-1
 945 911 l 2,1,2
 956 953 956 953 956 994 c 3,3,4
 956 1064 956 1064 899 1107.5 c 128,-1,5
 842 1151 842 1151 765 1151 c 3,6,7
 655 1151 655 1151 556.5 1066.5 c 128,-1,8
 458 982 458 982 429 880 c 2,9,-1
 293 368 l 2,10,11
 282 322 282 322 283 285 c 3,12,13
 283 221 283 221 334.5 174 c 128,-1,14
 386 127 386 127 450 127 c 3,15,16
 539 127 539 127 605 164 c 0,17,18
 620 172 620 172 610 183 c 2,19,-1
 535 257 l 2,20,21
 513 284 513 284 535 306 c 2,22,-1
 578 348 l 2,23,24
 605 370 605 370 627 348 c 2,25,-1
 710 263 l 2,26,27
 723 250 723 250 735 263 c 0,28,29
 791 332 791 332 809 399 c 2,0,-1
824 147 m 2,30,-1
 911 57 l 2,31,32
 927 41 927 41 919 20.5 c 128,-1,33
 911 0 911 0 888 0 c 2,34,-1
 809 0 l 2,35,36
 790 0 790 0 775 15 c 2,37,-1
 722 68 l 2,38,39
 714 76 714 76 703 70 c 0,40,41
 585 0 585 0 465 0 c 3,42,43
 328 0 328 0 241.5 82.5 c 128,-1,44
 155 165 155 165 155 302 c 3,45,46
 155 355 155 355 170 399 c 2,47,-1
 306 911 l 2,48,49
 344 1055 344 1055 478.5 1167 c 128,-1,50
 613 1279 613 1279 773 1279 c 3,51,52
 904 1279 904 1279 993.5 1195.5 c 128,-1,53
 1083 1112 1083 1112 1083 979 c 3,54,55
 1083 924 1083 924 1069 880 c 2,56,-1
 933 368 l 2,57,58
 904 260 904 260 824 170 c 0,59,60
 812 159 812 159 824 147 c 2,30,-1
EndSplineSet
EndChar

StartChar: R
Encoding: 82 82 50
Width: 1024
VWidth: 2175
GlyphClass: 2
Flags: W
HStem: 512 127<377.859 562.684> 1151 128<493.094 899.989>
VStem: 956 127<832.635 1096.36>
DStem2: 61.4033 0 194.886 0 0.258819 0.965926<23.0744 576.625 708.016 1237.74> 690 504 563 489 0.293647 -0.955914<-14.3369 501.716>
LayerCount: 2
Fore
SplineSet
389 639 m 2,0,-1
 601 639 l 2,1,2
 741 639 741 639 848.5 749.5 c 128,-1,3
 956 860 956 860 956 994 c 0,4,5
 956 1062 956 1062 900 1106.5 c 128,-1,6
 844 1151 844 1151 773 1151 c 2,7,-1
 529 1151 l 2,8,9
 504 1151 504 1151 497 1126 c 2,10,-1
 372 661 l 2,11,12
 366 639 366 639 389 639 c 2,0,-1
529 512 m 2,13,-1
 357 512 l 2,14,15
 332 512 332 512 325 487 c 2,16,-1
 204 34 l 2,17,18
 191 0 191 0 159 0 c 2,19,-1
 106 0 l 2,20,21
 65 0 65 0 74 42 c 2,22,-1
 395 1245 l 2,23,24
 405 1279 405 1279 440 1279 c 2,25,-1
 773 1279 l 2,26,27
 904 1279 904 1279 993.5 1195.5 c 128,-1,28
 1083 1112 1083 1112 1083 979 c 0,29,30
 1083 883 1083 883 1029.5 784 c 128,-1,31
 976 685 976 685 887.5 614 c 128,-1,32
 799 543 799 543 703 525 c 0,33,34
 687 522 687 522 690 504 c 2,35,-1
 831 45 l 2,36,37
 844 0 844 0 797 0 c 2,38,-1
 744 0 l 2,39,40
 709 0 709 0 699 34 c 2,41,-1
 563 489 l 2,42,43
 553 512 553 512 529 512 c 2,13,-1
EndSplineSet
EndChar

StartChar: S
Encoding: 83 83 51
Width: 1024
VWidth: 2175
GlyphClass: 2
Flags: W
HStem: 0 127<261.411 659.713> 1151 128<578.202 972.1>
VStem: 323 130<840.62 1046.91> 786 132<229.815 439.439>
DStem2: 829 533 412 748 0.730021 -0.683424<-556.293 100.548>
LayerCount: 2
Fore
SplineSet
741 440 m 2,0,-1
 412 748 l 2,1,2
 323 828 323 828 323 935 c 3,3,4
 323 1032 323 1032 386.5 1112 c 128,-1,5
 450 1192 450 1192 549 1235.5 c 128,-1,6
 648 1279 648 1279 754 1279 c 3,7,8
 1017 1279 1017 1279 1117 1151 c 0,9,10
 1129 1137 1129 1137 1125.5 1122.5 c 128,-1,11
 1122 1108 1122 1108 1105 1098 c 2,12,-1
 1049 1073 l 2,13,14
 1027 1063 1027 1063 1011 1079 c 0,15,16
 932 1151 932 1151 795 1151 c 3,17,18
 604 1151 604 1151 504 1055 c 0,19,20
 452 1005 452 1005 453 937 c 3,21,22
 453 880 453 880 499 839 c 2,23,-1
 829 533 l 2,24,25
 918 450 918 450 918 346 c 3,26,27
 918 247 918 247 853 166.5 c 128,-1,28
 788 86 788 86 685 43 c 128,-1,29
 582 0 582 0 467 0 c 3,30,31
 206 0 206 0 123 130 c 0,32,33
 112 144 112 144 115.5 158.5 c 128,-1,34
 119 173 119 173 136 181 c 2,35,-1
 193 206 l 2,36,37
 216 216 216 216 234 195 c 0,38,39
 296 127 296 127 476 127 c 3,40,41
 591 127 591 127 688 187 c 0,42,43
 786 248 786 248 786 338 c 3,44,45
 786 400 786 400 741 440 c 2,0,-1
EndSplineSet
EndChar

StartChar: T
Encoding: 84 84 52
Width: 896
VWidth: 2175
GlyphClass: 2
Flags: W
HStem: 1151 128<331.365 618.358 747.453 1088.84>
DStem2: 317.217 0 451.89 0 0.258819 0.965926<22.9867 1182.82>
LayerCount: 2
Fore
SplineSet
380 1279 m 2,0,-1
 1066 1279 l 2,1,2
 1082 1279 1082 1279 1094.5 1265.5 c 128,-1,3
 1107 1252 1107 1252 1100 1236 c 2,4,-1
 1086 1185 l 2,5,6
 1076 1151 1076 1151 1041 1151 c 2,7,-1
 784 1151 l 2,8,9
 759 1151 759 1151 752 1126 c 2,10,-1
 461 34 l 2,11,12
 448 0 448 0 414 0 c 2,13,-1
 363 0 l 2,14,15
 346 0 346 0 335.5 12 c 128,-1,16
 325 24 325 24 329 42 c 2,17,-1
 620 1130 l 2,18,19
 623 1137 623 1137 618.5 1144 c 128,-1,20
 614 1151 614 1151 605 1151 c 2,21,-1
 353 1151 l 2,22,23
 336 1151 336 1151 326.5 1163.5 c 128,-1,24
 317 1176 317 1176 321 1194 c 2,25,-1
 334 1245 l 2,26,27
 343 1279 343 1279 380 1279 c 2,0,-1
EndSplineSet
EndChar

StartChar: U
Encoding: 85 85 53
Width: 1024
VWidth: 2175
GlyphClass: 2
Flags: W
HStem: 0 127<314.118 638.975>
VStem: 142 128<170.63 449.625>
DStem2: 60.9691 0 194.543 0 0.258819 0.965926<299.444 1335.99> 701.969 0 834.543 0 0.258819 0.965926<220.53 1336>
LayerCount: 2
Fore
SplineSet
440 1279 m 2,0,-1
 493 1279 l 2,1,2
 508 1279 508 1279 518.5 1265.5 c 128,-1,3
 529 1252 529 1252 525 1236 c 2,4,-1
 276 304 l 2,5,6
 270 285 270 285 270 253 c 0,7,8
 270 195 270 195 328.5 161 c 128,-1,9
 387 127 387 127 463 127 c 7,10,11
 571 127 571 127 670 189.5 c 128,-1,12
 769 252 769 252 792 336 c 2,13,-1
 1035 1245 l 2,14,15
 1045 1279 1045 1279 1079 1279 c 2,16,-1
 1132 1279 l 2,17,18
 1149 1279 1149 1279 1158.5 1267 c 128,-1,19
 1168 1255 1168 1255 1164 1236 c 2,20,-1
 916 304 l 2,21,22
 881 180 881 180 749.5 90 c 128,-1,23
 618 0 618 0 465 0 c 7,24,25
 329 0 329 0 235.5 71.5 c 128,-1,26
 142 143 142 143 142 266 c 0,27,28
 142 307 142 307 151 336 c 2,29,-1
 395 1245 l 2,30,31
 402 1279 402 1279 440 1279 c 2,0,-1
EndSplineSet
EndChar

StartChar: V
Encoding: 86 86 54
Width: 1024
VWidth: 2175
GlyphClass: 2
Flags: W
VStem: 385 129<306.61 1279>
DStem2: 1030 1253 1162 1230 0.462742 0.886493<-1071.4 52.7314>
LayerCount: 2
Fore
SplineSet
429 1279 m 2,0,-1
 489 1279 l 2,1,2
 523 1279 523 1279 523 1245 c 2,3,-1
 514 317 l 2,4,5
 514 310 514 310 519.5 306.5 c 128,-1,6
 525 303 525 303 530.5 305 c 128,-1,7
 536 307 536 307 540 312 c 2,8,-1
 1030 1253 l 2,9,10
 1043 1278 1043 1278 1073 1279 c 2,11,-1
 1132 1279 l 2,12,13
 1151 1279 1151 1279 1162 1265 c 128,-1,14
 1173 1251 1173 1251 1162 1230 c 2,15,-1
 533 25 l 2,16,17
 520 0 520 0 493 0 c 2,18,-1
 419 0 l 2,19,20
 406 0 406 0 395.5 10.5 c 128,-1,21
 385 21 385 21 385 34 c 2,22,-1
 395 1245 l 2,23,24
 395 1279 395 1279 429 1279 c 2,0,-1
EndSplineSet
EndChar

StartChar: W
Encoding: 87 87 55
Width: 1408
VWidth: 2175
GlyphClass: 2
Flags: W
DStem2: 323 36 465 306 0.0560636 0.998427<263.172 1247.32> 489 297 472 23 0.516751 0.856136<-12.5546 353.499> 911 735 799 520 0.0654332 -0.997857<196.526 452.05> 1419 1253 1551 1230 0.4297 0.902972<-1075.76 49.9637>
LayerCount: 2
Fore
SplineSet
799 767 m 2,0,-1
 877 767 l 2,1,2
 911 767 911 767 911 735 c 2,3,-1
 941 300 l 2,4,5
 941 286 941 286 950.5 284.5 c 128,-1,6
 960 283 960 283 965 293 c 2,7,-1
 1419 1253 l 2,8,9
 1432 1278 1432 1278 1462 1279 c 2,10,-1
 1519 1279 l 2,11,12
 1537 1279 1537 1279 1548.5 1263 c 128,-1,13
 1560 1247 1560 1247 1551 1230 c 2,14,-1
 979 28 l 2,15,16
 966 0 966 0 937 0 c 2,17,-1
 865 0 l 2,18,19
 834 0 834 0 831 32 c 2,20,-1
 799 520 l 2,21,22
 799 527 799 527 794 530.5 c 128,-1,23
 789 534 789 534 784 532 c 128,-1,24
 779 530 779 530 775 525 c 2,25,-1
 472 23 l 2,26,27
 455 0 455 0 431 0 c 2,28,-1
 357 0 l 2,29,30
 343 0 343 0 332.5 10.5 c 128,-1,31
 322 21 322 21 323 36 c 2,32,-1
 391 1247 l 2,33,34
 394 1279 394 1279 425 1279 c 2,35,-1
 484 1279 l 2,36,37
 521 1279 521 1279 518 1243 c 2,38,-1
 465 306 l 2,39,40
 465 294 465 294 474.5 291 c 128,-1,41
 484 288 484 288 489 297 c 2,42,-1
 758 746 l 2,43,44
 770 767 770 767 799 767 c 2,0,-1
EndSplineSet
EndChar

StartChar: X
Encoding: 88 88 56
Width: 1151
VWidth: 2175
GlyphClass: 2
Flags: W
DStem2: 87 55 221 15 0.657843 0.753155<-0.725227 713.149 955.767 1663.91> 701 788 605 676 0.320683 -0.947187<-533.374 11.4414 255.181 803.847>
LayerCount: 2
Fore
SplineSet
448 1279 m 2,0,-1
 512 1279 l 2,1,2
 534 1279 534 1279 544 1256 c 2,3,-1
 701 788 l 2,4,5
 711 770 711 770 724 784 c 2,6,-1
 1143 1264 l 2,7,8
 1151 1279 1151 1279 1179 1279 c 2,9,-1
 1251 1279 l 2,10,11
 1271 1279 1271 1279 1282 1261 c 128,-1,12
 1293 1243 1293 1243 1277 1224 c 2,13,-1
 769 642 l 2,14,15
 756 626 756 626 763 610 c 2,16,-1
 954 45 l 2,17,18
 961 27 961 27 950 13.5 c 128,-1,19
 939 0 939 0 922 0 c 2,20,-1
 858 0 l 2,21,22
 833 0 833 0 826 23 c 2,23,-1
 667 495 l 2,24,25
 657 513 657 513 644 499 c 2,26,-1
 221 15 l 2,27,28
 206 0 206 0 187 0 c 2,29,-1
 113 0 l 2,30,31
 91 0 91 0 81 19 c 128,-1,32
 71 38 71 38 87 55 c 2,33,-1
 599 642 l 2,34,35
 612 655 612 655 605 676 c 2,36,-1
 416 1234 l 2,37,38
 411 1250 411 1250 421 1264.5 c 128,-1,39
 431 1279 431 1279 448 1279 c 2,0,-1
EndSplineSet
EndChar

StartChar: Y
Encoding: 89 89 57
Width: 1151
VWidth: 2175
GlyphClass: 2
Flags: W
DStem2: 445.723 0 577.301 0 0.258819 0.965926<22.2827 778.498> 712 846 627 714 0.369534 -0.929217<-483.711 7.65248> 1137 1264 1273 1222 0.682414 0.730966<-586.699 62.1078>
LayerCount: 2
Fore
SplineSet
1171 1279 m 2,0,-1
 1247 1279 l 2,1,2
 1267 1279 1267 1279 1276.5 1260 c 128,-1,3
 1286 1241 1286 1241 1273 1222 c 2,4,-1
 767 680 l 2,5,6
 757 670 757 670 754 661 c 2,7,-1
 584 25 l 2,8,9
 574 0 574 0 552 0 c 2,10,-1
 491 0 l 2,11,12
 472 0 472 0 462.5 11.5 c 128,-1,13
 453 23 453 23 457 42 c 2,14,-1
 629 684 l 2,15,16
 633 699 633 699 627 714 c 2,17,-1
 421 1232 l 2,18,19
 415 1248 415 1248 426 1263.5 c 128,-1,20
 437 1279 437 1279 453 1279 c 2,21,-1
 516 1279 l 2,22,23
 538 1279 538 1279 548 1258 c 2,24,-1
 712 846 l 2,25,26
 723 818 723 818 741 841 c 2,27,-1
 1137 1264 l 2,28,29
 1152 1279 1152 1279 1171 1279 c 2,0,-1
EndSplineSet
EndChar

StartChar: Z
Encoding: 90 90 58
Width: 1024
VWidth: 2175
GlyphClass: 2
Flags: W
HStem: 0 127<279.188 838.684> 1151 128<394.662 961.328>
DStem2: 110 155 280 155 0.659438 0.751759<98.0263 1303.01>
LayerCount: 2
Fore
SplineSet
293 127 m 2,0,-1
 822 127 l 2,1,2
 839 127 839 127 848.5 115 c 128,-1,3
 858 103 858 103 854 85 c 2,4,-1
 839 25 l 2,5,6
 829 0 829 0 805 0 c 2,7,-1
 108 0 l 2,8,9
 91 0 91 0 81.5 12 c 128,-1,10
 72 24 72 24 76 42 c 2,11,-1
 100 136 l 2,12,13
 100 137 100 137 110 155 c 2,14,-1
 960 1124 l 2,15,16
 967 1132 967 1132 961.5 1141.5 c 128,-1,17
 956 1151 956 1151 948 1151 c 2,18,-1
 416 1151 l 2,19,20
 400 1151 400 1151 390 1164.5 c 128,-1,21
 380 1178 380 1178 385 1194 c 2,22,-1
 399 1253 l 2,23,24
 405 1278 405 1278 433 1279 c 2,25,-1
 1130 1279 l 2,26,27
 1147 1279 1147 1279 1157.5 1267 c 128,-1,28
 1168 1255 1168 1255 1164 1236 c 2,29,-1
 1137 1139 l 2,30,31
 1136 1135 1136 1135 1128 1120 c 2,32,-1
 280 155 l 2,33,34
 273 147 273 147 279 137 c 128,-1,35
 285 127 285 127 293 127 c 2,0,-1
EndSplineSet
EndChar

StartChar: bracketleft
Encoding: 91 91 59
Width: 512
VWidth: 2175
GlyphClass: 2
Flags: W
HStem: -125 125<271.172 363.641> 1279 127<591.828 739.463>
VStem: 104 648
DStem2: 92.7461 -125 226.879 -125 0.258819 0.965926<176.186 1500.13>
LayerCount: 2
Fore
SplineSet
542 1406 m 2,0,-1
 718 1406 l 2,1,2
 735 1406 735 1406 745.5 1394 c 128,-1,3
 756 1382 756 1382 752 1364 c 2,4,-1
 737 1315 l 2,5,6
 727 1279 727 1279 693 1279 c 2,7,-1
 629 1279 l 2,8,9
 604 1279 604 1279 597 1256 c 2,10,-1
 266 21 l 2,11,12
 260 0 260 0 283 0 c 2,13,-1
 342 0 l 2,14,15
 357 0 357 0 367.5 -12.5 c 128,-1,16
 378 -25 378 -25 374 -40 c 2,17,-1
 361 -91 l 2,18,19
 351 -125 351 -125 317 -125 c 2,20,-1
 138 -125 l 2,21,22
 123 -125 123 -125 111.5 -112.5 c 128,-1,23
 100 -100 100 -100 104 -83 c 2,24,-1
 495 1372 l 2,25,26
 505 1406 505 1406 542 1406 c 2,0,-1
EndSplineSet
EndChar

StartChar: backslash
Encoding: 92 92 60
Width: 1024
VWidth: 2175
GlyphClass: 2
Flags: W
DStem2: 703 1634 576 1625 0.0652308 -0.99787<-33.2308 1887.24>
LayerCount: 2
Fore
SplineSet
697 -223 m 2,0,-1
 576 1625 l 2,1,2
 576 1639 576 1639 585.5 1650 c 128,-1,3
 595 1661 595 1661 608 1661 c 2,4,-1
 667 1666 l 2,5,6
 703 1666 703 1666 703 1634 c 2,7,-1
 824 -217 l 2,8,9
 825 -230 825 -230 815 -241 c 128,-1,10
 805 -252 805 -252 792 -253 c 2,11,-1
 733 -255 l 2,12,13
 699 -257 699 -257 697 -223 c 2,0,-1
EndSplineSet
EndChar

StartChar: bracketright
Encoding: 93 93 61
Width: 512
VWidth: 2175
GlyphClass: 2
Flags: W
HStem: -125 125<115.405 260.684> 1279 127<492.242 585.844>
VStem: 104 648
DStem2: 220.808 -125 351.89 -125 0.258819 0.965926<117.503 1441.51>
LayerCount: 2
Fore
SplineSet
542 1406 m 2,0,-1
 718 1406 l 2,1,2
 735 1406 735 1406 745 1394 c 128,-1,3
 755 1382 755 1382 752 1364 c 2,4,-1
 361 -91 l 2,5,6
 351 -125 351 -125 317 -125 c 2,7,-1
 138 -125 l 2,8,9
 121 -125 121 -125 110.5 -112.5 c 128,-1,10
 100 -100 100 -100 104 -83 c 2,11,-1
 119 -32 l 2,12,13
 129 0 129 0 164 0 c 2,14,-1
 227 0 l 2,15,16
 251 0 251 0 261 25 c 2,17,-1
 591 1258 l 2,18,19
 597 1279 597 1279 574 1279 c 2,20,-1
 514 1279 l 2,21,22
 499 1279 499 1279 488.5 1293.5 c 128,-1,23
 478 1308 478 1308 482 1324 c 2,24,-1
 495 1372 l 2,25,26
 505 1406 505 1406 542 1406 c 2,0,-1
EndSplineSet
EndChar

StartChar: asciicircum
Encoding: 94 94 62
Width: 889
VWidth: 2175
GlyphClass: 2
Flags: W
HStem: 1409 252
VStem: 460 633
DStem2: 757 1661 764 1521 0.898217 0.439553<-347.713 -29.6365> 800 1661 793 1521 0.894427 -0.447214<30.7608 343.505>
LayerCount: 2
Fore
SplineSet
475 1523 m 1,0,-1
 757 1661 l 2,1,2
 777 1668 777 1668 800 1661 c 2,3,-1
 1076 1523 l 2,4,5
 1109 1506 1109 1506 1093 1477 c 2,6,-1
 1065 1423 l 2,7,8
 1048 1393 1048 1393 1021 1409 c 2,9,-1
 793 1521 l 1,10,11
 777 1522 777 1522 764 1521 c 1,12,-1
 532 1409 l 2,13,14
 499 1394 499 1394 485 1423 c 2,15,-1
 460 1477 l 2,16,17
 443 1506 443 1506 475 1523 c 1,0,-1
EndSplineSet
EndChar

StartChar: underscore
Encoding: 95 95 63
Width: 1699
VWidth: 2175
GlyphClass: 2
Flags: W
HStem: -255 128<-78.6194 1693.61>
LayerCount: 2
Fore
SplineSet
-32 -127 m 2,0,-1
 1672 -127 l 2,1,2
 1717 -127 1717 -127 1704 -170 c 2,3,-1
 1691 -221 l 2,4,5
 1679 -255 1679 -255 1646 -255 c 2,6,-1
 -59 -255 l 2,7,8
 -101 -255 -101 -255 -91 -212 c 2,9,-1
 -79 -161 l 2,10,11
 -67 -127 -67 -127 -32 -127 c 2,0,-1
EndSplineSet
EndChar

StartChar: grave
Encoding: 96 96 64
Width: 516
VWidth: 2175
GlyphClass: 2
Flags: W
HStem: 1381 295
VStem: 495 219
DStem2: 714 1453 495 1604 0.454054 -0.890974<-267.481 32.4178>
LayerCount: 2
Fore
SplineSet
610 1661 m 1,0,-1
 714 1453 l 2,1,2
 730 1425 730 1425 699 1409 c 2,3,-1
 646 1381 l 2,4,5
 617 1365 617 1365 601 1396 c 2,6,-1
 495 1604 l 2,7,8
 479 1634 479 1634 510 1651 c 2,9,-1
 563 1676 l 2,10,11
 593 1691 593 1691 610 1661 c 1,0,-1
EndSplineSet
EndChar

StartChar: a
Encoding: 97 97 65
Width: 954
VWidth: 2175
GlyphClass: 2
Flags: W
HStem: 0 127<273.352 554.609 782.534 844.68> 767 127<428.92 768>
VStem: 128 128<151.831 303.381>
DStem2: 62.2253 0 194.209 0 0.258819 0.965926<262.093 800.567> 573.118 0 704.692 0 0.258819 0.965926<250.123 782.371>
LayerCount: 2
Fore
SplineSet
856 83 m 2,0,-1
 839 25 l 2,1,2
 831 0 831 0 799 0 c 0,3,4
 720 0 720 0 676 79 c 0,5,6
 668 94 668 94 652 79 c 0,7,8
 567 0 567 0 402 0 c 0,9,10
 286 0 286 0 207 59 c 128,-1,11
 128 118 128 118 128 219 c 0,12,13
 128 249 128 249 134 272 c 2,14,-1
 238 656 l 2,15,16
 263 753 263 753 349.5 823.5 c 128,-1,17
 436 894 436 894 542 894 c 2,18,-1
 901 894 l 2,19,20
 917 894 917 894 928 881.5 c 128,-1,21
 939 869 939 869 935 852 c 2,22,-1
 769 240 l 2,23,24
 765 224 765 224 765 207 c 0,25,26
 765 174 765 174 782 152 c 128,-1,27
 799 130 799 130 829 125 c 0,28,29
 843 123 843 123 851.5 110.5 c 128,-1,30
 860 98 860 98 856 83 c 2,0,-1
646 272 m 1,31,-1
 774 746 l 2,32,33
 780 767 780 767 757 767 c 2,34,-1
 542 767 l 2,35,36
 480 767 480 767 427.5 722 c 128,-1,37
 375 677 375 677 361 622 c 2,38,-1
 262 253 l 2,39,40
 257 232 257 232 256 219 c 0,41,42
 256 173 256 173 300 150 c 128,-1,43
 344 127 344 127 402 127 c 0,44,45
 477 127 477 127 554.5 171 c 128,-1,46
 632 215 632 215 646 272 c 1,31,-1
EndSplineSet
EndChar

StartChar: b
Encoding: 98 98 66
Width: 896
VWidth: 2175
GlyphClass: 2
Flags: W
HStem: 0 127<238.969 577.412> 767 130<445.312 739.276>
DStem2: 60.7461 0 194.076 0 0.258819 0.965926<177.972 840.115 975.051 1335.85> 574.225 0 706.692 0 0.258819 0.965926<162.373 744.882>
LayerCount: 2
Fore
SplineSet
440 1279 m 2,0,-1
 493 1279 l 2,1,2
 510 1279 510 1279 519.5 1267 c 128,-1,3
 529 1255 529 1255 525 1236 c 2,4,-1
 440 918 l 2,5,6
 434 897 434 897 457 897 c 2,7,-1
 671 897 l 2,8,9
 757 897 757 897 819.5 838.5 c 128,-1,10
 882 780 882 780 882 690 c 0,11,12
 882 648 882 648 873 622 c 2,13,-1
 771 240 l 2,14,15
 748 145 748 145 658.5 72.5 c 128,-1,16
 569 0 569 0 465 0 c 2,17,-1
 106 0 l 2,18,19
 89 0 89 0 78.5 12 c 128,-1,20
 68 24 68 24 72 42 c 2,21,-1
 395 1245 l 2,22,23
 405 1279 405 1279 440 1279 c 2,0,-1
393 741 m 2,24,-1
 234 149 l 2,25,26
 228 128 228 128 251 127 c 2,27,-1
 465 127 l 2,28,29
 526 127 526 127 578.5 172 c 128,-1,30
 631 217 631 217 646 272 c 2,31,-1
 750 656 l 2,32,33
 763 703 763 703 740 735 c 128,-1,34
 717 767 717 767 671 767 c 2,35,-1
 425 767 l 2,36,37
 399 766 399 766 393 741 c 2,24,-1
EndSplineSet
EndChar

StartChar: c
Encoding: 99 99 67
Width: 766
VWidth: 2175
GlyphClass: 2
Flags: W
HStem: 0 127<259.887 585.589> 767 130<427.511 792.578>
VStem: 125 128<134.604 290.707>
DStem2: 62.2253 0 194.692 0 0.258819 0.965926<248.811 799.712>
LayerCount: 2
Fore
SplineSet
338 127 m 2,0,-1
 565 127 l 2,1,2
 582 127 582 127 592.5 115 c 128,-1,3
 603 103 603 103 599 85 c 2,4,-1
 586 34 l 2,5,6
 573 0 573 0 540 0 c 2,7,-1
 338 0 l 2,8,9
 248 0 248 0 186.5 57 c 128,-1,10
 125 114 125 114 125 206 c 0,11,12
 125 229 125 229 134 272 c 2,13,-1
 238 656 l 2,14,15
 259 747 259 747 349 822 c 128,-1,16
 439 897 439 897 542 897 c 2,17,-1
 771 894 l 2,18,19
 787 894 787 894 799.5 881 c 128,-1,20
 812 868 812 868 805 852 c 2,21,-1
 790 803 l 2,22,23
 780 767 780 767 746 767 c 2,24,-1
 542 767 l 2,25,26
 480 767 480 767 427.5 722.5 c 128,-1,27
 375 678 375 678 361 622 c 2,28,-1
 259 240 l 2,29,30
 253 221 253 221 253 206 c 0,31,32
 253 127 253 127 338 127 c 2,0,-1
EndSplineSet
EndChar

StartChar: d
Encoding: 100 100 68
Width: 896
VWidth: 2175
GlyphClass: 2
Flags: W
HStem: 0 127<262.289 618.969> 767 130<427.01 768.031>
VStem: 125 130<133.589 390.609>
DStem2: 62.2253 0 194.692 0 0.258819 0.965926<249.507 802.52> 573.11 0 704.815 0 0.258819 0.965926<120.04 782.575 917.059 1336.06>
LayerCount: 2
Fore
SplineSet
758 767 m 2,0,-1
 541 767 l 2,1,2
 479 767 479 767 427 722.5 c 128,-1,3
 375 678 375 678 361 622 c 2,4,-1
 259 240 l 2,5,6
 255 227 255 227 255 206 c 0,7,8
 255 127 255 127 338 127 c 2,9,-1
 582 127 l 2,10,11
 604 127 604 127 614 153 c 2,12,-1
 773 746 l 2,13,14
 779 767 779 767 758 767 c 2,0,-1
541 897 m 2,15,-1
 788 897 l 2,16,17
 810 897 810 897 820 920 c 2,18,-1
 907 1245 l 2,19,20
 917 1279 917 1279 952 1279 c 2,21,-1
 1005 1279 l 2,22,23
 1022 1279 1022 1279 1031.5 1267 c 128,-1,24
 1041 1255 1041 1255 1036 1236 c 2,25,-1
 716 34 l 2,26,27
 703 0 703 0 669 0 c 2,28,-1
 338 0 l 2,29,30
 248 0 248 0 186.5 57 c 128,-1,31
 125 114 125 114 125 206 c 0,32,33
 125 229 125 229 134 272 c 2,34,-1
 238 656 l 2,35,36
 259 747 259 747 348.5 822 c 128,-1,37
 438 897 438 897 541 897 c 2,15,-1
EndSplineSet
EndChar

StartChar: e
Encoding: 101 101 69
Width: 896
VWidth: 2175
GlyphClass: 2
Flags: W
HStem: 0 127<259.887 713.589> 385 127<344.109 723> 767 130<447.639 736.242>
VStem: 125 128<133.927 370.901> 752 128<519.573 743.649>
DStem2: 62.2253 0 194.692 0 0.258819 0.965926<248.811 444.834 575.166 784.052> 574.111 0 706.336 0 0.258819 0.965926<518.98 702.389>
LayerCount: 2
Fore
SplineSet
718 537 m 2,0,-1
 750 656 l 2,1,2
 752 664 752 664 752 680 c 0,3,4
 752 724 752 724 706 745.5 c 128,-1,5
 660 767 660 767 608 767 c 0,6,7
 526 767 526 767 451.5 725 c 128,-1,8
 377 683 377 683 361 622 c 2,9,-1
 338 533 l 2,10,11
 332 512 332 512 353 512 c 2,12,-1
 684 512 l 2,13,14
 712 512 712 512 718 537 c 2,0,-1
338 127 m 2,15,-1
 695 127 l 2,16,17
 710 127 710 127 720.5 114 c 128,-1,18
 731 101 731 101 727 85 c 2,19,-1
 714 34 l 2,20,21
 701 0 701 0 669 0 c 2,22,-1
 338 0 l 2,23,24
 248 0 248 0 186.5 57 c 128,-1,25
 125 114 125 114 125 206 c 0,26,27
 125 229 125 229 134 272 c 2,28,-1
 238 656 l 2,29,30
 266 756 266 756 372.5 826.5 c 128,-1,31
 479 897 479 897 608 897 c 0,32,33
 715 897 715 897 797.5 838 c 128,-1,34
 880 779 880 779 880 678 c 0,35,36
 880 651 880 651 873 622 c 2,37,-1
 818 419 l 2,38,39
 808 385 808 385 773 385 c 2,40,-1
 323 385 l 2,41,42
 298 385 298 385 291 359 c 2,43,-1
 259 240 l 2,44,45
 253 221 253 221 253 206 c 0,46,47
 253 127 253 127 338 127 c 2,15,-1
EndSplineSet
EndChar

StartChar: f
Encoding: 102 102 70
Width: 766
VWidth: 2175
GlyphClass: 2
Flags: W
HStem: 767 130<292.699 389.089 573.906 792.569> 1151 128<662.173 893.589>
DStem2: 189.11 0 321.89 0 0.258819 0.965926<22.5919 782.167 974.69 1192.81>
LayerCount: 2
Fore
SplineSet
584 897 m 2,0,-1
 771 897 l 2,1,2
 787 897 787 897 798 882.5 c 128,-1,3
 809 868 809 868 805 852 c 2,4,-1
 790 803 l 2,5,6
 780 767 780 767 746 767 c 2,7,-1
 554 767 l 2,8,9
 526 767 526 767 520 741 c 2,10,-1
 331 34 l 2,11,12
 318 0 318 0 287 0 c 2,13,-1
 234 0 l 2,14,15
 217 0 217 0 207.5 12 c 128,-1,16
 198 24 198 24 202 42 c 2,17,-1
 389 746 l 2,18,19
 392 767 392 767 374 767 c 2,20,-1
 314 767 l 2,21,22
 299 767 299 767 287.5 781.5 c 128,-1,23
 276 796 276 796 280 809 c 2,24,-1
 295 860 l 2,25,26
 305 896 305 896 340 897 c 2,27,-1
 404 897 l 2,28,29
 429 897 429 897 436 920 c 2,30,-1
 467 1041 l 2,31,32
 491 1133 491 1133 580.5 1206 c 128,-1,33
 670 1279 670 1279 773 1279 c 2,34,-1
 875 1279 l 2,35,36
 890 1279 890 1279 900.5 1265.5 c 128,-1,37
 911 1252 911 1252 907 1236 c 2,38,-1
 894 1185 l 2,39,40
 881 1151 881 1151 848 1151 c 2,41,-1
 773 1151 l 2,42,43
 714 1151 714 1151 660.5 1105.5 c 128,-1,44
 607 1060 607 1060 593 1007 c 2,45,-1
 567 918 l 2,46,47
 561 897 561 897 584 897 c 2,0,-1
EndSplineSet
EndChar

StartChar: g
Encoding: 103 103 71
Width: 896
VWidth: 2175
GlyphClass: 2
Flags: W
HStem: -382 127<46.4297 474.73> 0 127<275.692 560.531> 767 130<429.72 768.031>
VStem: 123 130<149.176 290.707>
DStem2: -41.2388 -382 90.3356 -382 0.258819 0.965926<646.385 1192.27> 469.734 -382 602.692 -382 0.258819 0.965926<161.323 384.218 515.779 1177.88>
LayerCount: 2
Fore
SplineSet
552 0 m 2,0,-1
 338 0 l 2,1,2
 250 0 250 0 186.5 57.5 c 128,-1,3
 123 115 123 115 123 204 c 0,4,5
 123 233 123 233 134 272 c 2,6,-1
 238 656 l 2,7,8
 259 747 259 747 348.5 822 c 128,-1,9
 438 897 438 897 542 897 c 2,10,-1
 901 897 l 2,11,12
 917 897 917 897 928 882.5 c 128,-1,13
 939 868 939 868 935 852 c 2,14,-1
 667 -142 l 2,15,16
 640 -238 640 -238 554 -310 c 128,-1,17
 468 -382 468 -382 361 -382 c 2,18,-1
 70 -382 l 2,19,20
 55 -382 55 -382 43.5 -368.5 c 128,-1,21
 32 -355 32 -355 36 -338 c 2,22,-1
 49 -289 l 2,23,24
 59 -255 59 -255 96 -255 c 2,25,-1
 361 -255 l 2,26,27
 423 -255 423 -255 475 -211 c 128,-1,28
 527 -167 527 -167 544 -108 c 2,29,-1
 567 -19 l 2,30,31
 573 0 573 0 552 0 c 2,0,-1
614 153 m 1,32,-1
 773 746 l 2,33,34
 779 767 779 767 756 767 c 2,35,-1
 542 767 l 2,36,37
 483 767 483 767 428 721 c 128,-1,38
 373 675 373 675 361 622 c 2,39,-1
 257 240 l 2,40,41
 253 219 253 219 253 208 c 0,42,43
 253 170 253 170 275 148.5 c 128,-1,44
 297 127 297 127 338 127 c 2,45,-1
 582 127 l 2,46,47
 604 128 604 128 614 153 c 1,32,-1
EndSplineSet
EndChar

StartChar: h
Encoding: 104 104 72
Width: 896
VWidth: 2175
GlyphClass: 2
Flags: W
HStem: 767 130<445.312 730.793>
VStem: 754 128<604.222 744.309>
DStem2: 61.4033 0 194.023 0 0.258819 0.965926<22.4945 839.945 974.881 1335.98> 574.225 0 706.336 0 0.258819 0.965926<22.2817 710.454>
LayerCount: 2
Fore
SplineSet
72 42 m 2,0,-1
 395 1245 l 2,1,2
 405 1279 405 1279 440 1279 c 2,3,-1
 493 1279 l 2,4,5
 510 1279 510 1279 519.5 1267 c 128,-1,6
 529 1255 529 1255 525 1236 c 2,7,-1
 440 918 l 2,8,9
 434 897 434 897 457 897 c 2,10,-1
 671 897 l 2,11,12
 757 897 757 897 819.5 836 c 128,-1,13
 882 775 882 775 882 686 c 0,14,15
 882 651 882 651 873 622 c 2,16,-1
 716 34 l 2,17,18
 706 0 706 0 669 0 c 2,19,-1
 618 0 l 2,20,21
 601 0 601 0 590.5 12 c 128,-1,22
 580 24 580 24 584 42 c 2,23,-1
 750 656 l 2,24,25
 754 667 754 667 754 688 c 0,26,27
 754 723 754 723 731.5 745 c 128,-1,28
 709 767 709 767 671 767 c 2,29,-1
 425 767 l 2,30,31
 400 767 400 767 393 741 c 2,32,-1
 204 34 l 2,33,34
 191 0 191 0 157 0 c 2,35,-1
 106 0 l 2,36,37
 89 0 89 0 78.5 12 c 128,-1,38
 68 24 68 24 72 42 c 2,0,-1
EndSplineSet
EndChar

StartChar: i
Encoding: 105 105 73
Width: 384
VWidth: 2175
GlyphClass: 2
Flags: W
HStem: 1151 128<392.359 514.635>
VStem: 72 453
DStem2: 62.5637 0 194.707 0 0.258819 0.965926<22.1941 940.611 1213.9 1336.11>
LayerCount: 2
Fore
SplineSet
338 897 m 2,0,-1
 389 897 l 2,1,2
 405 897 405 897 416 882.5 c 128,-1,3
 427 868 427 868 423 852 c 2,4,-1
 204 34 l 2,5,6
 191 0 191 0 157 0 c 2,7,-1
 106 0 l 2,8,9
 89 0 89 0 78.5 12 c 128,-1,10
 68 24 68 24 72 42 c 2,11,-1
 293 860 l 2,12,13
 303 897 303 897 338 897 c 2,0,-1
467 1151 m 2,14,-1
 414 1151 l 2,15,16
 399 1151 399 1151 389 1164 c 128,-1,17
 379 1177 379 1177 382 1194 c 2,18,-1
 395 1245 l 2,19,20
 405 1279 405 1279 440 1279 c 2,21,-1
 493 1279 l 2,22,23
 510 1279 510 1279 519.5 1267 c 128,-1,24
 529 1255 529 1255 525 1236 c 2,25,-1
 512 1185 l 2,26,27
 502 1151 502 1151 467 1151 c 2,14,-1
EndSplineSet
EndChar

StartChar: j
Encoding: 106 106 74
Width: 575
VWidth: 2175
GlyphClass: 2
Flags: W
HStem: -382 127<-78.4893 154.113> 1151 128<585.156 706.047>
DStem2: 151.207 -382 281.692 -382 0.258819 0.965926<161.992 1335.99 1609.02 1731.57>
LayerCount: 2
Fore
SplineSet
614 852 m 2,0,-1
 346 -142 l 2,1,2
 319 -237 319 -237 233 -309.5 c 128,-1,3
 147 -382 147 -382 42 -382 c 2,4,-1
 -57 -382 l 2,5,6
 -71 -382 -71 -382 -82 -368 c 128,-1,7
 -93 -354 -93 -354 -89 -340 c 2,8,-1
 -76 -289 l 2,9,10
 -66 -255 -66 -255 -32 -255 c 2,11,-1
 42 -255 l 2,12,13
 103 -255 103 -255 155.5 -210 c 128,-1,14
 208 -165 208 -165 223 -108 c 2,15,-1
 484 860 l 2,16,17
 494 896 494 896 529 897 c 2,18,-1
 582 897 l 2,19,20
 599 897 599 897 608.5 883.5 c 128,-1,21
 618 870 618 870 614 852 c 2,0,-1
659 1151 m 2,22,-1
 608 1151 l 2,23,24
 591 1151 591 1151 580 1163.5 c 128,-1,25
 569 1176 569 1176 574 1194 c 2,26,-1
 588 1245 l 2,27,28
 598 1279 598 1279 633 1279 c 2,29,-1
 684 1279 l 2,30,31
 701 1279 701 1279 711.5 1267 c 128,-1,32
 722 1255 722 1255 718 1236 c 2,33,-1
 703 1185 l 2,34,35
 694 1151 694 1151 659 1151 c 2,22,-1
EndSplineSet
EndChar

StartChar: k
Encoding: 107 107 75
Width: 896
VWidth: 2175
GlyphClass: 2
Flags: W
DStem2: 60.7461 0 194.642 0 0.258819 0.965926<22.7269 453.291 634.772 1338.04> 372 578 537 546 0.785644 0.618679<73.7282 572.332> 527 508 421 425 0.345988 -0.938239<33.4291 510.633>
LayerCount: 2
Fore
SplineSet
525 1236 m 2,0,-1
 353 591 l 2,1,2
 351 584 351 584 357.5 577.5 c 128,-1,3
 364 571 364 571 372 578 c 2,4,-1
 765 886 l 2,5,6
 779 897 779 897 792 897 c 2,7,-1
 886 897 l 2,8,9
 908 897 908 897 917 873.5 c 128,-1,10
 926 850 926 850 907 835 c 2,11,-1
 537 546 l 2,12,13
 516 529 516 529 527 508 c 2,14,-1
 697 47 l 2,15,16
 703 31 703 31 692 15.5 c 128,-1,17
 681 0 681 0 665 0 c 2,18,-1
 610 0 l 2,19,20
 577 0 577 0 567 32 c 2,21,-1
 421 425 l 2,22,23
 413 445 413 445 395 431 c 2,24,-1
 300 357 l 2,25,26
 288 345 288 345 283 331 c 2,27,-1
 204 36 l 2,28,29
 191 0 191 0 157 0 c 2,30,-1
 106 0 l 2,31,32
 91 0 91 0 79.5 14.5 c 128,-1,33
 68 29 68 29 72 42 c 2,34,-1
 395 1245 l 2,35,36
 405 1281 405 1281 440 1281 c 2,37,-1
 493 1281 l 2,38,39
 510 1281 510 1281 519.5 1267.5 c 128,-1,40
 529 1254 529 1254 525 1236 c 2,0,-1
EndSplineSet
EndChar

StartChar: l
Encoding: 108 108 76
Width: 448
VWidth: 2175
GlyphClass: 2
Flags: W
HStem: 0 127<238.906 331.635>
VStem: 110 128<127.487 323.242>
DStem2: 61.2666 0 192.841 0 0.258819 0.965926<199.655 1336.01>
LayerCount: 2
Fore
SplineSet
440 1279 m 2,0,-1
 493 1279 l 2,1,2
 510 1279 510 1279 519.5 1267 c 128,-1,3
 529 1255 529 1255 525 1236 c 2,4,-1
 240 176 l 2,5,6
 238 170 238 170 238 159 c 0,7,8
 238 127 238 127 272 127 c 2,9,-1
 310 127 l 2,10,11
 327 127 327 127 336.5 115 c 128,-1,12
 346 103 346 103 342 85 c 2,13,-1
 329 34 l 2,14,15
 319 0 319 0 285 0 c 2,16,-1
 272 0 l 2,17,18
 203 0 203 0 156.5 45 c 128,-1,19
 110 90 110 90 110 159 c 0,20,21
 110 182 110 182 117 208 c 2,22,-1
 395 1245 l 2,23,24
 405 1279 405 1279 440 1279 c 2,0,-1
EndSplineSet
EndChar

StartChar: m
Encoding: 109 109 77
Width: 1151
VWidth: 2175
GlyphClass: 2
Flags: W
HStem: 767 130<390.047 640.094 775 986.824>
VStem: 841 130<12.8917 87.6915> 1009 130<603.605 746.371>
DStem2: 60.7461 0 194.89 0 0.258819 0.965926<22.8499 840.091> 446.11 0 576.89 0 0.258819 0.965926<21.9307 782.426>
LayerCount: 2
Fore
SplineSet
338 897 m 2,0,-1
 926 897 l 2,1,2
 1014 897 1014 897 1076.5 839 c 128,-1,3
 1139 781 1139 781 1139 690 c 0,4,5
 1139 665 1139 665 1128 622 c 2,6,-1
 971 34 l 2,7,8
 958 0 958 0 926 0 c 2,9,-1
 873 0 l 2,10,11
 858 0 858 0 848 12.5 c 128,-1,12
 838 25 838 25 841 42 c 2,13,-1
 1005 656 l 2,14,15
 1009 669 1009 669 1009 690 c 0,16,17
 1009 727 1009 727 987.5 747 c 128,-1,18
 966 767 966 767 926 767 c 2,19,-1
 809 767 l 2,20,21
 784 767 784 767 778 741 c 2,22,-1
 586 34 l 2,23,24
 576 0 576 0 542 0 c 2,25,-1
 491 0 l 2,26,27
 474 0 474 0 463.5 12 c 128,-1,28
 453 24 453 24 457 42 c 2,29,-1
 646 746 l 2,30,31
 652 767 652 767 629 767 c 2,32,-1
 425 767 l 2,33,34
 400 767 400 767 393 741 c 2,35,-1
 204 34 l 2,36,37
 191 0 191 0 157 0 c 2,38,-1
 106 0 l 2,39,40
 89 0 89 0 78.5 12 c 128,-1,41
 68 24 68 24 72 42 c 2,42,-1
 293 860 l 2,43,44
 303 897 303 897 338 897 c 2,0,-1
EndSplineSet
EndChar

StartChar: n
Encoding: 110 110 78
Width: 896
VWidth: 2175
GlyphClass: 2
Flags: W
HStem: 767 130<390.047 731.824>
VStem: 754 128<603.605 744.309>
DStem2: 62.7461 0 194.89 0 0.258819 0.965926<22.3403 840.075> 574.225 0 706.336 0 0.258819 0.965926<22.3032 708.879>
LayerCount: 2
Fore
SplineSet
338 897 m 2,0,-1
 671 897 l 2,1,2
 757 897 757 897 819.5 838 c 128,-1,3
 882 779 882 779 882 688 c 0,4,5
 882 653 882 653 873 622 c 2,6,-1
 716 34 l 2,7,8
 703 0 703 0 671 0 c 2,9,-1
 618 0 l 2,10,11
 601 0 601 0 591.5 12 c 128,-1,12
 582 24 582 24 586 42 c 2,13,-1
 750 656 l 2,14,15
 754 677 754 677 754 686 c 0,16,17
 754 723 754 723 732.5 745 c 128,-1,18
 711 767 711 767 671 767 c 2,19,-1
 427 767 l 2,20,21
 399 767 399 767 393 744 c 2,22,-1
 204 34 l 2,23,24
 191 0 191 0 159 0 c 2,25,-1
 106 0 l 2,26,27
 89 0 89 0 79.5 12 c 128,-1,28
 70 24 70 24 74 42 c 2,29,-1
 293 860 l 2,30,31
 303 897 303 897 338 897 c 2,0,-1
EndSplineSet
EndChar

StartChar: o
Encoding: 111 111 79
Width: 896
VWidth: 2175
GlyphClass: 2
Flags: W
HStem: 0 127<285.303 556.062> 767 130<447.639 737.391>
VStem: 127 128<149.94 390.609> 752 130<495.328 744.904>
DStem2: 63.1178 0 194.692 0 0.258819 0.965926<261.231 783.821> 574.225 0 706.692 0 0.258819 0.965926<180.85 700.369>
LayerCount: 2
Fore
SplineSet
648 272 m 2,0,-1
 750 656 l 2,1,2
 752 660 752 660 752 678 c 0,3,4
 752 723 752 723 708 745 c 128,-1,5
 664 767 664 767 608 767 c 0,6,7
 526 767 526 767 451.5 725 c 128,-1,8
 377 683 377 683 361 622 c 2,9,-1
 259 240 l 2,10,11
 258 236 258 236 257 230.5 c 128,-1,12
 256 225 256 225 255.5 222.5 c 128,-1,13
 255 220 255 220 255 219 c 0,14,15
 255 173 255 173 298 150 c 128,-1,16
 341 127 341 127 402 127 c 0,17,18
 481 127 481 127 556.5 171 c 128,-1,19
 632 215 632 215 648 272 c 2,0,-1
873 622 m 2,20,-1
 771 240 l 2,21,22
 742 140 742 140 635 70 c 128,-1,23
 528 0 528 0 402 0 c 0,24,25
 286 0 286 0 206.5 59 c 128,-1,26
 127 118 127 118 127 219 c 0,27,28
 127 250 127 250 136 272 c 2,29,-1
 238 656 l 2,30,31
 266 756 266 756 372.5 826.5 c 128,-1,32
 479 897 479 897 608 897 c 0,33,34
 676 897 676 897 737.5 872.5 c 128,-1,35
 799 848 799 848 840.5 796.5 c 128,-1,36
 882 745 882 745 882 678 c 0,37,38
 881 656 881 656 873 622 c 2,20,-1
EndSplineSet
EndChar

StartChar: p
Encoding: 112 112 80
Width: 896
VWidth: 2175
GlyphClass: 2
Flags: W
HStem: 0 127<236.969 574.129> 767 130<386.031 736.03>
DStem2: -43.2539 -382 89.719 -382 0.258819 0.965926<22.5728 441.794 573.355 1235.98> 468.761 -382 602.336 -382 0.258819 0.965926<556.968 1140.82>
LayerCount: 2
Fore
SplineSet
249 127 m 2,0,-1
 463 127 l 2,1,2
 518 127 518 127 574 170 c 0,3,4
 631 215 631 215 644 272 c 2,5,-1
 748 656 l 2,6,7
 762 713 762 713 737 737 c 0,8,9
 706 767 706 767 669 767 c 2,10,-1
 425 767 l 2,11,12
 397 767 397 767 391 744 c 2,13,-1
 232 149 l 2,14,15
 226 127 226 127 249 127 c 2,0,-1
185 -23 m 2,16,-1
 98 -346 l 2,17,18
 91 -382 91 -382 53 -382 c 2,19,-1
 2 -382 l 2,20,21
 -15 -382 -15 -382 -25.5 -369.5 c 128,-1,22
 -36 -357 -36 -357 -32 -340 c 2,23,-1
 291 860 l 2,24,25
 298 894 298 894 336 897 c 2,26,-1
 669 897 l 2,27,28
 775 897 775 897 839 814 c 0,29,30
 879 761 879 761 880 690 c 0,31,32
 880 654 880 654 871 622 c 2,33,-1
 769 240 l 2,34,35
 739 139 739 139 654 70 c 0,36,37
 566 0 566 0 463 0 c 2,38,-1
 219 0 l 2,39,40
 191 0 191 0 185 -23 c 2,16,-1
EndSplineSet
EndChar

StartChar: q
Encoding: 113 113 81
Width: 896
VWidth: 2175
GlyphClass: 2
Flags: W
HStem: 0 127<277.692 567.089> 767 130<428.596 768.031>
VStem: 125 130<148.66 291.664>
DStem2: -39.2388 -382 92.3356 -382 0.258819 0.965926<642.879 1196> 469.734 -382 602.354 -382 0.258819 0.965926<22.5582 384.218 515.779 1177.53>
LayerCount: 2
Fore
SplineSet
544 897 m 2,0,-1
 903 897 l 2,1,2
 918 897 918 897 928.5 882.5 c 128,-1,3
 939 868 939 868 935 852 c 2,4,-1
 612 -346 l 2,5,6
 602 -382 602 -382 567 -382 c 2,7,-1
 516 -382 l 2,8,9
 499 -382 499 -382 488.5 -370 c 128,-1,10
 478 -358 478 -358 482 -340 c 2,11,-1
 567 -19 l 2,12,13
 570 0 570 0 552 0 c 2,14,-1
 338 0 l 2,15,16
 249 0 249 0 187 57.5 c 128,-1,17
 125 115 125 115 125 204 c 0,18,19
 125 233 125 233 136 272 c 2,20,-1
 238 656 l 2,21,22
 261 748 261 748 350.5 822.5 c 128,-1,23
 440 897 440 897 544 897 c 2,0,-1
338 127 m 2,24,-1
 582 127 l 2,25,26
 611 127 611 127 614 153 c 2,27,-1
 773 746 l 2,28,29
 779 767 779 767 758 767 c 2,30,-1
 544 767 l 2,31,32
 481 767 481 767 428 722.5 c 128,-1,33
 375 678 375 678 361 622 c 2,34,-1
 259 240 l 2,35,36
 255 227 255 227 255 204 c 0,37,38
 255 169 255 169 277 148 c 128,-1,39
 299 127 299 127 338 127 c 2,24,-1
EndSplineSet
EndChar

StartChar: r
Encoding: 114 114 82
Width: 766
VWidth: 2175
GlyphClass: 2
Flags: W
HStem: 767 130<388.047 600.763>
VStem: 625 127<639 745.856>
DStem2: 60.7461 0 192.89 0 0.258819 0.965926<22.3403 839.872>
LayerCount: 2
Fore
SplineSet
336 897 m 2,0,-1
 542 897 l 2,1,2
 628 897 628 897 690 838.5 c 128,-1,3
 752 780 752 780 752 690 c 2,4,-1
 752 671 l 2,5,6
 752 639 752 639 718 639 c 2,7,-1
 656 639 l 2,8,9
 624 639 624 639 625 678 c 2,10,-1
 625 690 l 2,11,12
 625 726 625 726 601.5 746.5 c 128,-1,13
 578 767 578 767 542 767 c 2,14,-1
 425 767 l 2,15,16
 397 767 397 767 391 741 c 2,17,-1
 202 34 l 2,18,19
 189 0 189 0 157 0 c 2,20,-1
 104 0 l 2,21,22
 86 0 86 0 77 11.5 c 128,-1,23
 68 23 68 23 72 42 c 2,24,-1
 291 860 l 2,25,26
 301 897 301 897 336 897 c 2,0,-1
EndSplineSet
EndChar

StartChar: s
Encoding: 115 115 83
Width: 896
VWidth: 2175
GlyphClass: 2
Flags: W
HStem: 0 127<215.68 591.49> 767 130<410.563 794.309>
VStem: 240 132<600.686 725.396> 633 130<170.905 294.049>
DStem2: 438 582 359 480 0.777941 -0.628337<-100.475 370.94>
LayerCount: 2
Fore
SplineSet
888 769 m 1,0,-1
 850 722 l 2,1,2
 831 700 831 700 805 716 c 0,3,4
 725 767 725 767 605 767 c 0,5,6
 569 767 569 767 531 761 c 128,-1,7
 493 755 493 755 456 743.5 c 128,-1,8
 419 732 419 732 395.5 710 c 128,-1,9
 372 688 372 688 372 661 c 0,10,11
 372 636 372 636 438 582 c 2,12,-1
 646 414 l 2,13,14
 763 316 763 316 763 244 c 0,15,16
 763 129 763 129 655.5 64.5 c 128,-1,17
 548 0 548 0 399 0 c 0,18,19
 205 0 205 0 123 79 c 0,20,21
 106 96 106 96 106 108 c 0,22,23
 106 119 106 119 115 127 c 2,24,-1
 153 174 l 2,25,26
 172 196 172 196 200 181 c 0,27,28
 279 128 279 128 399 127 c 0,29,30
 450 127 450 127 501 137.5 c 128,-1,31
 552 148 552 148 592.5 172.5 c 128,-1,32
 633 197 633 197 633 232 c 0,33,34
 630 262 630 262 567 314 c 2,35,-1
 359 480 l 2,36,37
 240 577 240 577 240 646 c 0,38,39
 241 726 241 726 292.5 783.5 c 128,-1,40
 344 841 344 841 425.5 869 c 128,-1,41
 507 897 507 897 605 897 c 0,42,43
 759 897 759 897 882 818 c 0,44,45
 897 807 897 807 897 790 c 0,46,47
 896 777 896 777 888 769 c 1,0,-1
EndSplineSet
EndChar

StartChar: t
Encoding: 116 116 84
Width: 766
VWidth: 2175
GlyphClass: 2
Flags: W
HStem: 767 130<293.309 385.094 572.438 792.578>
VStem: 202 603
DStem2: 191.11 0 321.89 0 0.258819 0.965926<22.1171 782.134 974.173 1336.11>
LayerCount: 2
Fore
SplineSet
584 897 m 2,0,-1
 771 897 l 2,1,2
 786 897 786 897 797.5 882.5 c 128,-1,3
 809 868 809 868 805 852 c 2,4,-1
 790 803 l 2,5,6
 780 767 780 767 746 767 c 2,7,-1
 554 767 l 2,8,9
 526 767 526 767 520 741 c 2,10,-1
 331 34 l 2,11,12
 318 0 318 0 287 0 c 2,13,-1
 234 0 l 2,14,15
 219 0 219 0 208.5 12.5 c 128,-1,16
 198 25 198 25 202 42 c 2,17,-1
 391 746 l 2,18,19
 397 767 397 767 374 767 c 2,20,-1
 314 767 l 2,21,22
 299 767 299 767 288.5 779.5 c 128,-1,23
 278 792 278 792 283 809 c 2,24,-1
 295 860 l 2,25,26
 305 896 305 896 340 897 c 2,27,-1
 404 897 l 2,28,29
 428 897 428 897 438 920 c 2,30,-1
 523 1245 l 2,31,32
 533 1279 533 1279 569 1279 c 2,33,-1
 620 1279 l 2,34,35
 637 1279 637 1279 648 1266 c 128,-1,36
 659 1253 659 1253 654 1236 c 2,37,-1
 567 918 l 2,38,39
 561 897 561 897 584 897 c 2,0,-1
EndSplineSet
EndChar

StartChar: u
Encoding: 117 117 85
Width: 896
VWidth: 2175
GlyphClass: 2
Flags: W
HStem: 0 127<258.116 616.984>
VStem: 125 128<133.267 291.61>
DStem2: 63.1178 0 194.692 0 0.258819 0.965926<242.875 940.581> 573.004 0 706.89 0 0.258819 0.965926<120.067 940.405>
LayerCount: 2
Fore
SplineSet
850 897 m 2,0,-1
 903 897 l 2,1,2
 918 897 918 897 928.5 882.5 c 128,-1,3
 939 868 939 868 935 852 c 2,4,-1
 716 34 l 2,5,6
 703 0 703 0 671 0 c 2,7,-1
 338 0 l 2,8,9
 249 0 249 0 187 57 c 128,-1,10
 125 114 125 114 125 202 c 0,11,12
 125 233 125 233 136 272 c 2,13,-1
 293 860 l 2,14,15
 303 896 303 896 338 897 c 2,16,-1
 391 897 l 2,17,18
 406 897 406 897 416.5 882.5 c 128,-1,19
 427 868 427 868 423 852 c 2,20,-1
 259 240 l 2,21,22
 253 218 253 218 253 200 c 0,23,24
 253 128 253 128 338 127 c 2,25,-1
 582 127 l 2,26,27
 611 127 611 127 614 153 c 2,28,-1
 805 860 l 2,29,30
 815 897 815 897 850 897 c 2,0,-1
EndSplineSet
EndChar

StartChar: v
Encoding: 118 118 86
Width: 896
VWidth: 2175
GlyphClass: 2
Flags: W
VStem: 295 128<321.748 897> 317 121<263.004 572.252>
DStem2: 799 871 931 846 0.4887 0.872452<-702.334 54.8541>
LayerCount: 2
Fore
SplineSet
329 897 m 2,0,-1
 389 897 l 2,1,2
 423 897 423 897 423 863 c 2,3,-1
 438 278 l 2,4,5
 438 263 438 263 447 263 c 128,-1,6
 456 263 456 263 463 274 c 2,7,-1
 799 871 l 2,8,9
 815 896 815 896 839 897 c 2,10,-1
 901 897 l 2,11,12
 919 897 919 897 930 881 c 128,-1,13
 941 865 941 865 931 846 c 2,14,-1
 470 23 l 2,15,16
 456 0 456 0 427 0 c 2,17,-1
 351 0 l 2,18,19
 317 0 317 0 317 34 c 2,20,-1
 295 860 l 2,21,22
 295 897 295 897 329 897 c 2,0,-1
EndSplineSet
EndChar

StartChar: w
Encoding: 119 119 87
Width: 1151
VWidth: 2175
GlyphClass: 2
Flags: W
VStem: 257 140<267.518 347.997> 295 128<551.003 897>
DStem2: 1058 869 1188 848 0.437131 0.899398<-683.174 52.7371>
LayerCount: 2
Fore
SplineSet
423 860 m 1,0,-1
 397 280 l 2,1,2
 397 268 397 268 406.5 267.5 c 128,-1,3
 416 267 416 267 421 274 c 2,4,-1
 580 523 l 2,5,6
 592 544 592 544 620 544 c 2,7,-1
 680 544 l 2,8,9
 711 544 711 544 714 514 c 2,10,-1
 739 272 l 2,11,12
 740 261 740 261 749 259.5 c 128,-1,13
 758 258 758 258 763 268 c 2,14,-1
 1058 869 l 2,15,16
 1071 897 1071 897 1098 897 c 2,17,-1
 1158 897 l 2,18,19
 1175 897 1175 897 1185.5 882 c 128,-1,20
 1196 867 1196 867 1188 848 c 2,21,-1
 788 25 l 2,22,23
 775 0 775 0 746 0 c 2,24,-1
 671 0 l 2,25,26
 640 0 640 0 637 30 c 2,27,-1
 610 289 l 2,28,29
 609 300 609 300 600 302 c 128,-1,30
 591 304 591 304 586 295 c 2,31,-1
 410 21 l 2,32,33
 398 0 398 0 370 0 c 2,34,-1
 291 0 l 2,35,36
 278 0 278 0 267.5 11 c 128,-1,37
 257 22 257 22 257 36 c 2,38,-1
 295 863 l 2,39,40
 298 897 298 897 329 897 c 2,41,-1
 389 897 l 2,42,43
 423 896 423 896 423 860 c 1,0,-1
EndSplineSet
EndChar

StartChar: x
Encoding: 120 120 88
Width: 896
VWidth: 2175
GlyphClass: 2
Flags: W
DStem2: 79 55 215 17 0.655453 0.755236<-0.75132 452.741 698.416 1153.27> 523 595 427 480 0.313822 -0.949482<-332.851 12.3597 268.8 599.349>
LayerCount: 2
Fore
SplineSet
336 897 m 2,0,-1
 397 897 l 2,1,2
 419 897 419 897 429 873 c 2,3,-1
 523 595 l 2,4,5
 526 587 526 587 529.5 584 c 128,-1,6
 533 581 533 581 536 583 c 128,-1,7
 539 585 539 585 544 591 c 2,8,-1
 795 880 l 2,9,10
 809 897 809 897 829 897 c 2,11,-1
 903 897 l 2,12,13
 925 897 925 897 934 876.5 c 128,-1,14
 943 856 943 856 928 839 c 2,15,-1
 588 448 l 2,16,17
 574 431 574 431 582 414 c 2,18,-1
 705 45 l 2,19,20
 709 28 709 28 699 14 c 128,-1,21
 689 0 689 0 673 0 c 2,22,-1
 610 0 l 2,23,24
 585 0 585 0 578 23 c 2,25,-1
 487 300 l 2,26,27
 477 321 477 321 463 304 c 2,28,-1
 215 17 l 2,29,30
 198 0 198 0 178 0 c 2,31,-1
 106 0 l 2,32,33
 86 0 86 0 75 18 c 128,-1,34
 64 36 64 36 79 55 c 2,35,-1
 419 448 l 2,36,37
 431 463 431 463 427 480 c 2,38,-1
 304 852 l 2,39,40
 300 869 300 869 310 883 c 128,-1,41
 320 897 320 897 336 897 c 2,0,-1
EndSplineSet
EndChar

StartChar: y
Encoding: 121 121 89
Width: 896
VWidth: 2175
GlyphClass: 2
Flags: W
HStem: -382 129<-17.9238 101.466>
DStem2: 121 -185 229 -253 0.534428 0.845214<-107.079 511.055 701.088 1304.57> 472 412 365 219 0.111968 -0.993712<-489.774 0>
LayerCount: 2
Fore
SplineSet
327 894 m 2,0,-1
 387 894 l 2,1,2
 418 894 418 894 421 865 c 2,3,-1
 472 412 l 2,4,5
 475 379 475 379 495 408 c 2,6,-1
 790 873 l 2,7,8
 802 894 802 894 829 894 c 2,9,-1
 892 894 l 2,10,11
 910 894 910 894 922 877.5 c 128,-1,12
 934 861 934 861 922 843 c 2,13,-1
 229 -253 l 2,14,15
 149 -383 149 -383 8 -382 c 0,16,17
 -11 -382 -11 -382 -22.5 -369.5 c 128,-1,18
 -34 -357 -34 -357 -30 -340 c 2,19,-1
 -15 -287 l 2,20,21
 -5 -256 -5 -256 23 -253 c 0,22,23
 78 -250 78 -250 121 -185 c 2,24,-1
 359 189 l 2,25,26
 369 204 369 204 365 219 c 2,27,-1
 293 858 l 2,28,29
 290 894 290 894 327 894 c 2,0,-1
EndSplineSet
EndChar

StartChar: z
Encoding: 122 122 90
Width: 896
VWidth: 2175
GlyphClass: 2
Flags: W
HStem: 0 127<288.095 713.589> 767 127<291.719 719.905>
DStem2: 113 151 291 149 0.713553 0.700601<113.772 860.066>
LayerCount: 2
Fore
SplineSet
340 894 m 6,0,-1
 899 894 l 2,1,2
 916 894 916 894 926.5 882 c 128,-1,3
 937 870 937 870 933 852 c 2,4,-1
 909 765 l 2,5,6
 906 753 906 753 897 744 c 2,7,-1
 291 149 l 2,8,9
 285 143 285 143 288 135 c 128,-1,10
 291 127 291 127 300 127 c 2,11,-1
 695 127 l 2,12,13
 710 127 710 127 720.5 114 c 128,-1,14
 731 101 731 101 727 85 c 2,15,-1
 714 34 l 2,16,17
 701 0 701 0 669 0 c 2,18,-1
 108 0 l 2,19,20
 91 0 91 0 81.5 12 c 128,-1,21
 72 24 72 24 76 42 c 2,22,-1
 100 130 l 2,23,24
 103 142 103 142 113 151 c 2,25,-1
 716 746 l 2,26,27
 723 754 723 754 720 760.5 c 128,-1,28
 717 767 717 767 707 767 c 2,29,-1
 314 767 l 2,30,31
 299 767 299 767 287.5 781 c 128,-1,32
 276 795 276 795 280 812 c 2,33,-1
 295 860 l 2,34,35
 305 894 305 894 340 894 c 6,0,-1
EndSplineSet
EndChar

StartChar: braceleft
Encoding: 123 123 91
Width: 703
VWidth: 2175
GlyphClass: 2
Flags: W
HStem: -123 123<414.504 488.68> 1277 132<739.45 867.281>
DStem2: 221.503 -123 353.396 -123 0.258819 0.965926<190.918 702.75 873.27 1475.81>
LayerCount: 2
Fore
SplineSet
839 1409 m 2,0,-1
 846 1409 l 2,1,2
 863 1409 863 1409 872.5 1395.5 c 128,-1,3
 882 1382 882 1382 877 1364 c 2,4,-1
 865 1311 l 2,5,6
 853 1277 853 1277 826 1277 c 0,7,8
 784 1277 784 1277 745.5 1240.5 c 128,-1,9
 707 1204 707 1204 699 1166 c 2,10,-1
 605 816 l 2,11,12
 576 712 576 712 489 637 c 0,13,14
 479 627 479 627 482 620 c 0,15,16
 504 582 504 582 509.5 530.5 c 128,-1,17
 515 479 515 479 501 431 c 2,18,-1
 408 79 l 2,19,20
 398 45 398 45 414 22.5 c 128,-1,21
 430 0 430 0 463 0 c 2,22,-1
 467 0 l 2,23,24
 486 0 486 0 496 -11.5 c 128,-1,25
 506 -23 506 -23 501 -40 c 2,26,-1
 489 -89 l 2,27,28
 479 -120 479 -120 438 -123 c 0,29,30
 359 -123 359 -123 310 -48 c 128,-1,31
 261 27 261 27 285 113 c 2,32,-1
 378 465 l 2,33,34
 389 506 389 506 379.5 537 c 128,-1,35
 370 568 370 568 342 580 c 2,36,-1
 255 610 l 2,37,38
 234 616 234 616 234 642 c 0,39,40
 234 670 234 670 257 676 c 2,41,-1
 346 701 l 2,42,43
 391 714 391 714 430.5 757 c 128,-1,44
 470 800 470 800 482 848 c 2,45,-1
 576 1200 l 2,46,47
 596 1281 596 1281 672.5 1345 c 128,-1,48
 749 1409 749 1409 839 1409 c 2,0,-1
EndSplineSet
EndChar

StartChar: bar
Encoding: 124 124 92
Width: 509
VWidth: 2175
GlyphClass: 2
Flags: W
VStem: 381 128<-385 1663>
LayerCount: 2
Fore
SplineSet
381 -351 m 2,0,-1
 381 1629 l 2,1,2
 381 1663 381 1663 415 1663 c 2,3,-1
 475 1663 l 2,4,5
 509 1663 509 1663 509 1629 c 6,6,-1
 509 -351 l 6,7,8
 509 -385 509 -385 475 -385 c 2,9,-1
 415 -385 l 2,10,11
 381 -385 381 -385 381 -351 c 2,0,-1
EndSplineSet
EndChar

StartChar: braceright
Encoding: 125 125 93
Width: 703
VWidth: 2175
GlyphClass: 2
Flags: W
HStem: -125 125<51.3438 179.593> 1279 127<431.32 512.879>
VStem: 42 644
DStem2: 157.228 -125 289.338 -125 0.258819 0.965926<138.438 742.421 911.133 1436.87>
LayerCount: 2
Fore
SplineSet
93 0 m 3,0,1
 133 0 133 0 171.5 36.5 c 128,-1,2
 210 73 210 73 221 113 c 2,3,-1
 314 465 l 2,4,5
 327 514 327 514 359 562 c 128,-1,6
 391 610 391 610 431 644 c 0,7,8
 444 654 444 654 436 665 c 0,9,10
 412 689 412 689 407.5 746 c 128,-1,11
 403 803 403 803 416 848 c 2,12,-1
 512 1200 l 2,13,14
 529 1279 529 1279 457 1279 c 2,15,-1
 450 1279 l 2,16,17
 436 1279 436 1279 425 1293.5 c 128,-1,18
 414 1308 414 1308 419 1321 c 2,19,-1
 431 1372 l 2,20,21
 441 1406 441 1406 482 1406 c 0,22,23
 568 1406 568 1406 615 1334 c 128,-1,24
 662 1262 662 1262 635 1166 c 2,25,-1
 542 816 l 2,26,27
 530 775 530 775 539.5 742 c 128,-1,28
 549 709 549 709 578 699 c 2,29,-1
 663 669 l 2,30,31
 686 659 686 659 686 635 c 0,32,33
 686 612 686 612 663 605 c 2,34,-1
 574 578 l 2,35,36
 526 564 526 564 488 522.5 c 128,-1,37
 450 481 450 481 438 431 c 2,38,-1
 344 79 l 2,39,40
 321 -4 321 -4 246 -64.5 c 128,-1,41
 171 -125 171 -125 79 -125 c 2,42,-1
 74 -125 l 2,43,44
 57 -125 57 -125 47.5 -113 c 128,-1,45
 38 -101 38 -101 42 -83 c 2,46,-1
 55 -30 l 2,47,48
 64 0 64 0 93 0 c 3,0,1
EndSplineSet
EndChar

StartChar: asciitilde
Encoding: 126 126 94
Width: 1024
VWidth: 2175
GlyphClass: 2
Flags: W
HStem: 319 129<620.198 849.845> 448 128<296.61 521.643>
LayerCount: 2
Fore
SplineSet
905 495 m 2,0,-1
 945 450 l 2,1,2
 953 442 953 442 954 431 c 0,3,4
 954 416 954 416 941 404 c 0,5,6
 909 372 909 372 849.5 345.5 c 128,-1,7
 790 319 790 319 729 319 c 0,8,9
 642 319 642 319 531 397 c 0,10,11
 458 448 458 448 416 448 c 0,12,13
 347 448 347 448 283 393 c 0,14,15
 260 373 260 373 236 399 c 2,16,-1
 195 444 l 2,17,18
 187 452 187 452 187 463 c 128,-1,19
 187 474 187 474 200 487 c 0,20,21
 232 521 232 521 289 548.5 c 128,-1,22
 346 576 346 576 412 576 c 0,23,24
 507 576 507 576 620 491 c 0,25,26
 678 449 678 449 718 448 c 0,27,28
 798 448 798 448 860 501 c 0,29,30
 883 520 883 520 905 495 c 2,0,-1
EndSplineSet
EndChar

StartChar: cent
Encoding: 162 162 96
Width: 832
VWidth: 2175
GlyphClass: 2
Flags: W
HStem: 127 128<311.238 378.089 563.031 686.031> 1024 127<498.621 611.969 796.911 926.641>
VStem: 159 128<276.66 419.69>
DStem2: 63.0883 0 194.395 0 0.258819 0.965926<381.026 1066.47> 349.746 0 481.89 0 0.258819 0.965926<22.382 120.912 310.24 1055.32 1231.31 1336.05>
LayerCount: 2
Fore
SplineSet
729 1279 m 2,0,-1
 780 1279 l 2,1,2
 797 1279 797 1279 807.5 1267 c 128,-1,3
 818 1255 818 1255 814 1236 c 2,4,-1
 797 1173 l 2,5,6
 794 1152 794 1152 812 1151 c 2,7,-1
 905 1151 l 2,8,9
 920 1151 920 1151 930.5 1138 c 128,-1,10
 941 1125 941 1125 937 1109 c 2,11,-1
 924 1058 l 2,12,13
 914 1024 914 1024 877 1024 c 2,14,-1
 782 1024 l 2,15,16
 757 1024 757 1024 750 999 c 2,17,-1
 557 276 l 2,18,19
 551 255 551 255 574 255 c 2,20,-1
 665 255 l 2,21,22
 680 255 680 255 690.5 241.5 c 128,-1,23
 701 228 701 228 697 212 c 2,24,-1
 684 164 l 2,25,26
 671 128 671 128 637 127 c 2,27,-1
 542 127 l 2,28,29
 517 127 517 127 510 102 c 2,30,-1
 491 34 l 2,31,32
 481 0 481 0 446 0 c 2,33,-1
 393 0 l 2,34,35
 378 0 378 0 368 12.5 c 128,-1,36
 358 25 358 25 361 42 c 2,37,-1
 378 106 l 2,38,39
 381 127 381 127 363 127 c 0,40,41
 280 127 280 127 219.5 185.5 c 128,-1,42
 159 244 159 244 159 334 c 0,43,44
 159 361 159 361 170 399 c 2,45,-1
 306 911 l 2,46,47
 327 1003 327 1003 417 1077 c 128,-1,48
 507 1151 507 1151 612 1151 c 2,49,-1
 633 1151 l 2,50,51
 655 1151 655 1151 665 1177 c 2,52,-1
 684 1245 l 2,53,54
 691 1279 691 1279 729 1279 c 2,0,-1
425 280 m 1,55,-1
 618 1003 l 2,56,57
 624 1024 624 1024 605 1024 c 0,58,59
 549 1024 549 1024 496.5 979 c 128,-1,60
 444 934 444 934 429 880 c 2,61,-1
 293 368 l 2,62,63
 287 349 287 349 287 334 c 0,64,65
 287 297 287 297 310.5 276 c 128,-1,66
 334 255 334 255 372 255 c 2,67,-1
 391 255 l 2,68,69
 415 255 415 255 425 280 c 1,55,-1
EndSplineSet
EndChar

StartChar: sterling
Encoding: 163 163 97
Width: 1087
VWidth: 2175
GlyphClass: 2
Flags: W
HStem: 0 127<355 747.341> 576 127<239.359 332.141 515.912 741.635> 1151 128<701.042 943.162>
VStem: 971 127<904.38 1125.5>
DStem2: 189.556 0 322.692 0 0.258819 0.965926<177.503 584.36 773.986 1154.25>
LayerCount: 2
Fore
SplineSet
289 703 m 2,0,-1
 353 703 l 2,1,2
 382 703 382 703 385 729 c 2,3,-1
 453 975 l 2,4,5
 485 1094 485 1094 593.5 1186.5 c 128,-1,6
 702 1279 702 1279 837 1279 c 0,7,8
 950 1279 950 1279 1024 1209.5 c 128,-1,9
 1098 1140 1098 1140 1098 1026 c 0,10,11
 1098 993 1098 993 1088 943 c 1,12,-1
 1083 931 l 2,13,14
 1073 897 1073 897 1039 897 c 2,15,-1
 986 897 l 2,16,17
 971 897 971 897 961 909.5 c 128,-1,18
 951 922 951 922 954 939 c 2,19,-1
 965 975 l 2,20,21
 971 1004 971 1004 971 1022 c 0,22,23
 965 1152 965 1152 837 1151 c 0,24,25
 750 1151 750 1151 673.5 1087.5 c 128,-1,26
 597 1024 597 1024 576 943 c 2,27,-1
 516 724 l 2,28,29
 513 703 513 703 533 703 c 2,30,-1
 720 703 l 2,31,32
 737 703 737 703 746.5 691 c 128,-1,33
 756 679 756 679 752 661 c 2,34,-1
 739 610 l 2,35,36
 726 576 726 576 695 576 c 2,37,-1
 504 576 l 2,38,39
 476 576 476 576 470 550 c 2,40,-1
 387 240 l 2,41,42
 374 190 374 190 344 147 c 0,43,44
 332 128 332 128 355 127 c 2,45,-1
 625 127 l 2,46,47
 689 127 689 127 751 172.5 c 128,-1,48
 813 218 813 218 837 276 c 0,49,50
 847 301 847 301 877 295 c 2,51,-1
 937 280 l 2,52,53
 971 270 971 270 958 236 c 0,54,55
 926 144 926 144 830.5 72 c 128,-1,56
 735 0 735 0 625 0 c 2,57,-1
 108 0 l 2,58,59
 91 0 91 0 80.5 12 c 128,-1,60
 70 24 70 24 74 42 c 2,61,-1
 91 102 l 2,62,63
 97 127 97 127 123 134 c 0,64,65
 171 145 171 145 211 185 c 128,-1,66
 251 225 251 225 263 272 c 2,67,-1
 338 554 l 2,68,69
 344 575 344 575 323 576 c 2,70,-1
 263 576 l 2,71,72
 246 576 246 576 235.5 588 c 128,-1,73
 225 600 225 600 229 618 c 2,74,-1
 242 669 l 2,75,76
 252 703 252 703 289 703 c 2,0,-1
EndSplineSet
EndChar

StartChar: currency
Encoding: 164 164 98
Width: 1278
VWidth: 2175
GlyphClass: 2
Flags: W
HStem: 159 130<476.225 822.817> 992 128<671.254 1016.68>
VStem: 253 127<385.591 711.548> 1113 130<562.024 899.335>
DStem2: 104 212 183 113 0.785032 0.619455<-32.4984 244.045 1294.43 1573.34> 455 1147 353 1073 0.59021 -0.80725<-34.8754 158.867 1008.28 1198.77>
LayerCount: 2
Fore
SplineSet
357 251 m 1,0,-1
 183 113 l 2,1,2
 173 105 173 105 158.5 106.5 c 128,-1,3
 144 108 144 108 136 119 c 2,4,-1
 98 166 l 2,5,6
 77 194 77 194 104 212 c 2,7,-1
 280 353 l 2,8,9
 290 359 290 359 285 374 c 0,10,11
 253 444 253 444 253 531 c 3,12,13
 253 750 253 750 436 933 c 0,14,15
 448 945 448 945 438 956 c 2,16,-1
 353 1073 l 2,17,18
 332 1097 332 1097 359 1120 c 2,19,-1
 408 1156 l 2,20,21
 433 1175 433 1175 455 1147 c 2,22,-1
 537 1035 l 2,23,24
 547 1022 547 1022 559 1030 c 0,25,26
 709 1119 709 1119 858 1120 c 3,27,28
 1006 1120 1006 1120 1117 1030 c 0,29,30
 1129 1020 1129 1020 1139 1030 c 2,31,-1
 1313 1166 l 2,32,33
 1337 1187 1337 1187 1360 1160 c 2,34,-1
 1398 1113 l 2,35,36
 1418 1083 1418 1083 1392 1066 c 2,37,-1
 1215 926 l 2,38,39
 1205 916 1205 916 1209 907 c 0,40,41
 1243 829 1243 829 1243 748 c 3,42,43
 1243 529 1243 529 1060 346 c 0,44,45
 1048 334 1048 334 1058 323 c 2,46,-1
 1143 208 l 2,47,48
 1162 175 1162 175 1137 159 c 2,49,-1
 1088 125 l 2,50,51
 1060 104 1060 104 1041 132 c 2,52,-1
 958 244 l 2,53,54
 947 255 947 255 935 249 c 0,55,56
 785 160 785 160 635 159 c 0,57,58
 477 159 477 159 378 249 c 0,59,60
 369 258 369 258 357 251 c 1,0,-1
635 289 m 3,61,62
 786 289 786 289 924 395 c 0,63,64
 1113 539 1113 539 1113 748 c 3,65,66
 1113 843 1113 843 1069 899 c 24,67,68
 995 992 995 992 858 992 c 3,69,70
 708 992 708 992 571 884 c 0,71,72
 380 731 380 731 380 531 c 3,73,74
 380 448 380 448 427 382 c 0,75,76
 495 289 495 289 635 289 c 3,61,62
EndSplineSet
EndChar

StartChar: yen
Encoding: 165 165 99
Width: 1151
VWidth: 2175
GlyphClass: 2
Flags: W
HStem: 321 127<171.926 521.531 702.912 1057.05> 639 128<257.953 588.75 868.541 1140.59>
DStem2: 446.615 0 578.89 0 0.258819 0.965926<22.4396 321.34 509.861 650.536> 716 839 597 790 0.369941 -0.929055<-491.334 11.62> 737 835 869 788 0.681356 0.731952<55.5373 648.056>
LayerCount: 2
Fore
SplineSet
306 767 m 2,0,-1
 582 767 l 2,1,2
 606 767 606 767 597 790 c 2,3,-1
 421 1232 l 2,4,5
 415 1248 415 1248 426 1263.5 c 128,-1,6
 437 1279 437 1279 453 1279 c 2,7,-1
 508 1279 l 2,8,9
 536 1279 536 1279 552 1249 c 1,10,-1
 716 839 l 2,11,12
 724 825 724 825 737 835 c 2,13,-1
 1137 1264 l 2,14,15
 1152 1279 1152 1279 1173 1279 c 2,16,-1
 1247 1279 l 2,17,18
 1269 1279 1269 1279 1278.5 1260 c 128,-1,19
 1288 1241 1288 1241 1273 1222 c 2,20,-1
 869 788 l 2,21,22
 854 767 854 767 877 767 c 2,23,-1
 1122 767 l 2,24,25
 1137 767 1137 767 1147 754 c 128,-1,26
 1157 741 1157 741 1154 724 c 2,27,-1
 1141 673 l 2,28,29
 1128 639 1128 639 1096 639 c 2,30,-1
 775 639 l 2,31,32
 750 639 750 639 744 614 c 2,33,-1
 703 470 l 2,34,35
 700 449 700 449 720 448 c 2,36,-1
 1035 448 l 2,37,38
 1052 448 1052 448 1062.5 436 c 128,-1,39
 1073 424 1073 424 1069 406 c 2,40,-1
 1054 355 l 2,41,42
 1044 321 1044 321 1009 321 c 2,43,-1
 690 321 l 2,44,45
 662 321 662 321 656 295 c 2,46,-1
 588 34 l 2,47,48
 578 0 578 0 542 0 c 2,49,-1
 491 0 l 2,50,51
 474 0 474 0 463.5 12 c 128,-1,52
 453 24 453 24 457 42 c 2,53,-1
 527 300 l 2,54,55
 533 321 533 321 510 321 c 2,56,-1
 193 321 l 2,57,58
 178 321 178 321 168 333.5 c 128,-1,59
 158 346 158 346 161 363 c 2,60,-1
 174 412 l 2,61,62
 184 448 184 448 219 448 c 2,63,-1
 540 448 l 2,64,65
 568 448 568 448 574 474 c 2,66,-1
 612 618 l 2,67,68
 618 639 618 639 595 639 c 2,69,-1
 280 639 l 2,70,71
 263 639 263 639 252.5 651.5 c 128,-1,72
 242 664 242 664 246 682 c 2,73,-1
 261 733 l 2,74,75
 271 767 271 767 306 767 c 2,0,-1
EndSplineSet
EndChar

StartChar: brokenbar
Encoding: 166 166 100
Width: 384
VWidth: 2175
GlyphClass: 2
Flags: W
VStem: -32 555
DStem2: -42.4246 -382 89.719 -382 0.258819 0.965926<22.2373 605.033 1145.57 1731.4>
LayerCount: 2
Fore
SplineSet
147 191 m 2,0,-1
 200 191 l 2,1,2
 215 191 215 191 225 178.5 c 128,-1,3
 235 166 235 166 232 149 c 2,4,-1
 98 -346 l 2,5,6
 88 -382 88 -382 53 -382 c 2,7,-1
 2 -382 l 2,8,9
 -14 -382 -14 -382 -25 -370.5 c 128,-1,10
 -36 -359 -36 -359 -32 -340 c 2,11,-1
 102 157 l 2,12,13
 112 191 112 191 147 191 c 2,0,-1
438 1279 m 2,14,-1
 491 1279 l 2,15,16
 508 1279 508 1279 517.5 1267 c 128,-1,17
 527 1255 527 1255 523 1236 c 2,18,-1
 389 739 l 2,19,20
 379 703 379 703 344 703 c 2,21,-1
 293 703 l 2,22,23
 276 703 276 703 265.5 715.5 c 128,-1,24
 255 728 255 728 259 746 c 2,25,-1
 393 1245 l 2,26,27
 403 1279 403 1279 438 1279 c 2,14,-1
EndSplineSet
EndChar

StartChar: section
Encoding: 167 167 101
Width: 896
VWidth: 2175
GlyphClass: 2
Flags: W
HStem: -125 125<301.092 527.785> 1279 130<711.273 934.61>
VStem: 319 127<602.948 798.687> 484 128<969.551 1179.89> 627 127<101.423 307.078> 790 128<479.968 679.639>
DStem2: 467 629 372 544 0.668485 -0.743726<-55.6618 290.842> 635 994 588 854 0.667215 -0.744865<56.1103 398.361>
LayerCount: 2
Fore
SplineSet
635 994 m 1,0,-1
 867 735 l 2,1,2
 918 676 918 676 918 591 c 3,3,4
 918 511 918 511 868 434 c 128,-1,5
 818 357 818 357 750 319 c 0,6,7
 738 311 738 311 741 297 c 0,8,9
 754 262 754 262 754 210 c 3,10,11
 754 86 754 86 644 -19.5 c 128,-1,12
 534 -125 534 -125 399 -125 c 3,13,14
 285 -125 285 -125 200 -23 c 0,15,16
 190 -9 190 -9 196 5.5 c 128,-1,17
 202 20 202 20 215 25 c 2,18,-1
 272 47 l 2,19,20
 293 55 293 55 312 36 c 0,21,22
 348 0 348 0 399 0 c 3,23,24
 487 0 487 0 557 70.5 c 128,-1,25
 627 141 627 141 627 221 c 3,26,27
 627 257 627 257 603 287 c 2,28,-1
 372 544 l 2,29,30
 319 603 319 603 319 686 c 131,-1,31
 319 769 319 769 368 844 c 128,-1,32
 417 919 417 919 491 962 c 0,33,34
 501 968 501 968 497 982 c 0,35,36
 484 1020 484 1020 484 1075 c 3,37,38
 484 1153 484 1153 535 1230.5 c 128,-1,39
 586 1308 586 1308 669.5 1358.5 c 128,-1,40
 753 1409 753 1409 839 1409 c 3,41,42
 974 1409 974 1409 1039 1304 c 0,43,44
 1046 1289 1046 1289 1041.5 1275 c 128,-1,45
 1037 1261 1037 1261 1024 1256 c 2,46,-1
 967 1232 l 2,47,48
 940 1222 940 1222 928 1243 c 0,49,50
 898 1279 898 1279 839 1279 c 3,51,52
 752 1279 752 1279 682 1209 c 128,-1,53
 612 1139 612 1139 612 1060 c 3,54,55
 612 1017 612 1017 635 994 c 1,0,-1
773 650 m 2,56,-1
 588 854 l 2,57,58
 580 862 580 862 567 858 c 0,59,60
 517 835 517 835 481.5 787 c 128,-1,61
 446 739 446 739 446 686 c 3,62,63
 446 653 446 653 467 629 c 2,64,-1
 650 425 l 2,65,66
 657 418 657 418 671 421 c 0,67,68
 720 442 720 442 755 492 c 128,-1,69
 790 542 790 542 790 597 c 3,70,71
 790 630 790 630 773 650 c 2,56,-1
EndSplineSet
EndChar

StartChar: dieresis
Encoding: 168 168 102
Width: 639
VWidth: 2175
GlyphClass: 2
Flags: W
HStem: 1536 127<498.156 615.047 753.719 871.635>
VStem: 756 126<1548.38 1650.62>
LayerCount: 2
Fore
SplineSet
546 1663 m 2,0,-1
 593 1663 l 2,1,2
 610 1663 610 1663 620.5 1651 c 128,-1,3
 631 1639 631 1639 627 1621 c 2,4,-1
 612 1570 l 2,5,6
 602 1536 602 1536 567 1536 c 2,7,-1
 520 1536 l 2,8,9
 503 1536 503 1536 492.5 1548 c 128,-1,10
 482 1560 482 1560 487 1578 c 2,11,-1
 501 1629 l 2,12,13
 508 1663 508 1663 546 1663 c 2,0,-1
801 1663 m 2,14,-1
 850 1663 l 2,15,16
 867 1663 867 1663 876.5 1651 c 128,-1,17
 886 1639 886 1639 882 1621 c 2,18,-1
 869 1570 l 2,19,20
 859 1536 859 1536 824 1536 c 2,21,-1
 775 1536 l 2,22,23
 758 1536 758 1536 748.5 1548 c 128,-1,24
 739 1560 739 1560 744 1578 c 2,25,-1
 756 1629 l 2,26,27
 766 1663 766 1663 801 1663 c 2,14,-1
EndSplineSet
EndChar

StartChar: copyright
Encoding: 169 169 103
Width: 1536
VWidth: 2175
GlyphClass: 2
Flags: W
HStem: 0 127<525.225 949.433> 255 130<717.763 933.062> 897 127<841.955 1105.44> 1151 128<799.885 1222.78>
VStem: 215 127<303.897 705.164> 586 130<386.562 492.326> 1409 127<573.638 973.589>
DStem2: 468.191 0 600.102 0 0.258819 0.965926<471.183 963.237>
LayerCount: 2
Fore
SplineSet
1005 1279 m 3,0,1
 1157 1279 1157 1279 1276.5 1221.5 c 128,-1,2
 1396 1164 1396 1164 1466 1051.5 c 128,-1,3
 1536 939 1536 939 1536 788 c 0,4,5
 1536 633 1536 633 1466 486.5 c 128,-1,6
 1396 340 1396 340 1283 234.5 c 128,-1,7
 1170 129 1170 129 1021 64.5 c 128,-1,8
 872 0 872 0 720 0 c 0,9,10
 501 0 501 0 358 135.5 c 128,-1,11
 215 271 215 271 215 491 c 0,12,13
 215 609 215 609 256 725.5 c 128,-1,14
 297 842 297 842 372 941 c 128,-1,15
 447 1040 447 1040 544.5 1116.5 c 128,-1,16
 642 1193 642 1193 762 1236 c 128,-1,17
 882 1279 882 1279 1005 1279 c 3,0,1
1409 788 m 3,18,19
 1409 955 1409 955 1300.5 1053 c 128,-1,20
 1192 1151 1192 1151 1024 1151 c 0,21,22
 859 1151 859 1151 700.5 1058 c 128,-1,23
 542 965 542 965 442 810.5 c 128,-1,24
 342 656 342 656 342 491 c 0,25,26
 342 323 342 323 448 225 c 128,-1,27
 554 127 554 127 727 127 c 0,28,29
 851 127 851 127 975 182 c 128,-1,30
 1099 237 1099 237 1194.5 326.5 c 128,-1,31
 1290 416 1290 416 1349.5 538.5 c 128,-1,32
 1409 661 1409 661 1409 788 c 3,18,19
756 385 m 2,33,-1
 911 385 l 2,34,35
 926 385 926 385 937 372 c 128,-1,36
 948 359 948 359 943 342 c 2,37,-1
 931 291 l 2,38,39
 921 257 921 257 886 257 c 2,40,-1
 756 255 l 2,41,42
 685 255 685 255 635.5 302 c 128,-1,43
 586 349 586 349 586 421 c 0,44,45
 586 436 586 436 595 474 c 2,46,-1
 693 839 l 2,47,48
 713 911 713 911 780.5 967.5 c 128,-1,49
 848 1024 848 1024 928 1024 c 2,50,-1
 1083 1024 l 2,51,52
 1097 1024 1097 1024 1108.5 1010 c 128,-1,53
 1120 996 1120 996 1115 982 c 2,54,-1
 1103 931 l 2,55,56
 1093 897 1093 897 1058 897 c 2,57,-1
 928 897 l 2,58,59
 890 897 890 897 857 868 c 128,-1,60
 824 839 824 839 816 805 c 2,61,-1
 718 440 l 2,62,63
 716 434 716 434 716 421 c 0,64,65
 716 385 716 385 756 385 c 2,33,-1
EndSplineSet
EndChar

StartChar: ordfeminine
Encoding: 170 170 104
Width: 766
VWidth: 2175
GlyphClass: 2
Flags: W
HStem: 385 127<186.926 688.635> 639 128<412.843 661> 935 127<450.947 682> 1279 127<522.511 762.59>
VStem: 285 127<767.856 895.94>
DStem2: 547.138 385 679.248 385 0.258819 0.965926<383.83 557.579 689.063 901.08>
LayerCount: 2
Fore
SplineSet
571 1406 m 2,0,-1
 722 1406 l 2,1,2
 811 1406 811 1406 863.5 1339 c 128,-1,3
 916 1272 916 1272 892 1179 c 2,4,-1
 756 673 l 2,5,6
 746 639 746 639 712 639 c 2,7,-1
 461 639 l 2,8,9
 387 639 387 639 336 688 c 128,-1,10
 285 737 285 737 285 814 c 0,11,12
 285 909 285 909 361.5 985.5 c 128,-1,13
 438 1062 438 1062 542 1062 c 2,14,-1
 703 1062 l 2,15,16
 725 1062 725 1062 735 1088 c 2,17,-1
 769 1213 l 2,18,19
 776 1242 776 1242 763 1260.5 c 128,-1,20
 750 1279 750 1279 722 1279 c 2,21,-1
 544 1279 l 2,22,23
 530 1279 530 1279 519 1293.5 c 128,-1,24
 508 1308 508 1308 512 1321 c 2,25,-1
 525 1372 l 2,26,27
 534 1406 534 1406 571 1406 c 2,0,-1
461 767 m 2,28,-1
 625 767 l 2,29,30
 647 767 647 767 656 792 c 2,31,-1
 688 914 l 2,32,33
 694 935 694 935 671 935 c 2,34,-1
 542 935 l 2,35,36
 495 935 495 935 453.5 893 c 128,-1,37
 412 851 412 851 412 814 c 0,38,39
 412 767 412 767 461 767 c 2,28,-1
236 512 m 2,40,-1
 667 512 l 2,41,42
 684 512 684 512 693.5 500 c 128,-1,43
 703 488 703 488 699 470 c 2,44,-1
 686 419 l 2,45,46
 676 385 676 385 642 385 c 2,47,-1
 208 385 l 2,48,49
 193 385 193 385 183 397.5 c 128,-1,50
 173 410 173 410 176 427 c 2,51,-1
 189 476 l 2,52,53
 199 512 199 512 236 512 c 2,40,-1
EndSplineSet
EndChar

StartChar: guillemotleft
Encoding: 171 171 105
Width: 960
VWidth: 2175
GlyphClass: 2
Flags: W
DStem2: 476 187 198 438 0.468671 -0.883373<-291.448 31.794> 204 478 355 444 0.732793 0.680451<61.6724 492.205> 671 423 518 438 0.46645 -0.884548<-17.4266 299.545> 525 478 673 444 0.729742 0.683722<61.3458 491.914>
LayerCount: 2
Fore
SplineSet
625 699 m 1,0,-1
 355 444 l 2,1,2
 344 433 344 433 351 423 c 2,3,-1
 476 187 l 2,4,5
 492 159 492 159 461 142 c 2,6,-1
 408 115 l 2,7,8
 379 99 379 99 363 127 c 2,9,-1
 198 438 l 2,10,11
 187 461 187 461 204 478 c 2,12,-1
 540 790 l 2,13,14
 563 813 563 813 586 790 c 2,15,-1
 627 746 l 2,16,17
 649 720 649 720 625 699 c 1,0,-1
945 699 m 1,18,-1
 673 444 l 2,19,20
 665 432 665 432 671 423 c 2,21,-1
 797 187 l 2,22,23
 813 159 813 159 782 142 c 2,24,-1
 729 115 l 2,25,26
 698 99 698 99 682 127 c 2,27,-1
 518 438 l 2,28,29
 505 459 505 459 525 478 c 2,30,-1
 858 790 l 2,31,32
 885 812 885 812 907 790 c 2,33,-1
 948 746 l 2,34,35
 969 723 969 723 945 699 c 1,18,-1
EndSplineSet
EndChar

StartChar: logicalnot
Encoding: 172 172 106
Width: 1151
VWidth: 2175
GlyphClass: 2
Flags: W
HStem: 576 127<303.393 1039.84>
DStem2: 980.568 321 1110.9 321 0.258819 0.965926<21.7596 255.756>
LayerCount: 2
Fore
SplineSet
353 703 m 2,0,-1
 1171 703 l 2,1,2
 1186 703 1186 703 1197 690.5 c 128,-1,3
 1208 678 1208 678 1202 661 c 2,4,-1
 1122 355 l 2,5,6
 1110 321 1110 321 1075 321 c 2,7,-1
 1024 321 l 2,8,9
 1006 321 1006 321 996 333.5 c 128,-1,10
 986 346 986 346 990 363 c 2,11,-1
 1043 554 l 2,12,13
 1045 564 1045 564 1040 570 c 128,-1,14
 1035 576 1035 576 1026 576 c 2,15,-1
 327 576 l 2,16,17
 309 576 309 576 299 588.5 c 128,-1,18
 289 601 289 601 293 618 c 2,19,-1
 306 669 l 2,20,21
 315 703 315 703 353 703 c 2,0,-1
EndSplineSet
EndChar

StartChar: registered
Encoding: 174 174 108
Width: 1536
VWidth: 2175
GlyphClass: 2
Flags: W
HStem: 0 127<525.118 945.99> 512 127<798.125 859.344> 897 127<843.625 1058.31> 1151 128<798.883 1222.78>
VStem: 215 129<300.982 708.201> 1081 128<710.264 881.327> 1409 127<576.328 973.589>
DStem2: 482.615 0 615.027 0 0.258819 0.965926<286.41 576.343 707.868 974.535> 979 512 854 487 0.280695 -0.959797<-15.1539 243.699>
LayerCount: 2
Fore
SplineSet
1005 1279 m 3,0,1
 1157 1279 1157 1279 1276.5 1221.5 c 128,-1,2
 1396 1164 1396 1164 1466 1051.5 c 128,-1,3
 1536 939 1536 939 1536 788 c 0,4,5
 1536 635 1536 635 1465.5 489 c 128,-1,6
 1395 343 1395 343 1281.5 236.5 c 128,-1,7
 1168 130 1168 130 1019.5 65 c 128,-1,8
 871 0 871 0 720 0 c 0,9,10
 501 0 501 0 358 135.5 c 128,-1,11
 215 271 215 271 215 491 c 0,12,13
 215 590 215 590 244.5 688.5 c 128,-1,14
 274 787 274 787 326 873.5 c 128,-1,15
 378 960 378 960 452.5 1035 c 128,-1,16
 527 1110 527 1110 613 1163.5 c 128,-1,17
 699 1217 699 1217 800.5 1248 c 128,-1,18
 902 1279 902 1279 1005 1279 c 3,0,1
1024 1151 m 3,19,20
 859 1151 859 1151 701 1058.5 c 128,-1,21
 543 966 543 966 443.5 812 c 128,-1,22
 344 658 344 658 344 491 c 0,23,24
 344 320 344 320 448.5 223.5 c 128,-1,25
 553 127 553 127 727 127 c 0,26,27
 850 127 850 127 974 183 c 128,-1,28
 1098 239 1098 239 1193 329.5 c 128,-1,29
 1288 420 1288 420 1348.5 542 c 128,-1,30
 1409 664 1409 664 1409 788 c 0,31,32
 1409 955 1409 955 1300.5 1053 c 128,-1,33
 1192 1151 1192 1151 1024 1151 c 3,19,20
792 1024 m 2,34,-1
 999 1024 l 2,35,36
 1087 1024 1087 1024 1148 964.5 c 128,-1,37
 1209 905 1209 905 1209 818 c 0,38,39
 1209 717 1209 717 1143 636.5 c 128,-1,40
 1077 556 1077 556 988 529 c 0,41,42
 976 526 976 526 979 512 c 2,43,-1
 1041 300 l 2,44,45
 1045 284 1045 284 1035 269.5 c 128,-1,46
 1025 255 1025 255 1009 255 c 2,47,-1
 956 255 l 2,48,49
 921 255 921 255 911 289 c 2,50,-1
 854 487 l 2,51,52
 844 512 844 512 822 512 c 2,53,-1
 778 512 l 2,54,55
 753 512 753 512 746 487 c 2,56,-1
 693 291 l 2,57,58
 680 255 680 255 648 255 c 2,59,-1
 595 255 l 2,60,61
 577 255 577 255 568 267.5 c 128,-1,62
 559 280 559 280 563 300 c 2,63,-1
 748 990 l 2,64,65
 757 1024 757 1024 792 1024 c 2,34,-1
848 871 m 2,66,-1
 792 661 l 2,67,68
 786 640 786 640 807 639 c 2,69,-1
 894 639 l 2,70,71
 960 639 960 639 1020.5 694 c 128,-1,72
 1081 749 1081 749 1081 814 c 0,73,74
 1081 852 1081 852 1059 874.5 c 128,-1,75
 1037 897 1037 897 999 897 c 2,76,-1
 882 897 l 2,77,78
 854 896 854 896 848 871 c 2,66,-1
EndSplineSet
EndChar

StartChar: macron
Encoding: 175 175 109
Width: 639
VWidth: 2175
GlyphClass: 2
Flags: W
HStem: 1536 127<499.381 872.607>
VStem: 487 383<1536 1661.27>
LayerCount: 2
Fore
SplineSet
546 1663 m 2,0,-1
 851 1663 l 2,1,2
 896 1663 896 1663 883 1621 c 2,3,-1
 870 1570 l 2,4,5
 858 1536 858 1536 825 1536 c 2,6,-1
 518 1536 l 2,7,8
 476 1536 476 1536 487 1578 c 2,9,-1
 499 1629 l 2,10,11
 511 1663 511 1663 546 1663 c 2,0,-1
EndSplineSet
EndChar

StartChar: degree
Encoding: 176 176 110
Width: 766
VWidth: 2175
GlyphClass: 2
Flags: W
HStem: 767 130<528.474 722.831> 1151 128<595.19 777.298>
VStem: 395 128<902.885 1080.02> 792 128<964.971 1136.84>
LayerCount: 2
Fore
SplineSet
608 897 m 3,0,1
 676 897 676 897 734 950.5 c 128,-1,2
 792 1004 792 1004 792 1073 c 0,3,4
 792 1110 792 1110 770.5 1130.5 c 128,-1,5
 749 1151 749 1151 710 1151 c 0,6,7
 640 1151 640 1151 581.5 1095.5 c 128,-1,8
 523 1040 523 1040 523 973 c 0,9,10
 523 897 523 897 608 897 c 3,0,1
710 1279 m 3,11,12
 803 1279 803 1279 861.5 1221.5 c 128,-1,13
 920 1164 920 1164 920 1073 c 0,14,15
 920 952 920 952 824.5 859.5 c 128,-1,16
 729 767 729 767 608 767 c 0,17,18
 517 767 517 767 456 825 c 128,-1,19
 395 883 395 883 395 973 c 0,20,21
 395 1097 395 1097 490 1188 c 128,-1,22
 585 1279 585 1279 710 1279 c 3,11,12
EndSplineSet
EndChar

StartChar: plusminus
Encoding: 177 177 111
Width: 896
VWidth: 2175
GlyphClass: 2
Flags: W
HStem: 127 128<120.365 750.031> 703 128<274.953 494.375 683.797 903.463>
DStem2: 352.288 127 484.878 127 0.258819 0.965926<354.779 584.413 774.762 1006.91>
LayerCount: 2
Fore
SplineSet
695 831 m 2,0,-1
 882 831 l 2,1,2
 899 831 899 831 909.5 818.5 c 128,-1,3
 920 806 920 806 916 788 c 2,4,-1
 901 739 l 2,5,6
 891 703 891 703 856 703 c 2,7,-1
 665 703 l 2,8,9
 637 703 637 703 631 678 c 2,10,-1
 580 482 l 2,11,12
 570 448 570 448 535 448 c 2,13,-1
 482 448 l 2,14,15
 465 448 465 448 454.5 460.5 c 128,-1,16
 444 473 444 473 448 491 c 2,17,-1
 501 682 l 2,18,19
 507 703 507 703 484 703 c 2,20,-1
 297 703 l 2,21,22
 280 703 280 703 269.5 715.5 c 128,-1,23
 259 728 259 728 263 746 c 2,24,-1
 278 797 l 2,25,26
 288 831 288 831 323 831 c 2,27,-1
 514 831 l 2,28,29
 538 831 538 831 548 856 c 2,30,-1
 599 1054 l 2,31,32
 609 1088 609 1088 646 1088 c 2,33,-1
 697 1088 l 2,34,35
 714 1088 714 1088 724.5 1075.5 c 128,-1,36
 735 1063 735 1063 731 1045 c 2,37,-1
 678 854 l 2,38,39
 672 831 672 831 695 831 c 2,0,-1
168 255 m 2,40,-1
 729 255 l 2,41,42
 744 255 744 255 754.5 241.5 c 128,-1,43
 765 228 765 228 761 212 c 2,44,-1
 748 164 l 2,45,46
 735 128 735 128 703 127 c 2,47,-1
 142 127 l 2,48,49
 125 127 125 127 115.5 139.5 c 128,-1,50
 106 152 106 152 110 170 c 2,51,-1
 123 221 l 2,52,53
 133 255 133 255 168 255 c 2,40,-1
EndSplineSet
EndChar

StartChar: acute
Encoding: 180 180 114
Width: 448
VWidth: 2175
GlyphClass: 2
Flags: W
HStem: 1381 295
VStem: 461 219
DStem2: 461 1453 680 1604 0.454054 0.890974<-32.4178 267.481>
LayerCount: 2
Fore
SplineSet
461 1453 m 1,0,-1
 565 1661 l 2,1,2
 582 1691 582 1691 612 1676 c 2,3,-1
 665 1651 l 2,4,5
 696 1634 696 1634 680 1604 c 2,6,-1
 574 1396 l 2,7,8
 558 1365 558 1365 529 1381 c 2,9,-1
 476 1409 l 2,10,11
 445 1425 445 1425 461 1453 c 1,0,-1
EndSplineSet
EndChar

StartChar: paragraph
Encoding: 182 182 116
Width: 1151
VWidth: 2175
GlyphClass: 2
Flags: W
HStem: -253 128<241.938 386.684 810.188 903.753> 453 125<348.906 484.772> 926 130<564.25 652.296> 1151 128<509.959 999.391 1131.81 1279.34>
VStem: 155 128<644.033 930.817> 419 127<803.831 910.681>
DStem2: 346.54 -253 477.89 -253 0.258819 0.965926<120.652 949.252 1077.1 1211.09> 634.478 -253 765.076 -253 0.258819 0.965926<178.239 1442.68>
LayerCount: 2
Fore
SplineSet
680 1279 m 2,0,-1
 1258 1279 l 2,1,2
 1275 1279 1275 1279 1285.5 1267 c 128,-1,3
 1296 1255 1296 1255 1292 1236 c 2,4,-1
 1277 1188 l 2,5,6
 1267 1152 1267 1152 1232 1151 c 2,7,-1
 1168 1151 l 2,8,9
 1143 1151 1143 1151 1137 1126 c 2,10,-1
 805 -104 l 2,11,12
 799 -125 799 -125 822 -125 c 2,13,-1
 882 -125 l 2,14,15
 897 -125 897 -125 907 -140 c 128,-1,16
 917 -155 917 -155 914 -170 c 2,17,-1
 901 -219 l 2,18,19
 891 -253 891 -253 856 -253 c 2,20,-1
 678 -253 l 2,21,22
 661 -253 661 -253 651.5 -240.5 c 128,-1,23
 642 -228 642 -228 646 -210 c 2,24,-1
 1005 1130 l 2,25,26
 1011 1151 1011 1151 988 1151 c 2,27,-1
 680 1151 l 2,28,29
 581 1151 581 1151 488 1094.5 c 128,-1,30
 395 1038 395 1038 339 950.5 c 128,-1,31
 283 863 283 863 283 773 c 0,32,33
 283 690 283 690 335.5 634 c 128,-1,34
 388 578 388 578 465 578 c 0,35,36
 479 578 479 578 489 564 c 128,-1,37
 499 550 499 550 495 535 c 2,38,-1
 482 487 l 2,39,40
 472 453 472 453 431 453 c 0,41,42
 326 453 326 453 240.5 551 c 128,-1,43
 155 649 155 649 155 773 c 0,44,45
 155 894 155 894 228.5 1011.5 c 128,-1,46
 302 1129 302 1129 424.5 1204 c 128,-1,47
 547 1279 547 1279 680 1279 c 2,0,-1
289 -125 m 2,48,-1
 353 -125 l 2,49,50
 377 -125 377 -125 387 -102 c 2,51,-1
 588 650 l 2,52,53
 591 668 591 668 574 671 c 2,54,-1
 535 678 l 2,55,56
 490 686 490 686 454.5 730.5 c 128,-1,57
 419 775 419 775 419 831 c 0,58,59
 419 917 419 917 489 986.5 c 128,-1,60
 559 1056 559 1056 650 1056 c 2,61,-1
 784 1056 l 2,62,63
 801 1056 801 1056 811.5 1043.5 c 128,-1,64
 822 1031 822 1031 818 1013 c 2,65,-1
 487 -219 l 2,66,67
 477 -253 477 -253 442 -253 c 2,68,-1
 263 -253 l 2,69,70
 248 -253 248 -253 238 -240 c 128,-1,71
 228 -227 228 -227 232 -210 c 2,72,-1
 244 -161 l 2,73,74
 254 -125 254 -125 289 -125 c 2,48,-1
582 799 m 2,75,-1
 616 799 l 2,76,77
 628 799 628 799 631 812 c 2,78,-1
 656 905 l 2,79,80
 659 912 659 912 652.5 919 c 128,-1,81
 646 926 646 926 637 926 c 0,82,83
 601 926 601 926 573.5 895.5 c 128,-1,84
 546 865 546 865 546 829 c 0,85,86
 546 815 546 815 557 807 c 128,-1,87
 568 799 568 799 582 799 c 2,75,-1
EndSplineSet
EndChar

StartChar: periodcentered
Encoding: 183 183 117
Width: 384
VWidth: 2175
GlyphClass: 2
Flags: W
HStem: 385 127<189.926 307.602>
VStem: 180 125<385 510.805>
LayerCount: 2
Fore
SplineSet
318 470 m 2,0,-1
 305 419 l 2,1,2
 297 385 297 385 260 385 c 2,3,-1
 211 385 l 2,4,5
 169 385 169 385 180 427 c 2,6,-1
 192 478 l 2,7,8
 200 512 200 512 237 512 c 2,9,-1
 286 512 l 2,10,11
 329 512 329 512 318 470 c 2,0,-1
EndSplineSet
EndChar

StartChar: cedilla
Encoding: 184 184 118
Width: 384
VWidth: 2175
GlyphClass: 2
Flags: W
HStem: -255 255<49.9375 136.297>
VStem: 4 179
DStem2: -8.05771 -255 124.354 -255 0.258819 0.965926<22.4144 275.719>
LayerCount: 2
Fore
SplineSet
98 0 m 2,0,-1
 149 0 l 2,1,2
 167 0 167 0 177 -11 c 128,-1,3
 187 -22 187 -22 183 -40 c 2,4,-1
 134 -219 l 2,5,6
 124 -255 124 -255 89 -255 c 2,7,-1
 38 -255 l 2,8,9
 23 -255 23 -255 11.5 -241 c 128,-1,10
 0 -227 0 -227 4 -210 c 2,11,-1
 53 -32 l 2,12,13
 60 0 60 0 98 0 c 2,0,-1
EndSplineSet
EndChar

StartChar: ordmasculine
Encoding: 186 186 120
Width: 766
VWidth: 2175
GlyphClass: 2
Flags: W
HStem: 385 127<188.926 690.635> 639 128<442.845 620.886> 1279 130<567.288 749.834>
VStem: 297 130<790.722 934.381> 765 125<1021.66 1263.59>
DStem2: 165.183 385 297.293 385 0.258819 0.965926<517.313 929.592> 549.803 385 682.293 385 0.258819 0.965926<427.207 842.434>
LayerCount: 2
Fore
SplineSet
238 512 m 2,0,-1
 669 512 l 2,1,2
 686 512 686 512 695.5 500 c 128,-1,3
 705 488 705 488 701 470 c 2,4,-1
 688 419 l 2,5,6
 678 385 678 385 644 385 c 2,7,-1
 210 385 l 2,8,9
 195 385 195 385 185 397.5 c 128,-1,10
 175 410 175 410 178 427 c 2,11,-1
 191 476 l 2,12,13
 201 512 201 512 238 512 c 2,0,-1
882 1130 m 2,14,-1
 816 884 l 2,15,16
 787 787 787 787 700 713 c 128,-1,17
 613 639 613 639 508 639 c 0,18,19
 419 639 419 639 358 698.5 c 128,-1,20
 297 758 297 758 297 848 c 0,21,22
 297 879 297 879 308 918 c 2,23,-1
 374 1162 l 2,24,25
 399 1257 399 1257 487 1333 c 128,-1,26
 575 1409 575 1409 680 1409 c 0,27,28
 771 1409 771 1409 830.5 1349.5 c 128,-1,29
 890 1290 890 1290 890 1198 c 0,30,31
 890 1161 890 1161 882 1130 c 2,14,-1
497 1130 m 2,32,-1
 431 884 l 2,33,34
 427 863 427 863 427 850 c 0,35,36
 427 813 427 813 449.5 790 c 128,-1,37
 472 767 472 767 508 767 c 0,38,39
 570 767 570 767 623 813 c 128,-1,40
 676 859 676 859 693 918 c 2,41,-1
 758 1162 l 2,42,43
 764 1184 764 1184 765 1200 c 0,44,45
 765 1237 765 1237 742 1258 c 128,-1,46
 719 1279 719 1279 680 1279 c 0,47,48
 617 1279 617 1279 564 1231.5 c 128,-1,49
 511 1184 511 1184 497 1130 c 2,32,-1
EndSplineSet
EndChar

StartChar: guillemotright
Encoding: 187 187 121
Width: 960
VWidth: 2175
GlyphClass: 2
Flags: W
DStem2: 397 453 212 104 0.730764 0.68263<-405.974 25.1665> 389 767 402 472 0.465393 -0.885104<-35.0362 289.389> 873 457 595 707 0.472064 -0.881565<-385.66 -62.1125> 718 453 533 104 0.730764 0.68263<-407.737 23.0656>
LayerCount: 2
Fore
SplineSet
389 767 m 2,0,-1
 552 457 l 2,1,2
 569 434 569 434 546 416 c 2,3,-1
 212 104 l 2,4,5
 188 80 188 80 166 106 c 2,6,-1
 123 149 l 2,7,8
 101 173 101 173 125 198 c 2,9,-1
 397 453 l 2,10,11
 408 464 408 464 402 472 c 2,12,-1
 276 707 l 2,13,14
 259 738 259 738 289 754 c 2,15,-1
 342 782 l 2,16,17
 372 798 372 798 389 767 c 2,0,-1
707 767 m 2,18,-1
 873 457 l 2,19,20
 886 436 886 436 867 416 c 2,21,-1
 533 104 l 2,22,23
 506 81 506 81 484 106 c 2,24,-1
 444 149 l 2,25,26
 421 176 421 176 446 198 c 2,27,-1
 718 453 l 2,28,29
 726 461 726 461 720 472 c 2,30,-1
 595 707 l 2,31,32
 578 738 578 738 610 754 c 2,33,-1
 663 782 l 2,34,35
 690 798 690 798 707 767 c 2,18,-1
EndSplineSet
EndChar

StartChar: onequarter
Encoding: 188 188 122
Width: 1536
VWidth: 2175
GlyphClass: 2
Flags: W
HStem: 149 129<1062 1145.09 1327.53 1398.57>
DStem2: 217 53 348 19 0.589138 0.808033<-6.17204 2024.84> 254.244 0 386.19 0 0.258819 0.965926<816.357 1483.98> 854 200 1052 295 0.473787 0.88064<177.471 815.624> 1110.97 0 1242.04 0 0.258819 0.965926<22.0955 142.41 333.753 442.495>
LayerCount: 2
Fore
SplineSet
1258 416 m 2,0,-1
 1309 416 l 2,1,2
 1326 416 1326 416 1336.5 404 c 128,-1,3
 1347 392 1347 392 1343 374 c 2,4,-1
 1321 300 l 2,5,6
 1315 279 1315 279 1338 278 c 2,7,-1
 1377 278 l 2,8,9
 1393 278 1393 278 1404 264 c 128,-1,10
 1415 250 1415 250 1411 234 c 2,11,-1
 1396 185 l 2,12,13
 1386 149 1386 149 1351 149 c 2,14,-1
 1309 149 l 2,15,16
 1281 149 1281 149 1275 123 c 2,17,-1
 1251 34 l 2,18,19
 1241 0 1241 0 1207 0 c 2,20,-1
 1154 0 l 2,21,22
 1138 0 1138 0 1127.5 13.5 c 128,-1,23
 1117 27 1117 27 1122 42 c 2,24,-1
 1145 127 l 2,25,26
 1148 148 1148 148 1128 149 c 2,27,-1
 884 149 l 2,28,29
 867 149 867 149 855.5 166 c 128,-1,30
 844 183 844 183 854 200 c 2,31,-1
 1215 871 l 2,32,33
 1228 896 1228 896 1256 897 c 2,34,-1
 1315 897 l 2,35,36
 1333 897 1333 897 1344.5 880.5 c 128,-1,37
 1356 864 1356 864 1345 846 c 2,38,-1
 1052 295 l 2,39,40
 1041 278 1041 278 1062 278 c 2,41,-1
 1158 278 l 2,42,43
 1182 278 1182 278 1192 302 c 2,44,-1
 1213 380 l 2,45,46
 1223 416 1223 416 1258 416 c 2,0,-1
690 1663 m 2,47,-1
 788 1663 l 2,48,49
 802 1663 802 1663 813 1648.5 c 128,-1,50
 824 1634 824 1634 820 1619 c 2,51,-1
 601 801 l 2,52,53
 591 767 591 767 557 767 c 2,54,-1
 504 767 l 2,55,56
 486 767 486 767 476.5 778.5 c 128,-1,57
 467 790 467 790 472 809 c 2,58,-1
 635 1421 l 2,59,60
 637 1431 637 1431 629 1436 c 128,-1,61
 621 1441 621 1441 614 1434 c 2,62,-1
 569 1392 l 2,63,64
 542 1369 542 1369 520 1394 c 2,65,-1
 480 1436 l 2,66,67
 457 1463 457 1463 482 1485 c 2,68,-1
 659 1651 l 2,69,70
 671 1663 671 1663 690 1663 c 2,47,-1
1415 1663 m 2,71,-1
 1481 1663 l 2,72,73
 1499 1663 1499 1663 1510 1646 c 128,-1,74
 1521 1629 1521 1629 1508 1610 c 2,75,-1
 348 19 l 2,76,77
 335 0 335 0 310 0 c 2,78,-1
 244 0 l 2,79,80
 224 0 224 0 214 17 c 128,-1,81
 204 34 204 34 217 53 c 2,82,-1
 1377 1644 l 2,83,84
 1390 1663 1390 1663 1415 1663 c 2,71,-1
EndSplineSet
EndChar

StartChar: onehalf
Encoding: 189 189 123
Width: 1536
VWidth: 2175
GlyphClass: 2
Flags: W
HStem: 0 127<1117.61 1358.05> 767 130<1246.75 1403.55>
VStem: 1404 128<621.476 765.537>
DStem2: 217 53 348 19 0.589138 0.808033<-6.17204 2024.84> 254.244 0 386.19 0 0.258819 0.965926<816.357 1483.98> 937 132 1120 149 0.655391 0.755289<120.682 744.557>
LayerCount: 2
Fore
SplineSet
1311 0 m 2,0,-1
 941 0 l 2,1,2
 924 0 924 0 913.5 12 c 128,-1,3
 903 24 903 24 907 42 c 2,4,-1
 926 115 l 2,5,6
 929 125 929 125 937 132 c 2,7,-1
 1370 631 l 2,8,9
 1404 668 1404 668 1404 714 c 0,10,11
 1404 767 1404 767 1345 767 c 0,12,13
 1275 767 1275 767 1228 701 c 0,14,15
 1211 678 1211 678 1185 690 c 2,16,-1
 1130 716 l 2,17,18
 1119 721 1119 721 1114 737 c 128,-1,19
 1109 753 1109 753 1117 767 c 0,20,21
 1220 897 1220 897 1345 897 c 0,22,23
 1425 897 1425 897 1478.5 845 c 128,-1,24
 1532 793 1532 793 1532 714 c 0,25,26
 1532 624 1532 624 1466 548 c 2,27,-1
 1120 149 l 2,28,29
 1114 143 1114 143 1117.5 135 c 128,-1,30
 1121 127 1121 127 1130 127 c 2,31,-1
 1336 127 l 2,32,33
 1353 127 1353 127 1364 115 c 128,-1,34
 1375 103 1375 103 1370 85 c 2,35,-1
 1355 34 l 2,36,37
 1346 0 1346 0 1311 0 c 2,0,-1
690 1663 m 2,38,-1
 788 1663 l 2,39,40
 802 1663 802 1663 813 1648.5 c 128,-1,41
 824 1634 824 1634 820 1619 c 2,42,-1
 601 801 l 2,43,44
 591 767 591 767 557 767 c 2,45,-1
 504 767 l 2,46,47
 486 767 486 767 476.5 778.5 c 128,-1,48
 467 790 467 790 472 809 c 2,49,-1
 635 1421 l 2,50,51
 637 1431 637 1431 629 1436 c 128,-1,52
 621 1441 621 1441 614 1434 c 2,53,-1
 569 1392 l 2,54,55
 542 1369 542 1369 520 1394 c 2,56,-1
 480 1436 l 2,57,58
 457 1463 457 1463 482 1485 c 2,59,-1
 659 1651 l 2,60,61
 671 1663 671 1663 690 1663 c 2,38,-1
1415 1663 m 2,62,-1
 1481 1663 l 2,63,64
 1499 1663 1499 1663 1510 1646 c 128,-1,65
 1521 1629 1521 1629 1508 1610 c 2,66,-1
 348 19 l 2,67,68
 335 0 335 0 310 0 c 2,69,-1
 244 0 l 2,70,71
 224 0 224 0 214 17 c 128,-1,72
 204 34 204 34 217 53 c 2,73,-1
 1377 1644 l 2,74,75
 1390 1663 1390 1663 1415 1663 c 2,62,-1
EndSplineSet
EndChar

StartChar: threequarters
Encoding: 190 190 124
Width: 1663
VWidth: 2175
GlyphClass: 2
Flags: W
HStem: 149 129<1188 1270.09 1453.23 1523.57> 767 127<289.953 600.746> 1194 127<490.365 661.434> 1534 129<496.699 750.373>
VStem: 680 127<977.98 1175.95> 771 128<1372.88 1523.31>
DStem2: 344 53 476 19 0.589138 0.808033<-5.51128 2024.95> 379.228 0 510.802 0 0.258819 0.965926<942.903 1169.16> 979 200 1177 295 0.474804 0.880092<177.62 816.034> 1235.97 0 1367.04 0 0.258819 0.965926<21.9029 142.41 333.693 442.495>
LayerCount: 2
Fore
SplineSet
1383 416 m 2,0,-1
 1434 416 l 2,1,2
 1451 416 1451 416 1461.5 404 c 128,-1,3
 1472 392 1472 392 1468 374 c 2,4,-1
 1447 300 l 2,5,6
 1441 279 1441 279 1464 278 c 2,7,-1
 1502 278 l 2,8,9
 1518 278 1518 278 1529 264 c 128,-1,10
 1540 250 1540 250 1536 234 c 2,11,-1
 1521 185 l 2,12,13
 1511 149 1511 149 1477 149 c 2,14,-1
 1434 149 l 2,15,16
 1406 149 1406 149 1400 123 c 2,17,-1
 1377 34 l 2,18,19
 1367 0 1367 0 1332 0 c 2,20,-1
 1279 0 l 2,21,22
 1263 0 1263 0 1253 13.5 c 128,-1,23
 1243 27 1243 27 1247 42 c 2,24,-1
 1270 127 l 2,25,26
 1273 148 1273 148 1253 149 c 2,27,-1
 1009 149 l 2,28,29
 992 149 992 149 981 166 c 128,-1,30
 970 183 970 183 979 200 c 2,31,-1
 1341 871 l 2,32,33
 1354 896 1354 896 1381 897 c 2,34,-1
 1440 897 l 2,35,36
 1458 897 1458 897 1470 880.5 c 128,-1,37
 1482 864 1482 864 1470 846 c 2,38,-1
 1177 295 l 2,39,40
 1166 278 1166 278 1188 278 c 2,41,-1
 1283 278 l 2,42,43
 1307 278 1307 278 1317 302 c 2,44,-1
 1338 380 l 2,45,46
 1348 416 1348 416 1383 416 c 2,0,-1
338 894 m 2,47,-1
 497 894 l 2,48,49
 548 894 548 894 594.5 932 c 128,-1,50
 641 970 641 970 652 1018 c 2,51,-1
 676 1103 l 2,52,53
 680 1124 680 1124 680 1130 c 0,54,55
 680 1159 680 1159 662 1176.5 c 128,-1,56
 644 1194 644 1194 612 1194 c 2,57,-1
 512 1194 l 2,58,59
 495 1194 495 1194 485.5 1206 c 128,-1,60
 476 1218 476 1218 480 1236 c 2,61,-1
 493 1287 l 2,62,63
 503 1321 503 1321 537 1321 c 2,64,-1
 612 1321 l 2,65,66
 670 1321 670 1321 720.5 1367 c 128,-1,67
 771 1413 771 1413 771 1472 c 0,68,69
 771 1501 771 1501 751 1517.5 c 128,-1,70
 731 1534 731 1534 703 1534 c 2,71,-1
 518 1534 l 2,72,73
 503 1534 503 1534 491.5 1548.5 c 128,-1,74
 480 1563 480 1563 484 1576 c 2,75,-1
 499 1627 l 2,76,77
 509 1663 509 1663 544 1663 c 2,78,-1
 703 1663 l 2,79,80
 784 1663 784 1663 841.5 1608.5 c 128,-1,81
 899 1554 899 1554 899 1472 c 0,82,83
 899 1354 899 1354 786 1258 c 0,84,85
 771 1246 771 1246 778 1236 c 0,86,87
 808 1194 808 1194 807 1130 c 0,88,89
 807 1096 807 1096 799 1071 c 2,90,-1
 775 986 l 2,91,92
 754 900 754 900 674 833.5 c 128,-1,93
 594 767 594 767 497 767 c 2,94,-1
 312 767 l 2,95,96
 295 767 295 767 284.5 779 c 128,-1,97
 274 791 274 791 278 809 c 2,98,-1
 293 860 l 2,99,100
 303 894 303 894 338 894 c 2,47,-1
1542 1663 m 2,101,-1
 1608 1663 l 2,102,103
 1625 1663 1625 1663 1636.5 1646 c 128,-1,104
 1648 1629 1648 1629 1636 1610 c 2,105,-1
 476 19 l 2,106,107
 463 0 463 0 438 0 c 2,108,-1
 372 0 l 2,109,110
 352 0 352 0 341.5 17 c 128,-1,111
 331 34 331 34 344 53 c 2,112,-1
 1504 1644 l 2,113,114
 1517 1663 1517 1663 1542 1663 c 2,101,-1
EndSplineSet
EndChar

StartChar: multiply
Encoding: 215 215 135
Width: 896
VWidth: 2175
GlyphClass: 2
Flags: W
DStem2: 168 263 246 164 0.784714 0.619858<-35.2409 309.477 444.491 790.765> 506 552 406 474 0.59037 -0.807133<-234.03 15.5345 150.515 400.041>
LayerCount: 2
Fore
SplineSet
841 633 m 2,0,-1
 605 446 l 2,1,2
 590 438 590 438 601 423 c 2,3,-1
 722 257 l 2,4,5
 742 227 742 227 716 210 c 2,6,-1
 667 174 l 2,7,8
 639 155 639 155 620 181 c 2,9,-1
 501 342 l 2,10,11
 493 357 493 357 478 346 c 2,12,-1
 246 164 l 2,13,14
 217 142 217 142 198 168 c 2,15,-1
 161 215 l 2,16,17
 140 243 140 243 168 263 c 2,18,-1
 404 450 l 2,19,20
 415 458 415 458 406 474 c 2,21,-1
 285 639 l 2,22,23
 264 662 264 662 293 686 c 2,24,-1
 340 722 l 2,25,26
 368 740 368 740 389 714 c 2,27,-1
 506 552 l 2,28,29
 518 540 518 540 531 550 c 2,30,-1
 763 733 l 2,31,32
 787 754 787 754 809 727 c 2,33,-1
 848 680 l 2,34,35
 869 655 869 655 841 633 c 2,0,-1
EndSplineSet
EndChar

StartChar: Oslash
Encoding: 216 216 136
Width: 1024
VWidth: 2175
GlyphClass: 2
Flags: W
HStem: 0 127<365.281 624.768> 1151 128<613.105 874.463>
VStem: 155 130<260.5 503.5> 954 129<783 935.438>
DStem2: 39.9013 -86.5349 171.208 -86.5349 0.258819 0.965926<455.759 1199.3> 79 0 183 -72 0.585425 0.810727<-30.8071 162.214 370.627 1285.03 1505.97 1703.02> 678.901 -86.5349 811.208 -86.5349 0.258819 0.965926<338.809 1073.97>
LayerCount: 2
Fore
SplineSet
1069 880 m 1,0,-1
 933 368 l 2,1,2
 893 224 893 224 759.5 112 c 128,-1,3
 626 0 626 0 465 0 c 0,4,5
 344 0 344 0 291 47 c 0,6,7
 276 58 276 58 268 42 c 2,8,-1
 183 -72 l 2,9,10
 164 -97 164 -97 136 -79 c 2,11,-1
 87 -45 l 2,12,13
 59 -26 59 -26 79 0 c 2,14,-1
 185 147 l 2,15,16
 193 155 193 155 187 164 c 0,17,18
 155 219 155 219 155 302 c 0,19,20
 155 355 155 355 170 399 c 2,21,-1
 306 911 l 2,22,23
 344 1057 344 1057 478 1168 c 128,-1,24
 612 1279 612 1279 773 1279 c 0,25,26
 880 1279 880 1279 950 1232 c 0,27,28
 962 1224 962 1224 971 1236 c 2,29,-1
 1056 1353 l 2,30,31
 1078 1382 1078 1382 1105 1362 c 2,32,-1
 1151 1326 l 2,33,34
 1179 1305 1179 1305 1160 1279 c 2,35,-1
 1054 1132 l 2,36,37
 1049 1122 1049 1122 1054 1115 c 0,38,39
 1084 1062 1084 1062 1083 979 c 0,40,41
 1084 925 1084 925 1069 880 c 1,0,-1
429 880 m 1,42,-1
 293 368 l 2,43,44
 285 339 285 339 285 319 c 0,45,46
 285 308 285 308 289 305.5 c 128,-1,47
 293 303 293 303 298.5 306.5 c 128,-1,48
 304 310 304 310 308 317 c 2,49,-1
 877 1105 l 2,50,51
 887 1121 887 1121 871 1130 c 0,52,53
 838 1151 838 1151 773 1151 c 0,54,55
 657 1151 657 1151 558.5 1068 c 128,-1,56
 460 985 460 985 429 880 c 1,42,-1
809 399 m 2,57,-1
 945 911 l 2,58,59
 953 940 953 940 954 952 c 0,60,61
 954 991 954 991 931 960 c 2,62,-1
 363 174 l 2,63,64
 353 159 353 159 368 151 c 0,65,66
 418 128 418 128 465 127 c 0,67,68
 580 127 580 127 680 210.5 c 128,-1,69
 780 294 780 294 809 399 c 2,57,-1
EndSplineSet
EndChar

StartChar: Thorn
Encoding: 222 222 139
Width: 1024
VWidth: 2175
GlyphClass: 2
Flags: W
HStem: 257 128<307.859 696.63> 897 127<479.578 832.193>
VStem: 886 127<570.793 843.884>
DStem2: 60.7461 0 193.213 0 0.258819 0.965926<22.2963 312.253 444.78 974.963 1105.6 1335.85>
LayerCount: 2
Fore
SplineSet
487 1024 m 2,0,-1
 705 1024 l 2,1,2
 836 1024 836 1024 924.5 940 c 128,-1,3
 1013 856 1013 856 1013 720 c 0,4,5
 1013 636 1013 636 973.5 552 c 128,-1,6
 934 468 934 468 868.5 403.5 c 128,-1,7
 803 339 803 339 714.5 298 c 128,-1,8
 626 257 626 257 533 257 c 2,9,-1
 289 257 l 2,10,11
 261 257 261 257 255 232 c 2,12,-1
 204 34 l 2,13,14
 191 0 191 0 157 0 c 2,15,-1
 106 0 l 2,16,17
 89 0 89 0 78.5 12 c 128,-1,18
 68 24 68 24 72 42 c 2,19,-1
 395 1245 l 2,20,21
 405 1279 405 1279 440 1279 c 2,22,-1
 493 1279 l 2,23,24
 510 1279 510 1279 519.5 1267 c 128,-1,25
 529 1255 529 1255 525 1236 c 2,26,-1
 474 1047 l 2,27,28
 468 1024 468 1024 487 1024 c 2,0,-1
427 871 m 2,29,-1
 302 406 l 2,30,31
 296 385 296 385 319 385 c 2,32,-1
 533 385 l 2,33,34
 670 385 670 385 778 491.5 c 128,-1,35
 886 598 886 598 886 729 c 0,36,37
 886 807 886 807 834 852 c 128,-1,38
 782 897 782 897 705 897 c 2,39,-1
 461 897 l 2,40,41
 433 896 433 896 427 871 c 2,29,-1
EndSplineSet
EndChar

StartChar: germandbls
Encoding: 223 223 140
Width: 1024
VWidth: 2175
GlyphClass: 2
Flags: W
HStem: 0 127<534.156 702.46> 1151 128<500.15 960.216>
VStem: 716 164<739.531 797.481> 860 130<538.861 638.824> 986 127<969.243 1134.32>
DStem2: 60.9161 0 194.89 0 0.258819 0.965926<22.8059 1228.89> 701.106 0 834.692 0 0.258819 0.965926<161.891 649.617> 807 884 888 780 0.913138 0.407651<19.8824 194.296>
LayerCount: 2
Fore
SplineSet
582 1279 m 2,0,-1
 901 1279 l 2,1,2
 993 1279 993 1279 1053 1221 c 128,-1,3
 1113 1163 1113 1163 1113 1073 c 0,4,5
 1113 984 1113 984 1055 909 c 128,-1,6
 997 834 997 834 914 792 c 2,7,-1
 888 780 l 2,8,9
 880 777 880 777 880 769 c 0,10,11
 880 759 880 759 888 756 c 0,12,13
 932 744 932 744 961 703.5 c 128,-1,14
 990 663 990 663 990 610 c 0,15,16
 990 581 990 581 984 559 c 2,17,-1
 899 240 l 2,18,19
 872 144 872 144 785 72 c 128,-1,20
 698 0 698 0 593 0 c 2,21,-1
 557 0 l 2,22,23
 540 0 540 0 529 12 c 128,-1,24
 518 24 518 24 523 42 c 2,25,-1
 537 93 l 2,26,27
 547 127 547 127 582 127 c 2,28,-1
 593 127 l 2,29,30
 652 127 652 127 707 173.5 c 128,-1,31
 762 220 762 220 775 272 c 2,32,-1
 860 593 l 2,33,34
 872 640 872 640 829 639 c 0,35,36
 783 639 783 639 749.5 670.5 c 128,-1,37
 716 702 716 702 716 752 c 0,38,39
 716 796 716 796 742.5 831.5 c 128,-1,40
 769 867 769 867 807 884 c 2,41,-1
 863 909 l 2,42,43
 912 932 912 932 949 977 c 128,-1,44
 986 1022 986 1022 986 1073 c 0,45,46
 986 1106 986 1106 961 1128.5 c 128,-1,47
 936 1151 936 1151 901 1151 c 2,48,-1
 582 1151 l 2,49,50
 549 1151 549 1151 519 1125.5 c 128,-1,51
 489 1100 489 1100 480 1071 c 2,52,-1
 204 34 l 2,53,54
 194 0 194 0 157 0 c 2,55,-1
 106 0 l 2,56,57
 89 0 89 0 78.5 12 c 128,-1,58
 68 24 68 24 72 42 c 2,59,-1
 357 1105 l 2,60,61
 375 1173 375 1173 440.5 1226 c 128,-1,62
 506 1279 506 1279 582 1279 c 2,0,-1
EndSplineSet
EndChar

StartChar: divide
Encoding: 247 247 150
Width: 896
VWidth: 2175
GlyphClass: 2
Flags: W
HStem: 127 128<375.359 493.344> 385 127<188.359 818.635> 639 128<513.719 628.589>
VStem: 178 651
DStem2: 355.288 127 482.7 127 0.258819 0.965926<21.1538 144.278 551.287 674.39>
LayerCount: 2
Fore
SplineSet
446 127 m 2,0,-1
 399 127 l 2,1,2
 382 127 382 127 371.5 139.5 c 128,-1,3
 361 152 361 152 365 170 c 2,4,-1
 378 221 l 2,5,6
 388 255 388 255 425 255 c 2,7,-1
 472 255 l 2,8,9
 489 255 489 255 499.5 243 c 128,-1,10
 510 231 510 231 506 212 c 2,11,-1
 491 164 l 2,12,13
 481 127 481 127 446 127 c 2,0,-1
236 512 m 2,14,-1
 797 512 l 2,15,16
 814 512 814 512 823.5 500 c 128,-1,17
 833 488 833 488 829 470 c 2,18,-1
 816 419 l 2,19,20
 806 385 806 385 771 385 c 2,21,-1
 210 385 l 2,22,23
 194 385 194 385 184 398 c 128,-1,24
 174 411 174 411 178 427 c 2,25,-1
 191 478 l 2,26,27
 201 512 201 512 236 512 c 2,14,-1
584 639 m 2,28,-1
 535 639 l 2,29,30
 518 639 518 639 508.5 651.5 c 128,-1,31
 499 664 499 664 504 682 c 2,32,-1
 516 733 l 2,33,34
 526 767 526 767 561 767 c 2,35,-1
 610 767 l 2,36,37
 625 767 625 767 635 754 c 128,-1,38
 645 741 645 741 642 724 c 2,39,-1
 629 673 l 2,40,41
 616 639 616 639 584 639 c 2,28,-1
EndSplineSet
EndChar

StartChar: oslash
Encoding: 248 248 151
Width: 896
VWidth: 2175
GlyphClass: 2
Flags: W
HStem: 0 127<369.594 554.044> 767 127<447.08 638.263>
DStem2: 37.5383 -88 170.074 -88 0.258819 0.965926<392.564 873.657> 102 0 206 -72 0.586131 0.810216<-31.7306 133.034 307.485 889.415 1063.69 1230.2> 549.952 -88 681.113 -88 0.258819 0.965926<272.382 751.619>
LayerCount: 2
Fore
SplineSet
873 622 m 1,0,-1
 769 240 l 2,1,2
 741 141 741 141 633.5 70.5 c 128,-1,3
 526 0 526 0 402 0 c 0,4,5
 335 0 335 0 306 12.5 c 128,-1,6
 277 25 277 25 268 13 c 2,7,-1
 206 -72 l 2,8,9
 185 -100 185 -100 157 -79 c 2,10,-1
 110 -45 l 2,11,12
 80 -22 80 -22 102 0 c 1,13,-1
 164 85 l 2,14,15
 171 96 171 96 164 106 c 0,16,17
 126 158 126 158 125 217 c 0,18,19
 125 234 125 234 134 272 c 2,20,-1
 238 656 l 2,21,22
 267 759 267 759 372 826.5 c 128,-1,23
 477 894 477 894 608 894 c 0,24,25
 677 894 677 894 701 884 c 0,26,27
 730 871 730 871 739 884 c 2,28,-1
 803 969 l 2,29,30
 821 997 821 997 850 977 c 2,31,-1
 899 943 l 2,32,33
 929 924 929 924 905 894 c 2,34,-1
 843 809 l 2,35,36
 837 799 837 799 843 790 c 0,37,38
 879 734 879 734 880 678 c 0,39,40
 879 651 879 651 873 622 c 1,0,-1
289 259 m 2,41,-1
 637 739 l 2,42,43
 643 749 643 749 637 758 c 0,44,45
 632 766 632 766 608 767 c 0,46,47
 526 767 526 767 451.5 725 c 128,-1,48
 377 683 377 683 361 622 c 2,49,-1
 266 270 l 2,50,51
 265 259 265 259 274 255 c 128,-1,52
 283 251 283 251 289 259 c 2,41,-1
718 635 m 10,53,-1
 372 155 l 2,54,55
 367 148 367 148 370 138 c 0,56,57
 373 127 373 127 402 127 c 0,58,59
 476 127 476 127 554 171 c 128,-1,60
 632 215 632 215 646 272 c 2,61,-1
 741 625 l 2,62,63
 743 637 743 637 733.5 641 c 128,-1,64
 724 645 724 645 718 635 c 10,53,-1
EndSplineSet
EndChar

StartChar: thorn
Encoding: 254 254 155
Width: 896
VWidth: 2175
GlyphClass: 2
Flags: W
HStem: 0 127<236.969 575.746> 767 127<442.797 728.278>
VStem: 752 128<605.028 743.794>
DStem2: -43.2539 -382 89.719 -382 0.258819 0.965926<22.5547 441.794 573.355 1235.98 1367.27 1731.53> 469.869 -382 600.336 -382 0.258819 0.965926<557.482 1104.35>
LayerCount: 2
Fore
SplineSet
438 1279 m 2,0,-1
 491 1279 l 2,1,2
 509 1279 509 1279 518 1267.5 c 128,-1,3
 527 1256 527 1256 523 1236 c 2,4,-1
 436 909 l 2,5,6
 433 894 433 894 446 894 c 2,7,-1
 669 894 l 2,8,9
 758 894 758 894 819 834 c 128,-1,10
 880 774 880 774 880 686 c 0,11,12
 880 651 880 651 871 622 c 2,13,-1
 767 240 l 2,14,15
 744 145 744 145 656 72.5 c 128,-1,16
 568 0 568 0 463 0 c 2,17,-1
 219 0 l 2,18,19
 191 0 191 0 185 -23 c 2,20,-1
 98 -346 l 2,21,22
 88 -382 88 -382 53 -382 c 2,23,-1
 0 -382 l 2,24,25
 -15 -382 -15 -382 -25 -369.5 c 128,-1,26
 -35 -357 -35 -357 -32 -340 c 2,27,-1
 393 1245 l 2,28,29
 403 1279 403 1279 438 1279 c 2,0,-1
249 127 m 2,30,-1
 463 127 l 2,31,32
 524 127 524 127 576.5 172 c 128,-1,33
 629 217 629 217 644 272 c 2,34,-1
 748 656 l 2,35,36
 752 677 752 677 752 686 c 0,37,38
 752 722 752 722 729 744.5 c 128,-1,39
 706 767 706 767 669 767 c 2,40,-1
 425 767 l 2,41,42
 397 767 397 767 391 744 c 2,43,-1
 232 149 l 2,44,45
 226 127 226 127 249 127 c 2,30,-1
EndSplineSet
EndChar

StartChar: dotlessi
Encoding: 305 305 170
Width: 384
VWidth: 2175
GlyphClass: 2
Flags: W
VStem: 72 351
DStem2: 62.5637 0 194.707 0 0.258819 0.965926<22.1941 940.611>
LayerCount: 2
Fore
SplineSet
338 897 m 2,0,-1
 389 897 l 2,1,2
 405 897 405 897 416 882.5 c 128,-1,3
 427 868 427 868 423 852 c 2,4,-1
 204 34 l 2,5,6
 191 0 191 0 157 0 c 2,7,-1
 106 0 l 2,8,9
 89 0 89 0 78.5 12 c 128,-1,10
 68 24 68 24 72 42 c 2,11,-1
 293 860 l 2,12,13
 303 897 303 897 338 897 c 2,0,-1
EndSplineSet
EndChar

StartChar: Lslash
Encoding: 321 321 171
Width: 896
VWidth: 2175
GlyphClass: 2
Flags: W
HStem: 0 127<360.912 843.641>
VStem: 202 652
DStem2: 190.746 0 321.076 0 0.258819 0.965926<176.524 526.34 709.884 782.566 965.437 1336>
LayerCount: 2
Fore
SplineSet
569 1279 m 2,0,-1
 620 1279 l 2,1,2
 637 1279 637 1279 648 1267 c 128,-1,3
 659 1255 659 1255 654 1236 c 2,4,-1
 565 909 l 2,5,6
 563 903 563 903 571 897.5 c 128,-1,7
 579 892 579 892 586 897 c 0,8,9
 610 918 610 918 633 890 c 2,10,-1
 671 843 l 2,11,12
 692 819 692 819 665 797 c 2,13,-1
 512 676 l 2,14,15
 501 668 501 668 497 652 c 2,16,-1
 361 149 l 2,17,18
 358 128 358 128 378 127 c 2,19,-1
 822 127 l 2,20,21
 837 127 837 127 847 114.5 c 128,-1,22
 857 102 857 102 854 85 c 2,23,-1
 841 34 l 2,24,25
 828 0 828 0 797 0 c 2,26,-1
 234 0 l 2,27,28
 217 0 217 0 207.5 12 c 128,-1,29
 198 24 198 24 202 42 c 2,30,-1
 323 497 l 2,31,32
 326 507 326 507 317.5 511 c 128,-1,33
 309 515 309 515 300 508 c 0,34,35
 276 489 276 489 253 514 c 2,36,-1
 215 561 l 2,37,38
 192 588 192 588 221 610 c 2,39,-1
 376 731 l 2,40,41
 382 735 382 735 393 756 c 1,42,-1
 523 1245 l 2,43,44
 532 1279 532 1279 569 1279 c 2,0,-1
EndSplineSet
EndChar

StartChar: lslash
Encoding: 322 322 172
Width: 639
VWidth: 2175
GlyphClass: 2
Flags: W
HStem: 0 127<368.519 460.047>
VStem: 238 130<127.704 333.312>
DStem2: 190.267 0 322.841 0 0.258819 0.965926<196.111 527.711 707.556 785.135 965.562 1336.08>
LayerCount: 2
Fore
SplineSet
654 1236 m 2,0,-1
 565 909 l 2,1,2
 563 903 563 903 571 897.5 c 128,-1,3
 579 892 579 892 586 897 c 0,4,5
 614 916 614 916 633 890 c 2,6,-1
 671 843 l 2,7,8
 691 813 691 813 665 797 c 2,9,-1
 512 676 l 2,10,11
 501 665 501 665 497 652 c 2,12,-1
 370 176 l 2,13,14
 368 168 368 168 368 155 c 0,15,16
 368 127 368 127 402 127 c 2,17,-1
 438 127 l 2,18,19
 455 127 455 127 465.5 115 c 128,-1,20
 476 103 476 103 472 85 c 2,21,-1
 457 34 l 2,22,23
 447 0 447 0 402 0 c 0,24,25
 327 0 327 0 282.5 41.5 c 128,-1,26
 238 83 238 83 238 151 c 0,27,28
 238 183 238 183 246 208 c 2,29,-1
 323 497 l 2,30,31
 326 509 326 509 318.5 512 c 128,-1,32
 311 515 311 515 300 508 c 0,33,34
 272 492 272 492 253 514 c 2,35,-1
 215 561 l 2,36,37
 192 588 192 588 221 610 c 2,38,-1
 376 731 l 2,39,40
 382 735 382 735 393 756 c 1,41,-1
 523 1245 l 2,42,43
 533 1279 533 1279 569 1279 c 2,44,-1
 620 1279 l 2,45,46
 637 1279 637 1279 647.5 1266.5 c 128,-1,47
 658 1254 658 1254 654 1236 c 2,0,-1
EndSplineSet
EndChar

StartChar: circumflex
Encoding: 710 710 200
Width: 639
VWidth: 2175
GlyphClass: 2
Flags: W
DStem2: 461 1513 537 1411 0.801847 0.59753<-33.0436 171.84>
LayerCount: 2
Fore
SplineSet
461 1513 m 10,0,-1
 669 1668 l 2,1,2
 697 1687 697 1687 716 1661 c 2,3,-1
 841 1508 l 2,4,5
 863 1479 863 1479 837 1460 c 2,6,-1
 790 1423 l 2,7,8
 761 1401 761 1401 741 1428 c 2,9,-1
 684 1500 l 2,10,11
 674 1513 674 1513 661 1502 c 2,12,-1
 537 1411 l 2,13,14
 507 1388 507 1388 489 1417 c 2,15,-1
 455 1466 l 2,16,17
 436 1494 436 1494 461 1513 c 10,0,-1
EndSplineSet
EndChar

StartChar: caron
Encoding: 711 711 201
Width: 639
VWidth: 2175
GlyphClass: 2
Flags: W
DStem2: 673 1568 665 1404 0.805542 0.592538<-17.5443 189.835>
LayerCount: 2
Fore
SplineSet
593 1642 m 9,0,-1
 650 1572 l 2,1,2
 661 1558 661 1558 673 1568 c 2,3,-1
 799 1661 l 2,4,5
 824 1680 824 1680 846 1653 c 2,6,-1
 882 1606 l 2,7,8
 902 1579 902 1579 873 1557 c 2,9,-1
 665 1404 l 2,10,11
 637 1386 637 1386 618 1409 c 2,12,-1
 493 1561 l 2,13,14
 470 1588 470 1588 499 1610 c 2,15,-1
 544 1649 l 2,16,17
 571 1672 571 1672 593 1642 c 9,0,-1
EndSplineSet
EndChar

StartChar: breve
Encoding: 728 728 206
Width: 639
VWidth: 2175
GlyphClass: 2
Flags: W
HStem: 1409 127<633.177 715.996>
VStem: 504 129<1537.35 1663>
LayerCount: 2
Fore
SplineSet
540 1663 m 2,0,-1
 599 1663 l 2,1,2
 633 1663 633 1663 633 1629 c 2,3,4
 633 1589 l 2,5,6
 633 1536 633 1536 654 1536 c 7,7,8
 678 1536 678 1536 708 1571 c 128,-1,9
 738 1606 738 1606 750 1638 c 0,10,11
 760 1663 760 1663 790 1663 c 2,12,-1
 848 1663 l 2,13,14
 864 1663 864 1663 875.5 1649 c 128,-1,15
 887 1635 887 1635 880 1617 c 0,16,17
 846 1535 846 1535 784.5 1472 c 128,-1,18
 723 1409 723 1409 650 1409 c 7,19,20
 581 1409 581 1409 542.5 1463 c 128,-1,21
 504 1517 504 1517 504 1600 c 3,22,23
 504 1633 504 1633 510.5 1648 c 128,-1,24
 517 1663 517 1663 540 1663 c 2,0,-1
EndSplineSet
EndChar

StartChar: dotaccent
Encoding: 729 729 207
Width: 384
VWidth: 2175
GlyphClass: 2
Flags: W
HStem: 1409 127<462.926 580.602>
VStem: 453 125<1409 1534.8>
LayerCount: 2
Fore
SplineSet
591 1494 m 2,0,-1
 578 1443 l 2,1,2
 570 1409 570 1409 533 1409 c 2,3,-1
 484 1409 l 2,4,5
 442 1409 442 1409 453 1451 c 2,6,-1
 465 1502 l 2,7,8
 473 1536 473 1536 510 1536 c 2,9,-1
 559 1536 l 2,10,11
 602 1536 602 1536 591 1494 c 2,0,-1
EndSplineSet
EndChar

StartChar: ring
Encoding: 730 730 208
Width: 639
VWidth: 2175
GlyphClass: 2
Flags: W
HStem: 1279 130<583.688 698.949> 1536 127<601.271 717.927>
VStem: 453 129<1409.8 1515.93> 718 130<1429.77 1535.47>
LayerCount: 2
Fore
SplineSet
616 1279 m 3,0,1
 549 1279 549 1279 501 1323.5 c 128,-1,2
 453 1368 453 1368 453 1434 c 3,3,4
 453 1519 453 1519 522 1591 c 128,-1,5
 591 1663 591 1663 684 1663 c 7,6,7
 750 1663 750 1663 799 1620 c 128,-1,8
 848 1577 848 1577 848 1511 c 3,9,10
 848 1425 848 1425 779.5 1352 c 128,-1,11
 711 1279 711 1279 616 1279 c 3,0,1
684 1536 m 3,12,13
 648 1536 648 1536 615.5 1507 c 128,-1,14
 583 1478 583 1478 582 1440 c 0,15,16
 582 1408 582 1408 616 1409 c 3,17,18
 653 1409 653 1409 685.5 1439 c 128,-1,19
 718 1469 718 1469 718 1504 c 3,20,21
 718 1536 718 1536 684 1536 c 3,12,13
EndSplineSet
EndChar

StartChar: hungarumlaut
Encoding: 733 733 210
Width: 702
VWidth: 2175
GlyphClass: 2
Flags: W
HStem: 1381 295
VStem: 461 474
DStem2: 461 1453 680 1604 0.454054 0.890974<-32.4178 267.481> 716 1453 935 1604 0.454054 0.890974<-32.4178 267.481>
LayerCount: 2
Fore
SplineSet
716 1453 m 1,0,-1
 820 1661 l 2,1,2
 837 1691 837 1691 867 1676 c 2,3,-1
 920 1651 l 2,4,5
 951 1634 951 1634 935 1604 c 2,6,-1
 829 1396 l 2,7,8
 813 1365 813 1365 784 1381 c 2,9,-1
 731 1409 l 2,10,11
 700 1425 700 1425 716 1453 c 1,0,-1
461 1453 m 1,12,-1
 565 1661 l 2,13,14
 582 1691 582 1691 612 1676 c 2,15,-1
 665 1651 l 2,16,17
 696 1634 696 1634 680 1604 c 2,18,-1
 574 1396 l 2,19,20
 558 1365 558 1365 529 1381 c 2,21,-1
 476 1409 l 2,22,23
 445 1425 445 1425 461 1453 c 1,12,-1
EndSplineSet
EndChar

StartChar: uni0336
Encoding: 822 822 214
Width: 1425
VWidth: 2175
GlyphClass: 2
Flags: W
HStem: 382 128<191.381 1347.61>
LayerCount: 2
Fore
SplineSet
238 510 m 2,0,-1
 1326 510 l 2,1,2
 1371 510 1371 510 1358 467 c 2,3,-1
 1345 416 l 2,4,5
 1333 382 1333 382 1300 382 c 2,6,-1
 210 382 l 2,7,8
 168 382 168 382 178 425 c 2,9,-1
 191 476 l 2,10,11
 203 510 203 510 238 510 c 2,0,-1
EndSplineSet
EndChar

StartChar: uni035E
Encoding: 862 862 215
Width: 1083
VWidth: 0
GlyphClass: 2
Flags: W
HStem: 1536 127<394.381 1547.62>
LayerCount: 2
Fore
SplineSet
441 1663 m 2,0,-1
 1529 1663 l 2,1,2
 1574 1663 1574 1663 1560 1621 c 2,3,-1
 1548 1570 l 2,4,5
 1536 1536 1536 1536 1503 1536 c 2,6,-1
 413 1536 l 2,7,8
 371 1536 371 1536 381 1578 c 2,9,-1
 394 1629 l 2,10,11
 406 1663 406 1663 441 1663 c 2,0,-1
EndSplineSet
EndChar

StartChar: Gamma
Encoding: 915 915 221
Width: 832
VWidth: 2175
GlyphClass: 2
Flags: W
HStem: 1151 128<492.422 1023.92>
DStem2: 62.7461 0 194.89 0 0.258819 0.965926<22.3403 1236.08>
LayerCount: 2
Fore
SplineSet
440 1279 m 2,0,-1
 1003 1279 l 2,1,2
 1020 1279 1020 1279 1029.5 1267 c 128,-1,3
 1039 1255 1039 1255 1035 1236 c 2,4,-1
 1022 1188 l 2,5,6
 1009 1152 1009 1152 977 1151 c 2,7,-1
 529 1151 l 2,8,9
 504 1151 504 1151 497 1126 c 2,10,-1
 204 34 l 2,11,12
 194 0 194 0 159 0 c 2,13,-1
 106 0 l 2,14,15
 89 0 89 0 79.5 12 c 128,-1,16
 70 24 70 24 74 42 c 2,17,-1
 395 1245 l 2,18,19
 405 1279 405 1279 440 1279 c 2,0,-1
EndSplineSet
EndChar

StartChar: uni0394
Encoding: 916 916 222
Width: 1087
VWidth: 2175
GlyphClass: 2
Flags: W
HStem: 0 127<189.188 800.109>
DStem2: 66 195 189 153 0.514021 0.857778<13.2039 1071.83> 856 1247 744 1030 0.0673535 -0.997729<194.467 1112.61>
LayerCount: 2
Fore
SplineSet
801 147 m 2,0,-1
 744 1030 l 2,1,2
 742 1041 742 1041 734.5 1044 c 128,-1,3
 727 1047 727 1047 720 1037 c 2,4,-1
 189 153 l 2,5,6
 183 146 183 146 189 136.5 c 128,-1,7
 195 127 195 127 204 127 c 2,8,-1
 784 127 l 2,9,10
 801 128 801 128 801 147 c 2,0,-1
744 1279 m 2,11,-1
 822 1279 l 2,12,13
 853 1279 853 1279 856 1247 c 2,14,-1
 931 136 l 2,15,16
 931 128 931 128 928 121 c 2,17,-1
 905 34 l 2,18,19
 895 0 895 0 860 0 c 2,20,-1
 45 0 l 2,21,22
 28 0 28 0 17 12 c 128,-1,23
 6 24 6 24 11 42 c 2,24,-1
 36 134 l 2,25,26
 42 157 42 157 66 195 c 2,27,-1
 703 1258 l 2,28,29
 715 1279 715 1279 744 1279 c 2,11,-1
EndSplineSet
EndChar

StartChar: Theta
Encoding: 920 920 226
Width: 1024
VWidth: 2175
GlyphClass: 2
Flags: W
HStem: 0 127<336.086 623.069> 639 128<513.585 759.047> 1151 128<612.505 902.033>
VStem: 155 130<177.522 503.5> 956 127<776 1098.56>
DStem2: 63.0883 0 194.395 0 0.258819 0.965926<350.26 1109.71> 702.088 0 834.395 0 0.258819 0.965926<249.221 1010.57>
LayerCount: 2
Fore
SplineSet
1071 880 m 2,0,-1
 933 368 l 2,1,2
 893 224 893 224 759.5 112 c 128,-1,3
 626 0 626 0 465 0 c 3,4,5
 331 0 331 0 243 84 c 128,-1,6
 155 168 155 168 155 302 c 3,7,8
 155 355 155 355 170 399 c 2,9,-1
 306 911 l 2,10,11
 344 1057 344 1057 478 1168 c 128,-1,12
 612 1279 612 1279 773 1279 c 3,13,14
 906 1279 906 1279 994.5 1195 c 128,-1,15
 1083 1111 1083 1111 1083 979 c 0,16,17
 1084 931 1084 931 1071 880 c 2,0,-1
809 399 m 2,18,-1
 948 911 l 2,19,20
 956 953 956 953 956 979 c 0,21,22
 956 1058 956 1058 905.5 1104.5 c 128,-1,23
 855 1151 855 1151 773 1151 c 3,24,25
 656 1151 656 1151 557 1068 c 128,-1,26
 458 985 458 985 429 880 c 2,27,-1
 293 368 l 2,28,29
 285 339 285 339 285 302 c 3,30,31
 285 220 285 220 333.5 173.5 c 128,-1,32
 382 127 382 127 465 127 c 3,33,34
 579 127 579 127 680.5 211.5 c 128,-1,35
 782 296 782 296 809 399 c 2,18,-1
561 767 m 2,36,-1
 737 767 l 2,37,38
 754 767 754 767 764.5 755 c 128,-1,39
 775 743 775 743 771 724 c 2,40,-1
 756 673 l 2,41,42
 746 639 746 639 712 639 c 2,43,-1
 535 639 l 2,44,45
 520 639 520 639 510 652 c 128,-1,46
 500 665 500 665 504 682 c 2,47,-1
 516 733 l 2,48,49
 526 767 526 767 561 767 c 2,36,-1
EndSplineSet
EndChar

StartChar: Lambda
Encoding: 923 923 229
Width: 1024
VWidth: 2175
GlyphClass: 2
Flags: W
VStem: 744 121<735.542 1024.45> 771 128<0 545.458>
DStem2: 13 51 144 23 0.501772 0.865<-11.0921 1204.51>
LayerCount: 2
Fore
SplineSet
752 1279 m 2,0,-1
 831 1279 l 2,1,2
 865 1279 865 1279 865 1247 c 2,3,-1
 899 34 l 2,4,5
 899 0 899 0 865 0 c 2,6,-1
 805 0 l 2,7,8
 771 0 771 0 771 34 c 2,9,-1
 744 1009 l 2,10,11
 744 1023 744 1023 735.5 1024.5 c 128,-1,12
 727 1026 727 1026 720 1016 c 2,13,-1
 144 23 l 2,14,15
 130 0 130 0 104 0 c 2,16,-1
 42 0 l 2,17,18
 28 0 28 0 17 10 c 128,-1,19
 6 20 6 20 6 34 c 0,20,21
 6 41 6 41 13 51 c 2,22,-1
 712 1256 l 2,23,24
 725 1279 725 1279 752 1279 c 2,0,-1
EndSplineSet
EndChar

StartChar: Xi
Encoding: 926 926 232
Width: 1024
VWidth: 2175
GlyphClass: 2
Flags: W
HStem: 0 127<86.3651 843.635> 639 128<386.365 887.047> 1151 128<394.585 1152.05>
LayerCount: 2
Fore
SplineSet
839 639 m 2,0,-1
 408 639 l 2,1,2
 391 639 391 639 381.5 651.5 c 128,-1,3
 372 664 372 664 376 682 c 2,4,-1
 389 733 l 2,5,6
 399 767 399 767 433 767 c 2,7,-1
 865 767 l 2,8,9
 882 767 882 767 892.5 755 c 128,-1,10
 903 743 903 743 899 724 c 2,11,-1
 884 673 l 2,12,13
 874 639 874 639 839 639 c 2,0,-1
134 127 m 2,14,-1
 822 127 l 2,15,16
 839 127 839 127 848.5 115 c 128,-1,17
 858 103 858 103 854 85 c 2,18,-1
 841 34 l 2,19,20
 828 0 828 0 797 0 c 2,21,-1
 108 0 l 2,22,23
 91 0 91 0 81.5 12 c 128,-1,24
 72 24 72 24 76 42 c 2,25,-1
 89 93 l 2,26,27
 99 127 99 127 134 127 c 2,14,-1
442 1279 m 2,28,-1
 1130 1279 l 2,29,30
 1147 1279 1147 1279 1157.5 1267 c 128,-1,31
 1168 1255 1168 1255 1164 1236 c 2,32,-1
 1149 1185 l 2,33,34
 1139 1151 1139 1151 1105 1151 c 2,35,-1
 416 1151 l 2,36,37
 401 1151 401 1151 391 1164 c 128,-1,38
 381 1177 381 1177 385 1194 c 2,39,-1
 397 1245 l 2,40,41
 407 1279 407 1279 442 1279 c 2,28,-1
EndSplineSet
EndChar

StartChar: Pi
Encoding: 928 928 234
Width: 1024
VWidth: 2175
GlyphClass: 2
Flags: W
HStem: 1151 128<492.422 1000.45>
DStem2: 62.7461 0 194.89 0 0.258819 0.965926<22.3403 1236.17> 702.217 0 834.815 0 0.258819 0.965926<22.3052 1180.18>
LayerCount: 2
Fore
SplineSet
440 1279 m 2,0,-1
 1132 1279 l 2,1,2
 1149 1279 1149 1279 1160 1267 c 128,-1,3
 1171 1255 1171 1255 1166 1236 c 2,4,-1
 843 34 l 2,5,6
 830 0 830 0 799 0 c 2,7,-1
 746 0 l 2,8,9
 729 0 729 0 719.5 12 c 128,-1,10
 710 24 710 24 714 42 c 2,11,-1
 1005 1130 l 2,12,13
 1011 1151 1011 1151 988 1151 c 2,14,-1
 529 1151 l 2,15,16
 504 1151 504 1151 497 1126 c 2,17,-1
 204 34 l 2,18,19
 194 0 194 0 159 0 c 2,20,-1
 106 0 l 2,21,22
 89 0 89 0 79.5 12 c 128,-1,23
 70 24 70 24 74 42 c 2,24,-1
 395 1245 l 2,25,26
 405 1279 405 1279 440 1279 c 2,0,-1
EndSplineSet
EndChar

StartChar: Sigma
Encoding: 931 931 236
Width: 1024
VWidth: 2175
GlyphClass: 2
Flags: W
HStem: 0 127<261.673 843.635> 1151 128<513.25 1152.05>
DStem2: 113 168 263 155 0.608009 0.79393<65.8227 647.476> 508 1130 374 1137 0.223692 -0.97466<-12.6107 492.275>
LayerCount: 2
Fore
SplineSet
444 1279 m 2,0,-1
 1130 1279 l 2,1,2
 1147 1279 1147 1279 1157.5 1267 c 128,-1,3
 1168 1255 1168 1255 1164 1236 c 2,4,-1
 1149 1185 l 2,5,6
 1139 1151 1139 1151 1105 1151 c 2,7,-1
 525 1151 l 2,8,9
 502 1151 502 1151 508 1130 c 2,10,-1
 620 642 l 2,11,12
 623 627 623 627 614 612 c 2,13,-1
 263 155 l 2,14,15
 256 147 256 147 261.5 137 c 128,-1,16
 267 127 267 127 278 127 c 2,17,-1
 822 127 l 2,18,19
 839 127 839 127 848.5 115 c 128,-1,20
 858 103 858 103 854 85 c 2,21,-1
 841 34 l 2,22,23
 831 0 831 0 797 0 c 2,24,-1
 108 0 l 2,25,26
 91 0 91 0 81.5 12 c 128,-1,27
 72 24 72 24 76 42 c 2,28,-1
 104 151 l 2,29,30
 107 163 107 163 113 168 c 2,31,-1
 476 642 l 2,32,33
 486 655 486 655 482 671 c 2,34,-1
 374 1137 l 2,35,36
 372 1140 372 1140 376 1160 c 2,37,-1
 397 1245 l 2,38,39
 407 1279 407 1279 444 1279 c 2,0,-1
EndSplineSet
EndChar

StartChar: Phi
Encoding: 934 934 239
Width: 1278
VWidth: 2175
GlyphClass: 2
Flags: W
HStem: 193 128<431.07 550.641 738.188 904.054> 956 132<596.015 761.18>
VStem: 221 130<400.817 690.252> 1145 128<573.965 875.344>
DStem2: 510.913 0 642.89 0 0.258819 0.965926<22.2891 189.073 377.693 983.179 1166.27 1336.02>
LayerCount: 2
Fore
SplineSet
888 1279 m 2,0,-1
 941 1279 l 2,1,2
 958 1279 958 1279 967.5 1267 c 128,-1,3
 977 1255 977 1255 973 1236 c 2,4,-1
 939 1107 l 2,5,6
 936 1089 936 1089 954 1086 c 0,7,8
 1098 1068 1098 1068 1185.5 978.5 c 128,-1,9
 1273 889 1273 889 1273 739 c 3,10,11
 1273 613 1273 613 1197 486.5 c 128,-1,12
 1121 360 1121 360 991 276.5 c 128,-1,13
 861 193 861 193 720 193 c 0,14,15
 692 193 692 193 686 168 c 2,16,-1
 652 34 l 2,17,18
 642 0 642 0 605 0 c 2,19,-1
 554 0 l 2,20,21
 537 0 537 0 526.5 12 c 128,-1,22
 516 24 516 24 520 42 c 2,23,-1
 557 172 l 2,24,25
 563 193 563 193 542 193 c 0,26,27
 411 193 411 193 316 296.5 c 128,-1,28
 221 400 221 400 221 540 c 3,29,30
 221 633 221 633 267 732 c 128,-1,31
 313 831 313 831 387.5 909 c 128,-1,32
 462 987 462 987 565.5 1037.5 c 128,-1,33
 669 1088 669 1088 775 1088 c 0,34,35
 804 1088 804 1088 807 1113 c 2,36,-1
 843 1245 l 2,37,38
 853 1279 853 1279 888 1279 c 2,0,-1
892 935 m 2,39,-1
 735 344 l 2,40,41
 732 337 732 337 738 330 c 128,-1,42
 744 323 744 323 752 323 c 0,43,44
 849 323 849 323 942 390 c 128,-1,45
 1035 457 1035 457 1090 553.5 c 128,-1,46
 1145 650 1145 650 1145 739 c 3,47,48
 1145 837 1145 837 1087 891 c 128,-1,49
 1029 945 1029 945 926 960 c 0,50,51
 899 964 899 964 892 935 c 2,39,-1
603 346 m 2,52,-1
 761 935 l 2,53,54
 767 956 767 956 741 956 c 0,55,56
 669 956 669 956 596 912 c 128,-1,57
 523 868 523 868 470 803.5 c 128,-1,58
 417 739 417 739 384 667 c 128,-1,59
 351 595 351 595 351 540 c 3,60,61
 351 440 351 440 413 380.5 c 128,-1,62
 475 321 475 321 569 321 c 0,63,64
 597 321 597 321 603 346 c 2,52,-1
EndSplineSet
EndChar

StartChar: Psi
Encoding: 936 936 241
Width: 1151
VWidth: 2175
GlyphClass: 2
Flags: W
VStem: 257 128<541.024 877.641>
DStem2: 61.4033 0 193.502 0 0.258819 0.965926<698.699 1335.98> 445.936 0 576.89 0 0.258819 0.965926<21.9758 338.424 524.495 1335.9> 830.403 0 962.502 0 0.258819 0.965926<630.604 1335.94>
LayerCount: 2
Fore
SplineSet
440 1279 m 2,0,-1
 493 1279 l 2,1,2
 510 1279 510 1279 519.5 1267 c 128,-1,3
 529 1255 529 1255 525 1236 c 2,4,-1
 395 752 l 2,5,6
 384 710 384 710 385 669 c 0,7,8
 385 588 385 588 415.5 539.5 c 128,-1,9
 446 491 446 491 533 459 c 0,10,11
 564 448 564 448 576 482 c 2,12,-1
 780 1245 l 2,13,14
 786 1279 786 1279 824 1279 c 2,15,-1
 877 1279 l 2,16,17
 892 1279 892 1279 903 1265.5 c 128,-1,18
 914 1252 914 1252 909 1236 c 2,19,-1
 710 489 l 2,20,21
 708 478 708 478 714 471 c 128,-1,22
 720 464 720 464 731 467 c 0,23,24
 831 496 831 496 921.5 588.5 c 128,-1,25
 1012 681 1012 681 1039 784 c 2,26,-1
 1164 1245 l 2,27,28
 1170 1279 1170 1279 1209 1279 c 2,29,-1
 1260 1279 l 2,30,31
 1277 1279 1277 1279 1287.5 1267 c 128,-1,32
 1298 1255 1298 1255 1294 1236 c 2,33,-1
 1164 752 l 2,34,35
 1122 597 1122 597 989.5 476 c 128,-1,36
 857 355 857 355 686 325 c 0,37,38
 662 322 662 322 659 300 c 2,39,-1
 586 34 l 2,40,41
 576 0 576 0 542 0 c 2,42,-1
 491 0 l 2,43,44
 474 0 474 0 463.5 12 c 128,-1,45
 453 24 453 24 457 42 c 2,46,-1
 529 310 l 2,47,48
 534 325 534 325 510 331 c 0,49,50
 380 378 380 378 318.5 455 c 128,-1,51
 257 532 257 532 257 669 c 0,52,53
 257 731 257 731 272 784 c 2,54,-1
 395 1245 l 2,55,56
 405 1279 405 1279 440 1279 c 2,0,-1
EndSplineSet
EndChar

StartChar: uni03A9
Encoding: 937 937 242
Width: 1151
VWidth: 2175
GlyphClass: 2
Flags: W
HStem: 0 127<150.365 364.047 751.859 907.635> 1151 128<645.818 1005.04>
VStem: 208 128<396.219 695.883> 1081 128<770.766 1082.62>
DStem2: 62.1061 0 194.216 0 0.258819 0.965926<560.582 1094.25> 688 334 782 229 0.847553 0.530711<-44.5894 372.351> 830.898 0 961.216 0 0.258819 0.965926<462.665 997.966>
LayerCount: 2
Fore
SplineSet
988 593 m 2,0,-1
 1075 911 l 2,1,2
 1081 940 1081 940 1081 967 c 3,3,4
 1081 1057 1081 1057 1010.5 1104 c 128,-1,5
 940 1151 940 1151 837 1151 c 3,6,7
 702 1151 702 1151 581 1069 c 128,-1,8
 460 987 460 987 429 880 c 2,9,-1
 344 559 l 2,10,11
 336 537 336 537 336 506 c 3,12,13
 336 444 336 444 376 400 c 0,14,15
 421 350 421 350 504 329 c 28,16,17
 537 322 537 322 527 287 c 2,18,-1
 459 34 l 2,19,20
 449 0 449 0 414 0 c 2,21,-1
 172 0 l 2,22,23
 155 0 155 0 145.5 12 c 128,-1,24
 136 24 136 24 140 42 c 2,25,-1
 153 93 l 2,26,27
 163 127 163 127 198 127 c 2,28,-1
 327 127 l 2,29,30
 349 127 349 127 359 153 c 2,31,-1
 378 223 l 2,32,33
 381 238 381 238 370 242 c 0,34,35
 301 272 301 272 254.5 348 c 128,-1,36
 208 424 208 424 208 516 c 3,37,38
 208 545 208 545 221 593 c 2,39,-1
 306 911 l 2,40,41
 345 1060 345 1060 499.5 1169.5 c 128,-1,42
 654 1279 654 1279 837 1279 c 3,43,44
 991 1279 991 1279 1100 1195.5 c 128,-1,45
 1209 1112 1209 1112 1209 967 c 3,46,47
 1209 919 1209 919 1198 880 c 2,48,-1
 1111 559 l 2,49,50
 1076 423 1076 423 948 323 c 0,51,52
 881 270 881 270 782 229 c 0,53,54
 768 224 768 224 761 206 c 2,55,-1
 746 149 l 2,56,57
 740 128 740 128 763 127 c 2,58,-1
 886 127 l 2,59,60
 903 127 903 127 912.5 115 c 128,-1,61
 922 103 922 103 918 85 c 2,62,-1
 905 34 l 2,63,64
 895 0 895 0 860 0 c 2,65,-1
 618 0 l 2,66,67
 601 0 601 0 591.5 12 c 128,-1,68
 582 24 582 24 586 42 c 2,69,-1
 654 300 l 2,70,71
 660 324 660 324 688 334 c 0,72,73
 797 368 797 368 869 423 c 0,74,75
 961 495 961 495 988 593 c 2,0,-1
EndSplineSet
EndChar

StartChar: alpha
Encoding: 945 945 248
Width: 1024
VWidth: 2175
GlyphClass: 2
Flags: W
HStem: 0 127<267.101 451.653> 767 130<427.147 614.595>
VStem: 123 130<148.144 290.707> 646 140<448.353 501.351> 724 128<13.407 246.186>
DStem2: 61.1178 0 194.692 0 0.258819 0.965926<245.354 800.922> 497 225 605 157 0.564828 0.825209<-141.343 105.531 272.252 326.094 501.602 778.088>
LayerCount: 2
Fore
SplineSet
967 850 m 2,0,-1
 1013 814 l 2,1,2
 1041 792 1041 792 1020 767 c 0,3,4
 869 563 869 563 792 446 c 0,5,6
 782 430 782 430 786 395 c 0,7,8
 796 328 796 328 819.5 200.5 c 128,-1,9
 843 73 843 73 852 42 c 0,10,11
 856 26 856 26 845.5 13 c 128,-1,12
 835 0 835 0 820 0 c 2,13,-1
 758 0 l 2,14,15
 730 0 730 0 724 25 c 0,16,17
 700 113 700 113 682 238 c 0,18,19
 674 269 674 269 659 242 c 2,20,-1
 605 157 l 2,21,22
 505 0 505 0 361 0 c 3,23,24
 254 0 254 0 188.5 51.5 c 128,-1,25
 123 103 123 103 123 195 c 0,26,27
 123 237 123 237 134 272 c 2,28,-1
 238 656 l 2,29,30
 259 744 259 744 348 820.5 c 128,-1,31
 437 897 437 897 533 897 c 3,32,33
 736 897 736 897 752 712 c 0,34,35
 753 704 753 704 754 687 c 128,-1,36
 755 670 755 670 756 663 c 0,37,38
 758 652 758 652 765.5 649 c 128,-1,39
 773 646 773 646 782 654 c 0,40,41
 869 778 869 778 920 843 c 0,42,43
 939 871 939 871 967 850 c 2,0,-1
497 225 m 6,44,-1
 557 319 l 2,45,46
 638 442 638 442 642 448 c 0,47,48
 649 459 649 459 646 506 c 0,49,50
 640 547 640 547 627 684 c 0,51,52
 617 767 617 767 531 767 c 3,53,54
 476 767 476 767 425.5 721 c 128,-1,55
 375 675 375 675 361 622 c 2,56,-1
 259 240 l 2,57,58
 253 221 253 221 253 202 c 0,59,60
 253 168 253 168 274.5 147.5 c 128,-1,61
 296 127 296 127 338 127 c 0,62,63
 435 128 435 128 497 225 c 6,44,-1
EndSplineSet
EndChar

StartChar: beta
Encoding: 946 946 249
Width: 894
VWidth: 2175
GlyphClass: 2
Flags: W
HStem: 0 125<339.365 554.07> 637 130<511.643 658.519> 1149 128<555.277 760.898>
VStem: 710 131<352.586 613.862> 775 130<891.015 1134.79>
DStem2: -42.875 -385 88.8897 -385 0.258819 0.965926<22.3375 1561.22> 467.741 -385 600.029 -385 0.258819 0.965926<578.395 952.612>
LayerCount: 2
Fore
SplineSet
387 125 m 2,0,-1
 429 125 l 2,1,2
 503 125 503 125 568.5 180 c 128,-1,3
 634 235 634 235 652 302 c 2,4,-1
 703 493 l 2,5,6
 709 515 709 515 710 537 c 0,7,8
 710 582 710 582 678.5 609.5 c 128,-1,9
 647 637 647 637 601 637 c 2,10,-1
 533 637 l 2,11,12
 515 637 515 637 505 648 c 128,-1,13
 495 659 495 659 499 680 c 2,14,-1
 514 731 l 2,15,16
 524 764 524 764 554 767 c 0,17,18
 644 780 644 780 709.5 861.5 c 128,-1,19
 775 943 775 943 775 1041 c 3,20,21
 775 1149 775 1149 676 1149 c 3,22,23
 598 1149 598 1149 530.5 1083 c 128,-1,24
 463 1017 463 1017 444 941 c 2,25,-1
 98 -351 l 2,26,27
 88 -385 88 -385 53 -385 c 2,28,-1
 0 -385 l 2,29,30
 -17 -385 -17 -385 -27.5 -372 c 128,-1,31
 -38 -359 -38 -359 -32 -342 c 2,32,-1
 321 973 l 2,33,34
 351 1088 351 1088 451.5 1182.5 c 128,-1,35
 552 1277 552 1277 676 1277 c 3,36,37
 905 1277 905 1277 905 1049 c 3,38,39
 905 875 905 875 758 729 c 0,40,41
 748 719 748 719 765 703 c 2,42,-1
 792 676 l 2,43,44
 841 627 841 627 841 554 c 0,45,46
 841 524 841 524 826 461 c 2,47,-1
 775 268 l 2,48,49
 745 156 745 156 648.5 78 c 128,-1,50
 552 0 552 0 429 0 c 2,51,-1
 361 0 l 2,52,53
 344 0 344 0 334.5 11 c 128,-1,54
 325 22 325 22 329 40 c 2,55,-1
 342 91 l 2,56,57
 352 125 352 125 387 125 c 2,0,-1
EndSplineSet
EndChar

StartChar: gamma
Encoding: 947 947 250
Width: 894
VWidth: 2175
GlyphClass: 2
Flags: W
HStem: 767 130<292.92 415.846>
VStem: 255 134<-213 64.1116> 506 136<-27.1445 395.654>
DStem2: 618 627 644 444 0.603026 0.797721<-11.3392 309.59>
LayerCount: 2
Fore
SplineSet
340 897 m 2,0,-1
 351 897 l 2,1,2
 421 897 421 897 489 829 c 0,3,4
 552 763 552 763 595 631 c 0,5,6
 597 625 597 625 605 622.5 c 128,-1,7
 613 620 613 620 618 627 c 0,8,9
 676 708 676 708 792 846 c 0,10,11
 814 871 814 871 839 850 c 2,12,-1
 886 812 l 2,13,14
 914 789 914 789 890 765 c 0,15,16
 777 643 777 643 644 444 c 0,17,18
 633 425 633 425 635 412 c 0,19,20
 641 348 641 348 642 287 c 3,21,22
 642 88 642 88 580 -81.5 c 128,-1,23
 518 -251 518 -251 410 -359 c 0,24,25
 381 -388 381 -388 358 -388 c 0,26,27
 329 -388 329 -388 306 -348 c 0,28,29
 255 -265 255 -265 255 -161 c 3,30,31
 255 -27 255 -27 316 116 c 128,-1,32
 377 259 377 259 493 446 c 0,33,34
 504 467 504 467 495 506 c 0,35,36
 454 690 454 690 399 744 c 0,37,38
 376 767 376 767 351 767 c 2,39,-1
 314 767 l 2,40,41
 297 767 297 767 286.5 779 c 128,-1,42
 276 791 276 791 280 809 c 2,43,-1
 295 860 l 2,44,45
 305 897 305 897 340 897 c 2,0,-1
480 168 m 0,46,47
 389 -12 389 -12 389 -142 c 0,48,49
 389 -152 389 -152 397.5 -155 c 128,-1,50
 406 -158 406 -158 412 -149 c 0,51,52
 505 9 505 9 506 161 c 0,53,54
 506 172 506 172 495 175.5 c 128,-1,55
 484 179 484 179 480 168 c 0,46,47
EndSplineSet
EndChar

StartChar: delta
Encoding: 948 948 251
Width: 894
VWidth: 2175
GlyphClass: 2
Flags: W
HStem: 0 127<271.391 554.479> 1156 125<559.234 851.463>
VStem: 127 128<150.918 396.352> 423 131<1011.05 1147.78> 754 126<605.028 723.343>
DStem2: 61.1178 0 192.281 0 0.258819 0.965926<261.993 780.07> 574.225 0 704.692 0 0.258819 0.965926<181.222 701.273>
LayerCount: 2
Fore
SplineSet
633 1281 m 3,0,1
 745 1281 745 1281 926 1224 c 0,2,3
 956 1214 956 1214 948 1181 c 2,4,-1
 931 1124 l 2,5,6
 921 1091 921 1091 888 1100 c 0,7,8
 722 1155 722 1155 650 1156 c 3,9,10
 554 1156 554 1156 554 1092 c 3,11,12
 554 1022 554 1022 784 848 c 0,13,14
 880 772 880 772 880 678 c 0,15,16
 880 651 880 651 873 622 c 2,17,-1
 769 240 l 2,18,19
 742 140 742 140 634.5 70 c 128,-1,20
 527 0 527 0 402 0 c 3,21,22
 286 0 286 0 206.5 59 c 128,-1,23
 127 118 127 118 127 219 c 0,24,25
 127 243 127 243 134 272 c 2,26,-1
 238 656 l 2,27,28
 258 738 258 738 333.5 799 c 128,-1,29
 409 860 409 860 510 884 c 0,30,31
 538 890 538 890 512 916 c 0,32,33
 423 1002 423 1002 423 1092 c 3,34,35
 423 1281 423 1281 633 1281 c 3,0,1
646 272 m 6,36,-1
 750 656 l 2,37,38
 754 673 754 673 754 678 c 0,39,40
 754 703 754 703 733 724 c 0,41,42
 691 766 691 766 608 767 c 0,43,44
 526 767 526 767 451.5 725 c 128,-1,45
 377 683 377 683 361 622 c 2,46,-1
 259 249 l 2,47,48
 255 228 255 228 255 219 c 0,49,50
 255 173 255 173 299.5 150 c 128,-1,51
 344 127 344 127 402 127 c 3,52,53
 476 127 476 127 554 171 c 0,54,55
 630 215 630 215 646 272 c 6,36,-1
EndSplineSet
EndChar

StartChar: epsilon
Encoding: 949 949 252
Width: 896
VWidth: 2175
GlyphClass: 2
Flags: W
HStem: 0 127<259.332 716.635> 385 127<359.85 563.641> 767 130<426.326 818.913>
VStem: 125 128<134.046 310.722> 227 128<518.149 697.073>
LayerCount: 2
Fore
SplineSet
440 512 m 2,0,-1
 542 512 l 2,1,2
 557 512 557 512 567.5 498.5 c 128,-1,3
 578 485 578 485 574 470 c 2,4,-1
 561 419 l 2,5,6
 551 385 551 385 516 385 c 2,7,-1
 440 385 l 2,8,9
 388 385 388 385 329 342 c 0,10,11
 253 281 253 281 253 200 c 7,12,13
 253 128 253 128 338 127 c 2,14,-1
 695 127 l 2,15,16
 712 127 712 127 721.5 115 c 128,-1,17
 731 103 731 103 727 85 c 2,18,-1
 714 34 l 2,19,20
 704 0 704 0 669 0 c 2,21,-1
 338 0 l 2,22,23
 225 0 225 0 175 50.5 c 128,-1,24
 125 101 125 101 125 206 c 7,25,26
 125 347 125 347 249 442 c 0,27,28
 266 455 266 455 267.5 458 c 128,-1,29
 269 461 269 461 261 476 c 0,30,31
 227 520 227 520 227 593 c 7,32,33
 227 715 227 715 316.5 806 c 128,-1,34
 406 897 406 897 548 897 c 7,35,36
 645 897 645 897 719 886 c 128,-1,37
 793 875 793 875 871 841 c 0,38,39
 903 828 903 828 888 795 c 2,40,-1
 865 741 l 2,41,42
 849 709 849 709 820 722 c 0,43,44
 708 767 708 767 561 767 c 7,45,46
 478 767 478 767 416.5 714 c 128,-1,47
 355 661 355 661 355 588 c 7,48,49
 355 512 355 512 440 512 c 2,0,-1
EndSplineSet
EndChar

StartChar: zeta
Encoding: 950 950 253
Width: 896
VWidth: 2175
GlyphClass: 2
Flags: W
HStem: -382 127<111.969 473.822> 0 127<248.542 542.285> 960 128<528.685 644.874>
VStem: 119 127<129.959 315.908> 385 129<1107.25 1278.16> 548 128<-181.707 -5.98193>
LayerCount: 2
Fore
SplineSet
440 1279 m 2,0,-1
 493 1279 l 2,1,2
 534 1279 534 1279 525 1236 c 2,3,-1
 516 1198 l 2,4,5
 514 1192 514 1192 514 1179 c 0,6,7
 514 1088 514 1088 659 1088 c 2,8,-1
 850 1088 l 2,9,10
 880 1088 880 1088 898 1068.5 c 128,-1,11
 916 1049 916 1049 916 1024 c 0,12,13
 916 991 916 991 886 971 c 0,14,15
 737 872 737 872 573 695.5 c 128,-1,16
 409 519 409 519 312 355 c 0,17,18
 246 246 246 246 246 174 c 3,19,20
 246 127 246 127 323 127 c 2,21,-1
 465 127 l 2,22,23
 554 127 554 127 615 70 c 128,-1,24
 676 13 676 13 676 -76 c 3,25,26
 676 -190 676 -190 580 -286 c 128,-1,27
 484 -382 484 -382 361 -382 c 2,28,-1
 134 -382 l 2,29,30
 118 -382 118 -382 105.5 -369 c 128,-1,31
 93 -356 93 -356 100 -340 c 2,32,-1
 115 -289 l 2,33,34
 121 -255 121 -255 159 -255 c 2,35,-1
 361 -255 l 2,36,37
 430 -255 430 -255 489 -197.5 c 128,-1,38
 548 -140 548 -140 548 -76 c 3,39,40
 548 0 548 0 465 0 c 2,41,-1
 323 0 l 2,42,43
 119 0 119 0 119 176 c 3,44,45
 119 273 119 273 200 419 c 0,46,47
 264 532 264 532 408.5 701.5 c 128,-1,48
 553 871 553 871 642 939 c 0,49,50
 649 945 649 945 645 952.5 c 128,-1,51
 641 960 641 960 633 960 c 7,52,53
 537 960 537 960 461 1022.5 c 128,-1,54
 385 1085 385 1085 385 1179 c 0,55,56
 385 1203 385 1203 391 1232 c 2,57,-1
 395 1245 l 2,58,59
 405 1279 405 1279 440 1279 c 2,0,-1
EndSplineSet
EndChar

StartChar: eta
Encoding: 951 951 254
Width: 1024
VWidth: 2175
GlyphClass: 2
Flags: W
HStem: 767 130<292.92 379.232 575.042 862.596>
VStem: 877 132<578.864 745.569>
DStem2: 86.72 -382 219.533 -382 0.258819 0.965926<418.076 1172.74> 599.567 -382 729.354 -382 0.258819 0.965926<21.8279 1090.25>
LayerCount: 2
Fore
SplineSet
340 897 m 2,0,-1
 351 897 l 2,1,2
 451 897 451 897 482 833 c 0,3,4
 488 820 488 820 506 831 c 0,5,6
 609 897 609 897 735 897 c 7,7,8
 842 897 842 897 925.5 838.5 c 128,-1,9
 1009 780 1009 780 1009 684 c 0,10,11
 1009 651 1009 651 1001 622 c 2,12,-1
 739 -346 l 2,13,14
 729 -382 729 -382 695 -382 c 2,15,-1
 644 -382 l 2,16,17
 627 -382 627 -382 616 -369.5 c 128,-1,18
 605 -357 605 -357 610 -340 c 2,19,-1
 871 631 l 2,20,21
 877 653 877 653 877 673 c 0,22,23
 877 766 877 766 731 767 c 7,24,25
 641 767 641 767 574 722 c 0,26,27
 505 674 505 674 489 622 c 2,28,-1
 331 34 l 2,29,30
 321 0 321 0 287 0 c 2,31,-1
 234 0 l 2,32,33
 217 0 217 0 207.5 12 c 128,-1,34
 198 24 198 24 202 42 c 2,35,-1
 382 720 l 2,36,37
 388 741 388 741 379.5 754 c 128,-1,38
 371 767 371 767 351 767 c 2,39,-1
 314 767 l 2,40,41
 297 767 297 767 286.5 779 c 128,-1,42
 276 791 276 791 280 809 c 2,43,-1
 295 860 l 2,44,45
 305 897 305 897 340 897 c 2,0,-1
EndSplineSet
EndChar

StartChar: theta
Encoding: 952 952 255
Width: 896
VWidth: 2175
GlyphClass: 2
Flags: W
HStem: 0 127<285.303 556.031> 639 128<412.234 733.312> 1151 128<544.128 838.925>
VStem: 127 128<150.724 291.554> 856 128<888.211 1126.82>
DStem2: 63.1178 0 194.692 0 0.258819 0.965926<261.325 707.443 839.364 1184.36> 573.407 0 706.692 0 0.258819 0.965926<178.458 650.331 782.252 1098.83>
LayerCount: 2
Fore
SplineSet
975 1007 m 2,0,-1
 771 240 l 2,1,2
 742 140 742 140 635 70 c 128,-1,3
 528 0 528 0 402 0 c 3,4,5
 286 0 286 0 206.5 59 c 128,-1,6
 127 118 127 118 127 219 c 3,7,8
 127 250 127 250 136 272 c 2,9,-1
 340 1041 l 2,10,11
 369 1145 369 1145 475.5 1212 c 128,-1,12
 582 1279 582 1279 710 1279 c 3,13,14
 822 1279 822 1279 903 1220.5 c 128,-1,15
 984 1162 984 1162 984 1062 c 7,16,17
 983 1030 983 1030 975 1007 c 2,0,-1
648 272 m 2,18,-1
 739 618 l 2,19,20
 745 639 745 639 722 639 c 2,21,-1
 391 639 l 2,22,23
 366 639 366 639 359 614 c 2,24,-1
 259 240 l 2,25,26
 255 223 255 223 255 219 c 3,27,28
 255 173 255 173 298 150 c 128,-1,29
 341 127 341 127 402 127 c 3,30,31
 480 127 480 127 554 170 c 0,32,33
 632 213 632 213 648 272 c 2,18,-1
786 792 m 1,34,-1
 852 1041 l 2,35,36
 856 1058 856 1058 856 1062 c 7,37,38
 856 1106 856 1106 810.5 1128.5 c 128,-1,39
 765 1151 765 1151 710 1151 c 3,40,41
 626 1151 626 1151 553 1111.5 c 128,-1,42
 480 1072 480 1072 463 1007 c 2,43,-1
 406 788 l 2,44,45
 400 767 400 767 423 767 c 2,46,-1
 754 767 l 2,47,48
 776 767 776 767 786 792 c 1,34,-1
EndSplineSet
EndChar

StartChar: iota
Encoding: 953 953 256
Width: 703
VWidth: 2175
GlyphClass: 2
Flags: W
HStem: 0 127<255.299 442.953>
VStem: 119 127<135.831 353.508>
DStem2: 62.5637 0 195.247 0 0.258819 0.965926<224.705 937.442> 348 136 393 17 0.935084 0.354427<-41.964 164.91>
LayerCount: 2
Fore
SplineSet
338 894 m 2,0,-1
 389 894 l 2,1,2
 406 894 406 894 416.5 882 c 128,-1,3
 427 870 427 870 423 852 c 2,4,-1
 255 223 l 2,5,6
 247 198 247 198 246 183 c 0,7,8
 246 156 246 156 262 141.5 c 128,-1,9
 278 127 278 127 306 127 c 7,10,11
 323 127 323 127 348 136 c 2,12,-1
 472 183 l 2,13,14
 502 193 502 193 514 164 c 2,15,-1
 535 108 l 2,16,17
 545 73 545 73 516 64 c 2,18,-1
 393 17 l 2,19,20
 345 0 345 0 306 0 c 7,21,22
 227 0 227 0 173 52 c 128,-1,23
 119 104 119 104 119 183 c 0,24,25
 119 212 119 212 125 240 c 2,26,-1
 293 860 l 2,27,28
 300 894 300 894 338 894 c 2,0,-1
EndSplineSet
EndChar

StartChar: kappa
Encoding: 954 954 257
Width: 1087
VWidth: 2175
GlyphClass: 2
Flags: W
HStem: 0 127<728.973 907.635> 767 130<293.309 384.938>
VStem: 385 129<566.969 766.178>
DStem2: 189.077 0 322.346 0 0.258819 0.965926<22.6005 340.302 552.16 762.257> 480 499 631 467 0.713448 0.700708<43.084 613.177> 622 431 525 331 0.371979 -0.928241<49.7163 342.814>
LayerCount: 2
Fore
SplineSet
903 897 m 2,0,-1
 984 897 l 2,1,2
 1006 897 1006 897 1015.5 876.5 c 128,-1,3
 1025 856 1025 856 1007 837 c 2,4,-1
 631 467 l 2,5,6
 614 450 614 450 622 431 c 2,7,-1
 731 159 l 2,8,9
 744 127 744 127 784 127 c 2,10,-1
 886 127 l 2,11,12
 903 127 903 127 912.5 115 c 128,-1,13
 922 103 922 103 918 85 c 2,14,-1
 905 34 l 2,15,16
 895 0 895 0 860 0 c 2,17,-1
 784 0 l 2,18,19
 657 0 657 0 612 110 c 2,20,-1
 525 331 l 2,21,22
 515 353 515 353 497 336 c 2,23,-1
 391 232 l 2,24,25
 383 224 383 224 378 210 c 2,26,-1
 331 34 l 2,27,28
 321 0 321 0 287 0 c 2,29,-1
 234 0 l 2,30,31
 217 0 217 0 207.5 12 c 128,-1,32
 198 24 198 24 202 42 c 2,33,-1
 382 720 l 2,34,35
 384 726 384 726 385 737 c 0,36,37
 385 767 385 767 351 767 c 2,38,-1
 314 767 l 2,39,40
 299 767 299 767 288.5 779.5 c 128,-1,41
 278 792 278 792 283 809 c 2,42,-1
 295 860 l 2,43,44
 301 896 301 896 340 897 c 2,45,-1
 351 897 l 2,46,47
 422 897 422 897 468 857 c 128,-1,48
 514 817 514 817 514 746 c 0,49,50
 514 715 514 715 506 686 c 2,51,-1
 459 510 l 2,52,53
 457 502 457 502 465.5 497.5 c 128,-1,54
 474 493 474 493 480 499 c 2,55,-1
 871 882 l 2,56,57
 886 897 886 897 903 897 c 2,0,-1
EndSplineSet
EndChar

StartChar: lambda
Encoding: 955 955 258
Width: 960
VWidth: 2175
GlyphClass: 2
Flags: W
HStem: 0 127<741.001 777.679> 1154 123<458.156 498.688>
DStem2: 66 51 198 21 0.530309 0.847804<-8.0139 704.397> 622 1162 497 1124 0.117587 -0.993063<-23.8658 402.59 572.978 1059.59>
LayerCount: 2
Fore
SplineSet
622 1162 m 2,0,-1
 741 157 l 2,1,2
 744 127 744 127 767 127 c 7,3,4
 779 127 779 127 786 114 c 128,-1,5
 793 101 793 101 790 85 c 2,6,-1
 778 34 l 2,7,8
 768 0 768 0 724 0 c 7,9,10
 678 0 678 0 650 33 c 128,-1,11
 622 66 622 66 616 119 c 2,12,-1
 563 565 l 2,13,14
 561 575 561 575 553.5 577 c 128,-1,15
 546 579 546 579 540 569 c 2,16,-1
 198 21 l 2,17,18
 186 0 186 0 159 0 c 2,19,-1
 96 0 l 2,20,21
 78 0 78 0 66 16.5 c 128,-1,22
 54 33 54 33 66 51 c 2,23,-1
 527 788 l 2,24,25
 537 801 537 801 533 818 c 2,26,-1
 497 1124 l 2,27,28
 494 1154 494 1154 476 1154 c 3,29,30
 462 1154 462 1154 453.5 1166.5 c 128,-1,31
 445 1179 445 1179 448 1194 c 2,32,-1
 461 1243 l 2,33,34
 471 1277 471 1277 514 1277 c 3,35,36
 559 1277 559 1277 588 1244.5 c 128,-1,37
 617 1212 617 1212 622 1162 c 2,0,-1
EndSplineSet
EndChar

StartChar: uni03BC
Encoding: 956 956 259
Width: 1024
VWidth: 2175
GlyphClass: 2
Flags: W
HStem: 0 127<268.598 559.47 752.909 843.635>
DStem2: -41.2539 -382 92.3356 -382 0.258819 0.965926<22.7065 475.167 650.651 1335.85> 472.761 -382 604.484 -382 0.258819 0.965926<574.824 1336.06>
LayerCount: 2
Fore
SplineSet
338 897 m 2,0,-1
 391 897 l 2,1,2
 406 897 406 897 416.5 882.5 c 128,-1,3
 427 868 427 868 423 852 c 2,4,-1
 259 240 l 2,5,6
 255 219 255 219 255 212 c 0,7,8
 255 127 255 127 425 127 c 7,9,10
 490 127 490 127 562 173 c 128,-1,11
 634 219 634 219 648 272 c 2,12,-1
 805 860 l 2,13,14
 811 896 811 896 850 897 c 2,15,-1
 903 897 l 2,16,17
 918 897 918 897 928.5 882.5 c 128,-1,18
 939 868 939 868 935 852 c 2,19,-1
 754 176 l 2,20,21
 741 124 741 124 786 127 c 2,22,-1
 822 127 l 2,23,24
 839 127 839 127 848.5 115 c 128,-1,25
 858 103 858 103 854 85 c 2,26,-1
 841 34 l 2,27,28
 835 0 835 0 797 0 c 2,29,-1
 786 0 l 2,30,31
 681 0 681 0 654 62 c 0,32,33
 650 79 650 79 631 66 c 0,34,35
 578 28 578 28 530.5 14 c 128,-1,36
 483 0 483 0 402 0 c 7,37,38
 281 0 281 0 225 49 c 0,39,40
 212 62 212 62 206 40 c 2,41,-1
 100 -346 l 2,42,43
 94 -382 94 -382 55 -382 c 2,44,-1
 4 -382 l 2,45,46
 -11 -382 -11 -382 -22.5 -369.5 c 128,-1,47
 -34 -357 -34 -357 -30 -340 c 2,48,-1
 293 860 l 2,49,50
 303 897 303 897 338 897 c 2,0,-1
EndSplineSet
EndChar

StartChar: nu
Encoding: 957 957 260
Width: 896
VWidth: 2175
GlyphClass: 2
Flags: W
HStem: 767 125<290.057 327.089>
VStem: 257 128<186.61 640.403> 280 179<781.438 855.387>
DStem2: 574.077 0 706.187 0 0.258819 0.965926<497.225 940.506>
LayerCount: 2
Fore
SplineSet
850 897 m 2,0,-1
 903 897 l 2,1,2
 918 897 918 897 928.5 882.5 c 128,-1,3
 939 868 939 868 935 852 c 2,4,-1
 890 686 l 2,5,6
 839 505 839 505 710 344 c 0,7,8
 552 150 552 150 419 17 c 0,9,10
 402 0 402 0 382 0 c 2,11,-1
 291 0 l 2,12,13
 278 0 278 0 267.5 11 c 128,-1,14
 257 22 257 22 257 36 c 2,15,-1
 257 193 l 2,16,17
 257 204 257 204 256 227.5 c 128,-1,18
 255 251 255 251 255 263 c 0,19,20
 255 399 255 399 271 503 c 128,-1,21
 287 607 287 607 327 752 c 0,22,23
 330 767 330 767 314 767 c 3,24,25
 299 767 299 767 287.5 781 c 128,-1,26
 276 795 276 795 280 812 c 2,27,-1
 293 858 l 2,28,29
 303 892 303 892 346 892 c 3,30,31
 392 892 392 892 425.5 856.5 c 128,-1,32
 459 821 459 821 459 771 c 3,33,34
 459 754 459 754 450 720 c 0,35,36
 384 482 384 482 385 319 c 2,37,-1
 385 198 l 2,38,39
 385 190 385 190 388 186.5 c 128,-1,40
 391 183 391 183 396 185 c 0,41,42
 407 190 407 190 414 198 c 4,43,44
 524 317 524 317 614 429 c 0,45,46
 726 566 726 566 767 720 c 2,47,-1
 805 860 l 2,48,49
 815 897 815 897 850 897 c 2,0,-1
EndSplineSet
EndChar

StartChar: xi
Encoding: 958 958 261
Width: 1024
VWidth: 2175
GlyphClass: 2
Flags: W
HStem: -382 127<239.416 603.704> 0 127<338.41 670.395> 639 128<577.33 887.047> 1024 127<626.551 990.641>
VStem: 155 130<178.865 452.248> 399 130<1158.14 1278.96> 425 125<782.025 949.354> 676 129<-181.693 -5.62299>
LayerCount: 2
Fore
SplineSet
612 1151 m 2,0,-1
 969 1151 l 2,1,2
 984 1151 984 1151 994.5 1138 c 128,-1,3
 1005 1125 1005 1125 1001 1109 c 2,4,-1
 988 1058 l 2,5,6
 978 1024 978 1024 943 1024 c 2,7,-1
 739 1024 l 2,8,9
 684 1024 684 1024 629 982 c 0,10,11
 550 919 550 919 550 841 c 7,12,13
 550 806 550 806 576.5 786.5 c 128,-1,14
 603 767 603 767 637 767 c 2,15,-1
 865 767 l 2,16,17
 880 767 880 767 891.5 754 c 128,-1,18
 903 741 903 741 899 724 c 2,19,-1
 884 673 l 2,20,21
 874 639 874 639 839 639 c 2,22,-1
 629 639 l 2,23,24
 503 639 503 639 394 531.5 c 128,-1,25
 285 424 285 424 285 302 c 7,26,27
 285 221 285 221 333.5 174 c 128,-1,28
 382 127 382 127 465 127 c 2,29,-1
 593 127 l 2,30,31
 682 127 682 127 743.5 70.5 c 128,-1,32
 805 14 805 14 805 -76 c 7,33,34
 805 -189 805 -189 709.5 -285.5 c 128,-1,35
 614 -382 614 -382 491 -382 c 2,36,-1
 261 -382 l 2,37,38
 243 -382 243 -382 234 -369.5 c 128,-1,39
 225 -357 225 -357 229 -340 c 2,40,-1
 242 -289 l 2,41,42
 252 -255 252 -255 287 -255 c 2,43,-1
 491 -255 l 2,44,45
 561 -255 561 -255 618.5 -196.5 c 128,-1,46
 676 -138 676 -138 676 -74 c 7,47,48
 676 0 676 0 593 0 c 2,49,-1
 465 0 l 2,50,51
 330 0 330 0 242.5 83 c 128,-1,52
 155 166 155 166 155 302 c 7,53,54
 155 446 155 446 234.5 552.5 c 128,-1,55
 314 659 314 659 446 722 c 0,56,57
 459 728 459 728 453 741 c 0,58,59
 425 787 425 787 425 833 c 7,60,61
 425 958 425 958 501 1035 c 0,62,63
 513 1047 513 1047 497 1054 c 0,64,65
 399 1110 399 1110 399 1230 c 2,66,-1
 399 1234 l 2,67,68
 399 1279 399 1279 446 1279 c 2,69,-1
 495 1279 l 2,70,71
 508 1279 508 1279 518.5 1268.5 c 128,-1,72
 529 1258 529 1258 529 1245 c 2,73,-1
 529 1230 l 2,74,75
 529 1151 529 1151 612 1151 c 2,0,-1
EndSplineSet
EndChar

StartChar: pi
Encoding: 960 960 263
Width: 1151
VWidth: 2175
GlyphClass: 2
Flags: W
HStem: 0 127<150.365 292.241 818.127 908.047> 767 130<292.699 455.09 580.734 839.089 965.734 1111.1>
VStem: 686 130<127.2 332.516>
DStem2: 253.502 0 385.966 0 0.258819 0.965926<129.661 782.284> 639.267 0 770.841 0 0.258819 0.965926<195.852 782.045> 1111 941 1147 814 0.859855 0.510539<-161.438 35.0569>
LayerCount: 2
Fore
SplineSet
340 897 m 2,0,-1
 990 897 l 2,1,2
 1043 900 1043 900 1079 922 c 6,3,-1
 1111 941 l 2,4,5
 1139 956 1139 956 1158 931 c 2,6,-1
 1188 880 l 2,7,8
 1204 848 1204 848 1177 833 c 2,9,-1
 1147 814 l 2,10,11
 1071 767 1071 767 990 767 c 0,12,13
 976 767 976 767 973 754 c 2,14,-1
 818 176 l 2,15,16
 816 168 816 168 816 155 c 0,17,18
 816 127 816 127 850 127 c 2,19,-1
 886 127 l 2,20,21
 903 127 903 127 913.5 115 c 128,-1,22
 924 103 924 103 920 85 c 2,23,-1
 905 34 l 2,24,25
 895 0 895 0 860 0 c 3,26,27
 776 0 776 0 731 41.5 c 128,-1,28
 686 83 686 83 686 159 c 0,29,30
 686 188 686 188 695 208 c 2,31,-1
 839 752 l 2,32,33
 842 767 842 767 826 767 c 2,34,-1
 605 767 l 2,35,36
 591 767 591 767 588 754 c 2,37,-1
 433 176 l 2,38,39
 413 102 413 102 353.5 51 c 128,-1,40
 294 0 294 0 210 0 c 2,41,-1
 172 0 l 2,42,43
 155 0 155 0 145.5 12 c 128,-1,44
 136 24 136 24 140 42 c 2,45,-1
 153 93 l 2,46,47
 163 127 163 127 198 127 c 3,48,49
 239 127 239 127 270 150 c 128,-1,50
 301 173 301 173 310 208 c 2,51,-1
 455 752 l 2,52,53
 458 767 458 767 444 767 c 2,54,-1
 314 767 l 2,55,56
 299 767 299 767 287.5 781.5 c 128,-1,57
 276 796 276 796 280 809 c 2,58,-1
 295 860 l 2,59,60
 305 897 305 897 340 897 c 2,0,-1
EndSplineSet
EndChar

StartChar: rho
Encoding: 961 961 264
Width: 896
VWidth: 2175
GlyphClass: 2
Flags: W
HStem: 0 127<349.61 562.177> 767 130<447.763 722.512>
VStem: 127 128<150.331 390.609> 221 125<-245.324 -0.610229> 752 128<604.066 744.822>
DStem2: -39.248 -382.034 92.3264 -382.034 0.258819 0.965926<656.742 1178.47> 471.859 -382.034 604.326 -382.034 0.258819 0.965926<572.039 1128.73>
LayerCount: 2
Fore
SplineSet
136 272 m 2,0,-1
 238 656 l 2,1,2
 266 760 266 760 370 828.5 c 128,-1,3
 474 897 474 897 608 897 c 3,4,5
 715 897 715 897 797.5 838 c 128,-1,6
 880 779 880 779 880 678 c 3,7,8
 880 651 880 651 873 622 c 2,9,-1
 771 240 l 2,10,11
 741 133 741 133 635.5 66.5 c 128,-1,12
 530 0 530 0 402 0 c 3,13,14
 374 0 374 0 359 2 c 0,15,16
 353 3 353 3 349.5 -0.5 c 128,-1,17
 346 -4 346 -4 346 -11 c 0,18,19
 348 -24 348 -24 348 -53 c 3,20,21
 348 -180 348 -180 270 -355 c 0,22,23
 260 -383 260 -383 227 -382 c 2,24,-1
 170 -382 l 2,25,26
 151 -382 151 -382 141 -368 c 128,-1,27
 131 -354 131 -354 140 -334 c 0,28,29
 187 -230 187 -230 206 -161 c 4,30,31
 221 -103 221 -103 221 -53 c 3,32,33
 221 32 221 32 176 89 c 0,34,35
 127 154 127 154 127 219 c 0,36,37
 130 249 130 249 136 272 c 2,0,-1
646 272 m 2,38,-1
 750 656 l 2,39,40
 753 667 753 667 752 678 c 0,41,42
 752 724 752 724 708.5 745.5 c 128,-1,43
 665 767 665 767 608 767 c 3,44,45
 526 767 526 767 451.5 725 c 128,-1,46
 377 683 377 683 361 622 c 2,47,-1
 259 240 l 2,48,49
 258 236 258 236 257 230.5 c 128,-1,50
 256 225 256 225 255.5 222.5 c 128,-1,51
 255 220 255 220 255 219 c 0,52,53
 255 173 255 173 298 150 c 128,-1,54
 341 127 341 127 402 127 c 3,55,56
 483 127 483 127 555.5 167 c 128,-1,57
 628 207 628 207 646 272 c 2,38,-1
EndSplineSet
EndChar

StartChar: sigma1
Encoding: 962 962 265
Width: 1024
VWidth: 2175
GlyphClass: 2
Flags: W
HStem: -382 127<111.936 603.087> 0 127<307.131 669.787> 767 130<468.48 922.234>
VStem: 140 130<163.615 353.401> 676 129<-182.31 -5.40515>
DStem2: -39.3875 -382 92.1869 -382 0.258819 0.965926<696.095 1153.23>
LayerCount: 2
Fore
SplineSet
159 -255 m 2,0,-1
 491 -255 l 2,1,2
 560 -255 560 -255 618 -197.5 c 128,-1,3
 676 -140 676 -140 676 -76 c 7,4,5
 676 0 676 0 593 0 c 2,6,-1
 402 0 l 2,7,8
 284 0 284 0 212 68.5 c 128,-1,9
 140 137 140 137 140 246 c 0,10,11
 140 287 140 287 153 336 c 2,12,-1
 221 593 l 2,13,14
 254 718 254 718 360.5 806.5 c 128,-1,15
 467 895 467 895 608 897 c 2,16,-1
 899 897 l 2,17,18
 916 897 916 897 926.5 883.5 c 128,-1,19
 937 870 937 870 933 852 c 2,20,-1
 920 803 l 2,21,22
 907 767 907 767 873 767 c 2,23,-1
 608 767 l 2,24,25
 519 767 519 767 441.5 702.5 c 128,-1,26
 364 638 364 638 344 559 c 2,27,-1
 276 304 l 2,28,29
 270 279 270 279 270 255 c 0,30,31
 270 198 270 198 306 162.5 c 128,-1,32
 342 127 342 127 402 127 c 2,33,-1
 593 127 l 2,34,35
 681 127 681 127 743 71 c 128,-1,36
 805 15 805 15 805 -76 c 7,37,38
 805 -189 805 -189 709 -285.5 c 128,-1,39
 613 -382 613 -382 491 -382 c 2,40,-1
 134 -382 l 2,41,42
 119 -382 119 -382 107.5 -368.5 c 128,-1,43
 96 -355 96 -355 100 -338 c 2,44,-1
 115 -289 l 2,45,46
 124 -255 124 -255 159 -255 c 2,0,-1
EndSplineSet
EndChar

StartChar: sigma
Encoding: 963 963 266
Width: 1024
VWidth: 2175
GlyphClass: 2
Flags: W
HStem: 0 127<285.303 560.695> 767 130<448.625 737.294 876.141 982.873>
VStem: 127 128<149.94 390.609> 752 130<496.656 744.996>
DStem2: 63.1178 0 194.692 0 0.258819 0.965926<261.325 782.355> 574.225 0 706.692 0 0.258819 0.965926<176.877 733.88> 952 922 1020 814 0.844819 0.535052<-115.494 68.7847>
LayerCount: 2
Fore
SplineSet
648 272 m 2,0,-1
 750 656 l 2,1,2
 753 668 753 668 752 678 c 0,3,4
 752 723 752 723 708 745 c 128,-1,5
 664 767 664 767 608 767 c 3,6,7
 526 767 526 767 451.5 725 c 128,-1,8
 377 683 377 683 361 622 c 2,9,-1
 259 240 l 2,10,11
 255 223 255 223 255 219 c 3,12,13
 255 173 255 173 298 150 c 128,-1,14
 341 127 341 127 402 127 c 3,15,16
 482 127 482 127 556.5 168.5 c 128,-1,17
 631 210 631 210 648 272 c 2,0,-1
873 622 m 2,18,-1
 771 240 l 2,19,20
 744 138 744 138 636.5 69 c 128,-1,21
 529 0 529 0 402 0 c 3,22,23
 286 0 286 0 206.5 59 c 128,-1,24
 127 118 127 118 127 219 c 3,25,26
 127 240 127 240 136 272 c 2,27,-1
 238 656 l 2,28,29
 266 759 266 759 370 828 c 128,-1,30
 474 897 474 897 608 897 c 2,31,-1
 863 897 l 2,32,33
 907 893 907 893 952 922 c 2,34,-1
 982 941 l 2,35,36
 1010 959 1010 959 1028 931 c 2,37,-1
 1060 880 l 2,38,39
 1076 851 1076 851 1049 833 c 2,40,-1
 1020 814 l 2,41,42
 947 769 947 769 877 769 c 0,43,44
 857 769 857 769 867 750 c 0,45,46
 882 714 882 714 882 678 c 3,47,48
 881 656 881 656 873 622 c 2,18,-1
EndSplineSet
EndChar

StartChar: tau
Encoding: 964 964 267
Width: 1087
VWidth: 2175
GlyphClass: 2
Flags: W
HStem: 0 127<597.722 713.589> 767 130<292.699 576.047 709.75 1046.48>
VStem: 446 128<141.693 389.617>
DStem2: 382.118 0 513.692 0 0.258819 0.965926<243.422 782.108>
LayerCount: 2
Fore
SplineSet
340 897 m 2,0,-1
 863 897 l 2,1,2
 959 897 959 897 1047 941 c 0,3,4
 1076 957 1076 957 1092 931 c 2,5,-1
 1126 882 l 2,6,7
 1144 854 1144 854 1113 833 c 0,8,9
 1015 767 1015 767 863 767 c 2,10,-1
 746 767 l 2,11,12
 721 767 721 767 714 741 c 2,13,-1
 578 240 l 2,14,15
 574 219 574 219 574 200 c 7,16,17
 574 167 574 167 597 147 c 128,-1,18
 620 127 620 127 656 127 c 2,19,-1
 695 127 l 2,20,21
 710 127 710 127 720.5 114 c 128,-1,22
 731 101 731 101 727 85 c 2,23,-1
 714 34 l 2,24,25
 701 0 701 0 667 0 c 2,26,-1
 656 0 l 2,27,28
 566 0 566 0 506 58 c 128,-1,29
 446 116 446 116 446 206 c 7,30,31
 446 243 446 243 455 272 c 2,32,-1
 582 746 l 2,33,34
 588 767 588 767 565 767 c 2,35,-1
 314 767 l 2,36,37
 299 767 299 767 287.5 781.5 c 128,-1,38
 276 796 276 796 280 809 c 2,39,-1
 295 860 l 2,40,41
 305 897 305 897 340 897 c 2,0,-1
EndSplineSet
EndChar

StartChar: upsilon
Encoding: 965 965 268
Width: 896
VWidth: 2175
GlyphClass: 2
Flags: W
HStem: 0 127<319.023 469.009> 767 125<292.375 327.089>
VStem: 183 127<136.667 360> 752 128<506.432 876.749>
DStem2: 125.502 0 258.267 0 0.258819 0.965926<224.641 794.684>
LayerCount: 2
Fore
SplineSet
450 720 m 2,0,-1
 314 208 l 2,1,2
 310 187 310 187 310 183 c 3,3,4
 310 158 310 158 326 142.5 c 128,-1,5
 342 127 342 127 370 127 c 3,6,7
 405 127 405 127 448 155 c 0,8,9
 614 275 614 275 688 453 c 0,10,11
 752 605 752 605 752 797 c 0,12,13
 752 827 752 827 750 841 c 0,14,15
 747 872 747 872 782 875 c 2,16,-1
 841 882 l 2,17,18
 868 885 868 885 873 863 c 0,19,20
 879 834 879 834 880 795 c 0,21,22
 880 575 880 575 805 404 c 0,23,24
 715 188 715 188 523 51 c 0,25,26
 450 0 450 0 370 0 c 131,-1,27
 290 0 290 0 236.5 50.5 c 128,-1,28
 183 101 183 101 183 183 c 3,29,30
 183 208 183 208 191 240 c 2,31,-1
 327 752 l 2,32,33
 330 767 330 767 314 767 c 131,-1,34
 298 767 298 767 288 779.5 c 128,-1,35
 278 792 278 792 283 809 c 2,36,-1
 295 858 l 2,37,38
 303 892 303 892 348 892 c 3,39,40
 398 892 398 892 427.5 857 c 128,-1,41
 457 822 457 822 457 771 c 3,42,43
 456 745 456 745 450 720 c 2,0,-1
EndSplineSet
EndChar

StartChar: phi
Encoding: 966 966 269
Width: 1151
VWidth: 2175
GlyphClass: 2
Flags: W
HStem: 767 130<797 970.744>
VStem: 157 128<198.784 497.983> 986 127<420.408 755.84>
DStem2: 342.199 -382 474.354 -382 0.258819 0.965926<22.424 395.596 580.863 1210.09>
LayerCount: 2
Fore
SplineSet
574 -19 m 2,0,-1
 484 -346 l 2,1,2
 471 -382 471 -382 440 -382 c 2,3,-1
 387 -382 l 2,4,5
 372 -382 372 -382 362 -369.5 c 128,-1,6
 352 -357 352 -357 355 -340 c 2,7,-1
 440 -17 l 2,8,9
 443 -5 443 -5 434.5 3 c 128,-1,10
 426 11 426 11 406 15 c 0,11,12
 299 44 299 44 228 123 c 128,-1,13
 157 202 157 202 157 314 c 3,14,15
 157 404 157 404 232 612 c 0,16,17
 279 742 279 742 380 884 c 0,18,19
 399 912 399 912 427 890 c 2,20,-1
 476 854 l 2,21,22
 501 835 501 835 482 807 c 0,23,24
 387 673 387 673 351 565 c 0,25,26
 285 371 285 371 285 314 c 3,27,28
 285 238 285 238 332 196.5 c 128,-1,29
 379 155 379 155 465 134 c 0,30,31
 481 131 481 131 484 147 c 2,32,-1
 631 688 l 2,33,34
 652 770 652 770 728 833.5 c 128,-1,35
 804 897 804 897 894 897 c 3,36,37
 1113 897 1113 897 1113 646 c 3,38,39
 1113 564 1113 564 1060 368 c 0,40,41
 1023 228 1023 228 898 131.5 c 128,-1,42
 773 35 773 35 601 4 c 0,43,44
 579 1 579 1 574 -19 c 2,0,-1
754 654 m 2,45,-1
 622 164 l 2,46,47
 618 150 618 150 621 144.5 c 128,-1,48
 624 139 624 139 635 142 c 0,49,50
 751 174 751 174 831.5 240.5 c 128,-1,51
 912 307 912 307 937 402 c 0,52,53
 976 548 976 548 984 616 c 0,54,55
 986 641 986 641 986 653 c 3,56,57
 986 767 986 767 894 767 c 3,58,59
 847 767 847 767 806.5 731.5 c 128,-1,60
 766 696 766 696 754 654 c 2,45,-1
EndSplineSet
EndChar

StartChar: chi
Encoding: 967 967 270
Width: 1024
VWidth: 2175
GlyphClass: 2
Flags: W
HStem: -378 123<695.625 741.915> 769 123<290.503 333.686>
DStem2: 32 -329 166 -361 0.568961 0.822364<-6.29167 587.512 927.622 1521.94> 453 795 334 744 0.233588 -0.972336<-55.9991 366.745 708.92 1172.3>
LayerCount: 2
Fore
SplineSet
999 843 m 2,0,-1
 597 261 l 2,1,2
 584 245 584 245 591 223 c 2,3,-1
 699 -229 l 2,4,5
 705 -251 705 -251 724 -255 c 0,6,7
 761 -265 761 -265 752 -297 c 2,8,-1
 739 -344 l 2,9,10
 726 -384 726 -384 686 -378 c 0,11,12
 648 -372 648 -372 619 -344.5 c 128,-1,13
 590 -317 590 -317 580 -280 c 2,14,-1
 495 76 l 2,15,16
 489 105 489 105 472 81 c 2,17,-1
 166 -361 l 2,18,19
 148 -382 148 -382 127 -382 c 2,20,-1
 62 -382 l 2,21,22
 42 -382 42 -382 31 -365 c 128,-1,23
 20 -348 20 -348 32 -329 c 2,24,-1
 436 253 l 2,25,26
 449 269 449 269 442 291 c 2,27,-1
 334 744 l 2,28,29
 324 766 324 766 308 769 c 0,30,31
 272 779 272 779 280 812 c 2,32,-1
 293 858 l 2,33,34
 303 898 303 898 346 892 c 0,35,36
 433 879 433 879 453 795 c 2,37,-1
 537 438 l 2,38,39
 543 409 543 409 561 433 c 2,40,-1
 867 875 l 2,41,42
 879 896 879 896 905 897 c 2,43,-1
 971 897 l 2,44,45
 989 897 989 897 1000 878.5 c 128,-1,46
 1011 860 1011 860 999 843 c 2,0,-1
EndSplineSet
EndChar

